<?xml version="1.0" encoding="UTF-8" standalone="no"?>
<!-- Generator: Adobe Illustrator 15.1.0, SVG Export Plug-In  -->

<svg
   xmlns:dc="http://purl.org/dc/elements/1.1/"
   xmlns:cc="http://creativecommons.org/ns#"
   xmlns:rdf="http://www.w3.org/1999/02/22-rdf-syntax-ns#"
   xmlns:svg="http://www.w3.org/2000/svg"
   xmlns="http://www.w3.org/2000/svg"
   xmlns:sodipodi="http://sodipodi.sourceforge.net/DTD/sodipodi-0.dtd"
   xmlns:inkscape="http://www.inkscape.org/namespaces/inkscape"
   version="1.1"
   x="0px"
   y="0px"
   width="8.8000002in"
   height="6.8000002in"
   viewBox="-142.884 -121.767 792 612"
   overflow="visible"
   enable-background="new -142.884 -121.767 792 612"
   xml:space="preserve"
   id="svg2"
   inkscape:version="0.91 r13725"
   sodipodi:docname="adafruit_pi_box.svg"
   style="overflow:visible"><metadata
     id="metadata612"><rdf:RDF><cc:Work
         rdf:about=""><dc:format>image/svg+xml</dc:format><dc:type
           rdf:resource="http://purl.org/dc/dcmitype/StillImage" /><dc:title></dc:title></cc:Work></rdf:RDF></metadata><sodipodi:namedview
     pagecolor="#ffffff"
     bordercolor="#666666"
     borderopacity="1"
     objecttolerance="10"
     gridtolerance="10"
     guidetolerance="10"
     inkscape:pageopacity="0"
     inkscape:pageshadow="2"
     inkscape:window-width="1920"
     inkscape:window-height="1017"
     id="namedview610"
     showgrid="false"
     inkscape:zoom="2.0570379"
     inkscape:cx="303.73656"
     inkscape:cy="309.13509"
     inkscape:window-x="-8"
     inkscape:window-y="-8"
     inkscape:window-maximized="1"
     inkscape:current-layer="svg2"
     units="in"
     inkscape:document-units="in" /><defs
     id="defs4" /><path
     d="m 7.799,62.296 c 0,-1.565 1.268,-2.835 2.834,-2.835 l 5.528,0 0,-29.195 -5.528,0 c -1.566,0 -2.834,-1.27 -2.834,-2.835 l 0,-9.213 8.504,0 c 9.541,0 17.215,-1.507 21.895,-3.308 4.58,-1.762 11.74,-3.07 20.625,-3.07 0.979,0 1.771,-0.793 1.771,-1.771 l 0,0 c 0,-0.979 -0.793,-1.771 -1.771,-1.771 -9.541,0 -17.217,1.506 -21.896,3.307 -4.58,1.762 -11.74,3.071 -20.623,3.071 L 7.8,14.675 c -2.936,0 -5.316,-2.379 -5.316,-5.314 0,-2.935 2.381,-5.314 5.316,-5.314 l 0,3.26 8.504,0 0,-3.971 c 0,-1.565 1.268,-2.834 2.834,-2.834 l 1.418,0 c 0.361,0 0.725,0.139 1.002,0.415 0.553,0.554 1.449,0.554 2.004,0 0.553,-0.554 1.451,-0.554 2.004,0.001 0.553,0.553 1.451,0.553 2.004,-0.001 0.553,-0.554 1.451,-0.554 2.004,0.001 0.555,0.553 1.451,0.553 2.004,-0.001 0.555,-0.554 1.451,-0.554 2.006,0.001 0.553,0.553 1.449,0.553 2.004,-0.001 0.275,-0.276 0.639,-0.415 1.002,-0.415 l 208.026,0 c 0.363,0 0.727,0.139 1.002,0.415 0.555,0.554 1.451,0.554 2.004,0.001 0.555,-0.555 1.451,-0.555 2.006,-0.001 0.553,0.554 1.449,0.554 2.003,0.001 0.553,-0.555 1.451,-0.555 2.004,-0.001 0.554,0.554 1.452,0.554 2.005,0.001 0.553,-0.555 1.451,-0.555 2.004,-0.001 0.555,0.554 1.451,0.554 2.004,0 0.277,-0.276 0.641,-0.415 1.002,-0.415 l 1.418,0 c 1.566,0 2.834,1.269 2.834,2.834 l 0,3.969 8.929,0 0,-3.26 c 2.936,0 5.314,2.379 5.314,5.314 0,2.935 -2.379,5.314 -5.314,5.314 l -8.929,10e-4 c -8.883,0 -16.043,-1.31 -20.624,-3.071 -4.68,-1.801 -12.354,-3.307 -21.895,-3.307 -0.979,0 -1.771,0.793 -1.771,1.771 l 0,0 c 0,0.979 0.793,1.771 1.771,1.771 8.883,0 16.043,1.309 20.623,3.07 4.68,1.801 12.354,3.308 21.895,3.308 l 8.929,0 0,9.213 c 0,1.565 -1.268,2.835 -2.834,2.835 l -5.954,0 0,29.195 5.954,0 c 1.566,0 2.834,1.27 2.834,2.835 l 0,12.756 c 2.936,0 5.314,2.38 5.314,5.315 0,2.935 -2.379,5.314 -5.314,5.314 l 0,-3.26 -8.93,0 0,3.969 c 0,1.564 -1.268,2.834 -2.834,2.834 l -242.929,0 c -1.566,0 -2.834,-1.27 -2.834,-2.834 l 0,-3.969 -8.504,0 0,3.26 c -2.936,0 -5.316,-2.379 -5.316,-5.314 0,-2.935 2.381,-5.315 5.316,-5.315 l 0,-12.754 z"
     id="path6"
     inkscape:connector-curvature="0"
     style="fill:none;stroke:#000000" /><rect
     x="73.703003"
     y="73.635002"
     width="34.015999"
     height="8.7869997"
     id="rect8"
     style="fill:none;stroke:#000000" /><rect
     x="174.33299"
     y="73.635002"
     width="34.015999"
     height="8.7869997"
     id="rect10"
     style="fill:none;stroke:#000000" /><rect
     x="73.703003"
     y="7.3049998"
     width="34.015999"
     height="8.7869997"
     id="rect12"
     style="fill:none;stroke:#000000" /><rect
     x="174.33299"
     y="7.3049998"
     width="34.015999"
     height="8.7869997"
     id="rect14"
     style="fill:none;stroke:#000000" /><path
     stroke-miterlimit="2.6131"
     d="m 154.632,45.395 c 0,1.565 -1.27,2.834 -2.834,2.834 l -39.685,0 c -1.566,0 -2.834,-1.269 -2.834,-2.834 l 0,-10.631 c 0,-0.752 0.297,-1.473 0.83,-2.004 l 2.834,-2.834 c 0.531,-0.532 1.252,-0.83 2.004,-0.83 l 34.017,0 c 0.752,0 1.473,0.298 2.004,0.83 l 2.834,2.834 c 0.531,0.531 0.83,1.252 0.83,2.004 l 0,10.631 z"
     id="path16"
     inkscape:connector-curvature="0"
     style="fill:none;stroke:#000000;stroke-miterlimit:2.61310005" /><path
     d="m 142.951,61.313 0,-3.103 -3.587,0 0,3.103 -0.968,0 0,-7.415 0.968,0 0,3.477 3.587,0 0,-3.477 0.958,0 0,7.415 -0.958,0 z"
     id="path18"
     inkscape:connector-curvature="0"
     style="fill:#ed1c24" /><path
     d="m 136.86,61.214 c -0.584,0.089 -1.277,0.154 -2.036,0.154 -1.375,0 -2.354,-0.319 -3.003,-0.924 -0.66,-0.605 -1.045,-1.464 -1.045,-2.662 0,-1.211 0.373,-2.201 1.066,-2.883 0.693,-0.693 1.838,-1.067 3.279,-1.067 0.682,0 1.254,0.033 1.738,0.088 l 0,7.294 z m -0.958,-6.557 c -0.241,-0.044 -0.594,-0.055 -0.968,-0.055 -2.047,0 -3.158,1.144 -3.158,3.146 -0.01,1.749 0.979,2.86 3.004,2.86 0.495,0 0.869,-0.044 1.122,-0.1 l 0,-5.851 z"
     id="path20"
     inkscape:connector-curvature="0"
     style="fill:#ed1c24" /><path
     d="m 123.443,57.154 c 0.056,1.034 0.121,2.277 0.11,3.202 l 0.033,0 c 0.252,-0.869 0.561,-1.805 0.935,-2.816 l 1.31,-3.598 0.726,0 1.199,3.531 c 0.353,1.045 0.649,2.002 0.858,2.883 l 0.021,0 c 0.022,-0.925 0.077,-2.168 0.144,-3.278 l 0.198,-3.18 0.912,0 -0.517,7.415 -1.222,0 -1.265,-3.587 c -0.308,-0.913 -0.562,-1.728 -0.748,-2.497 l -0.033,0 c -0.187,0.748 -0.45,1.562 -0.78,2.497 l -1.32,3.587 -1.222,0 -0.462,-7.415 0.936,0 0.187,3.256 z"
     id="path22"
     inkscape:connector-curvature="0"
     style="fill:#ed1c24" /><path
     d="m 120.001,61.313 0,-7.415 0.957,0 0,7.415 -0.957,0 z"
     id="path24"
     inkscape:connector-curvature="0"
     style="fill:#ed1c24" /><path
     d="m 239.673,331.019 0,-23.529 -5.528,0 c -1.565,0 -2.834,-1.269 -2.834,-2.835 l 0,-9.213 8.504,0 c 9.541,0 17.215,-1.507 21.896,-3.307 4.579,-1.762 11.74,-3.07 20.624,-3.07 0.979,0 1.771,-0.793 1.771,-1.771 l 0,0 c 0,-0.979 -0.793,-1.771 -1.771,-1.771 -9.541,0 -17.217,1.506 -21.896,3.307 -4.58,1.761 -11.741,3.07 -20.624,3.07 l -8.504,0 c -2.936,0 -5.315,-2.379 -5.315,-5.314 0,-2.935 2.38,-5.315 5.315,-5.315 l 0,3.26 8.504,0 0,-3.968 c 0,-1.566 1.269,-2.835 2.834,-2.835 l 1.418,0 c 0.362,10e-4 0.725,0.139 1.002,0.415 0.553,0.555 1.45,0.555 2.004,0 0.553,-0.553 1.451,-0.553 2.004,0.001 0.554,0.554 1.451,0.554 2.004,-0.001 0.554,-0.553 1.451,-0.553 2.005,0.001 0.554,0.554 1.451,0.554 2.004,-0.001 0.554,-0.553 1.451,-0.553 2.005,0.001 0.553,0.554 1.449,0.554 2.004,-0.001 0.275,-0.275 0.639,-0.414 1.002,-0.414 l 208.027,0 c 0.363,0 0.727,0.139 1.002,0.414 0.555,0.555 1.451,0.555 2.004,0.001 0.554,-0.554 1.451,-0.554 2.005,-0.001 0.554,0.555 1.45,0.555 2.004,0.001 0.554,-0.554 1.451,-0.554 2.005,-0.001 0.553,0.555 1.45,0.555 2.004,0.001 0.553,-0.554 1.451,-0.554 2.004,-0.001 0.554,0.555 1.451,0.555 2.004,0 0.277,-0.276 0.64,-0.414 1.002,-0.415 l 1.418,0 c 1.565,0 2.834,1.269 2.834,2.835 l 0,3.968 8.929,0 0,-3.26 c 2.936,0 5.314,2.38 5.314,5.315 0,2.935 -2.379,5.314 -5.314,5.314 l -8.929,0 c -8.883,0 -16.044,-1.31 -20.624,-3.07 -4.68,-1.801 -12.354,-3.307 -21.895,-3.307 -0.979,0 -1.771,0.793 -1.771,1.771 l 0,0 c 0,0.979 0.793,1.771 1.771,1.771 8.883,0 16.043,1.309 20.623,3.07 4.68,1.8 12.354,3.307 21.896,3.307 l 8.929,0 0,9.213 c 0,1.566 -1.269,2.835 -2.834,2.835 l -5.953,0 0,29.196 5.953,0 c 1.565,0 2.834,1.269 2.834,2.834 l 0,12.756 c 2.936,0 5.314,2.38 5.314,5.315 0,2.935 -2.379,5.315 -5.314,5.315 l 0,-3.26 -8.929,0 0,3.968 c 0,1.565 -1.269,2.835 -2.834,2.835 l -242.93,0 c -1.565,0 -2.834,-1.27 -2.834,-2.835 l 0,-3.968 -8.504,0 0,3.26 c -2.936,0 -5.315,-2.38 -5.315,-5.315 0,-2.935 2.38,-5.315 5.315,-5.315 l 0,-12.754 c 0,-1.566 1.269,-2.836 2.834,-2.836 l 109.134,0 c 1.566,0 2.835,-1.27 2.835,-2.835 0,-1.565 -1.269,-2.835 -2.835,-2.835 l -103.607,0.003 z"
     id="path26"
     inkscape:connector-curvature="0"
     style="fill:none;stroke:#000000" /><rect
     x="297.216"
     y="350.85901"
     width="34.015999"
     height="8.7880001"
     id="rect28"
     style="fill:none;stroke:#000000" /><rect
     x="397.845"
     y="350.85901"
     width="34.015999"
     height="8.7880001"
     id="rect30"
     style="fill:none;stroke:#000000" /><rect
     x="297.216"
     y="284.52899"
     width="34.015999"
     height="8.7880001"
     id="rect32"
     style="fill:none;stroke:#000000" /><rect
     x="397.845"
     y="284.52899"
     width="34.015999"
     height="8.7880001"
     id="rect34"
     style="fill:none;stroke:#000000" /><path
     d="m 386.237,301.343 c 0.353,-0.176 1.057,-0.363 1.959,-0.363 2.09,0 3.664,1.331 3.664,3.763 0,2.321 -1.574,3.895 -3.873,3.895 -0.924,0 -1.508,-0.198 -1.76,-0.33 l 0.23,-0.781 c 0.363,0.177 0.881,0.308 1.496,0.308 1.738,0 2.894,-1.111 2.894,-3.059 0,-1.814 -1.045,-2.98 -2.85,-2.98 -0.583,0 -1.177,0.121 -1.562,0.308 l -0.198,-0.761 z"
     id="path36"
     inkscape:connector-curvature="0"
     style="fill:#ed1c24" /><path
     d="m 380.554,303.808 c 0,-1.97 1.363,-2.828 2.651,-2.828 1.44,0 2.552,1.057 2.552,2.739 0,1.782 -1.166,2.827 -2.641,2.827 -1.529,0 -2.562,-1.111 -2.562,-2.738 z m 4.224,-0.056 c 0,-1.166 -0.672,-2.046 -1.617,-2.046 -0.924,0 -1.617,0.869 -1.617,2.068 0,0.902 0.451,2.046 1.595,2.046 1.144,0 1.639,-1.055 1.639,-2.068 z"
     id="path38"
     inkscape:connector-curvature="0"
     style="fill:#ed1c24" /><path
     d="m 379.462,304.984 c 0,0.55 0.011,1.001 0.043,1.44 l -0.847,0 -0.044,-0.857 -0.033,0 c -0.297,0.506 -0.792,0.979 -1.672,0.979 -0.727,0 -1.276,-0.439 -1.508,-1.066 l -0.021,0 c -0.165,0.297 -0.374,0.527 -0.594,0.693 -0.319,0.242 -0.672,0.373 -1.178,0.373 -0.703,0 -1.749,-0.461 -1.749,-2.311 l 0,-3.135 0.946,0 0,3.015 c 0,1.022 0.374,1.64 1.155,1.64 0.55,0 0.979,-0.408 1.144,-0.881 0.045,-0.132 0.078,-0.309 0.078,-0.484 l 0,-3.289 0.945,0 0,3.19 c 0,0.847 0.374,1.464 1.111,1.464 0.605,0 1.045,-0.484 1.199,-0.969 0.055,-0.143 0.077,-0.309 0.077,-0.473 l 0,-3.213 0.946,0 0,3.884 z"
     id="path40"
     inkscape:connector-curvature="0"
     style="fill:#ed1c24" /><path
     d="m 370.468,304.687 c 0,0.683 0.021,1.232 0.043,1.738 l -0.869,0 -0.043,-0.912 -0.022,0 c -0.396,0.648 -1.022,1.033 -1.892,1.033 -1.287,0 -2.256,-1.089 -2.256,-2.706 0,-1.914 1.166,-2.86 2.42,-2.86 0.705,0 1.32,0.309 1.64,0.836 l 0.022,0 0,-2.893 0.957,0 0,5.764 z m -0.957,-1.418 c 0,-0.144 -0.022,-0.275 -0.045,-0.396 -0.176,-0.672 -0.759,-1.133 -1.451,-1.133 -1.023,0 -1.617,0.836 -1.617,2.057 0,1.067 0.561,1.98 1.584,1.98 0.66,0 1.275,-0.473 1.463,-1.199 0.033,-0.121 0.066,-0.264 0.066,-0.396 l 0,-0.913 z"
     id="path42"
     inkscape:connector-curvature="0"
     style="fill:#ed1c24" /><path
     d="m 359.435,303.808 c 0,-1.97 1.363,-2.828 2.65,-2.828 1.441,0 2.553,1.057 2.553,2.739 0,1.782 -1.166,2.827 -2.641,2.827 -1.529,0 -2.562,-1.111 -2.562,-2.738 z m 4.224,-0.056 c 0,-1.166 -0.672,-2.046 -1.618,-2.046 -0.924,0 -1.617,0.869 -1.617,2.068 0,0.902 0.451,2.046 1.595,2.046 1.144,0 1.64,-1.055 1.64,-2.068 z"
     id="path44"
     inkscape:connector-curvature="0"
     style="fill:#ed1c24" /><path
     d="m 358.542,302.091 c -0.285,-0.188 -0.792,-0.385 -1.275,-0.385 -0.705,0 -1.035,0.352 -1.035,0.791 0,0.463 0.275,0.716 0.99,0.98 0.957,0.34 1.408,0.869 1.408,1.507 0,0.858 -0.693,1.562 -1.837,1.562 -0.539,0 -1.013,-0.153 -1.31,-0.33 l 0.242,-0.703 c 0.209,0.131 0.594,0.308 1.09,0.308 0.572,0 0.891,-0.33 0.891,-0.726 0,-0.44 -0.318,-0.639 -1.012,-0.902 -0.924,-0.353 -1.397,-0.814 -1.397,-1.606 0,-0.935 0.726,-1.606 1.991,-1.606 0.583,0 1.122,0.154 1.496,0.374 l -0.242,0.736 z"
     id="path46"
     inkscape:connector-curvature="0"
     style="fill:#ed1c24" /><path
     d="m 353.188,307.921 c -0.011,-0.33 0.23,-0.594 0.616,-0.594 0.341,0 0.583,0.264 0.583,0.594 0,0.342 -0.253,0.605 -0.605,0.605 -0.363,0 -0.594,-0.263 -0.594,-0.605 z m 1.079,-6.82 0,5.324 -0.969,0 0,-5.324 0.969,0 z"
     id="path48"
     inkscape:connector-curvature="0"
     style="fill:#ed1c24" /><path
     d="m 350.685,307.702 0,-1.277 -1.386,0 0,-0.736 1.386,0 0,-2.871 c 0,-0.66 -0.187,-1.035 -0.726,-1.035 -0.265,0 -0.418,0.022 -0.562,0.066 l -0.043,-0.727 c 0.187,-0.076 0.483,-0.143 0.857,-0.143 0.451,0 0.814,0.154 1.045,0.418 0.275,0.286 0.375,0.76 0.375,1.387 l 0,2.904 0.824,0 0,0.736 -0.824,0 0,0.979 -0.946,0.299 z"
     id="path50"
     inkscape:connector-curvature="0"
     style="fill:#ed1c24" /><path
     d="m 347.916,303.587 c -0.022,-1.309 -0.858,-1.848 -1.826,-1.848 -0.692,0 -1.111,0.121 -1.474,0.274 l -0.166,-0.692 c 0.342,-0.154 0.924,-0.342 1.771,-0.342 1.64,0 2.619,1.09 2.619,2.695 0,1.606 -0.947,2.871 -2.498,2.871 -1.738,0 -2.2,-1.529 -2.2,-2.508 0,-0.198 0.022,-0.352 0.033,-0.451 l 3.741,0 z m -2.839,0.693 c -0.01,0.615 0.254,1.573 1.343,1.573 0.979,0 1.408,-0.902 1.485,-1.573 l -2.828,0 z"
     id="path52"
     inkscape:connector-curvature="0"
     style="fill:#ed1c24" /><path
     d="m 389.792,290.101 2.42,7.415 -1.034,0 -1.155,-3.652 c -0.318,-1.001 -0.594,-1.903 -0.792,-2.772 l -0.022,0 c -0.209,0.857 -0.517,1.793 -0.847,2.762 l -1.255,3.663 -1.022,0 2.651,-7.415 1.056,0 z"
     id="path54"
     inkscape:connector-curvature="0"
     style="fill:#ed1c24" /><path
     d="m 384.265,296.921 c -0.01,-0.33 0.231,-0.594 0.617,-0.594 0.34,0 0.582,0.264 0.582,0.594 0,0.342 -0.252,0.605 -0.604,0.605 -0.364,0 -0.595,-0.263 -0.595,-0.605 z m 1.078,-6.82 0,5.324 -0.968,0 0,-5.324 0.968,0 z"
     id="path56"
     inkscape:connector-curvature="0"
     style="fill:#ed1c24" /><path
     d="m 378.308,297.911 0,-6.436 c 0,-0.473 -0.012,-1.012 -0.045,-1.375 l 0.869,0 0.045,0.924 0.021,0 c 0.297,-0.594 0.946,-1.045 1.815,-1.045 1.287,0 2.277,1.09 2.277,2.707 0.011,1.771 -1.089,2.859 -2.388,2.859 -0.814,0 -1.363,-0.385 -1.605,-0.813 l -0.022,0 0,3.179 -0.967,0 z m 0.967,-4.653 c 0,0.121 0.011,0.286 0.044,0.407 0.143,0.616 0.671,1.122 1.397,1.122 1.001,0 1.595,-0.88 1.595,-2.058 0,-1.078 -0.527,-1.969 -1.572,-1.969 -0.65,0 -1.244,0.43 -1.42,1.155 -0.033,0.132 -0.044,0.264 -0.044,0.418 l 0,0.925 z"
     id="path58"
     inkscape:connector-curvature="0"
     style="fill:#ed1c24" /><path
     d="m 376.291,292.587 c -0.022,-1.309 -0.858,-1.848 -1.826,-1.848 -0.692,0 -1.111,0.121 -1.474,0.274 l -0.166,-0.692 c 0.342,-0.154 0.924,-0.342 1.771,-0.342 1.64,0 2.619,1.09 2.619,2.695 0,1.606 -0.947,2.871 -2.498,2.871 -1.738,0 -2.2,-1.529 -2.2,-2.508 0,-0.198 0.022,-0.352 0.033,-0.451 l 3.741,0 z m -2.839,0.693 c -0.01,0.615 0.254,1.573 1.343,1.573 0.979,0 1.408,-0.902 1.485,-1.573 l -2.828,0 z"
     id="path60"
     inkscape:connector-curvature="0"
     style="fill:#ed1c24" /><path
     d="m 366.558,292.808 c 0,-1.97 1.363,-2.828 2.65,-2.828 1.441,0 2.553,1.057 2.553,2.739 0,1.782 -1.166,2.827 -2.641,2.827 -1.529,0 -2.562,-1.111 -2.562,-2.738 z m 4.224,-0.056 c 0,-1.166 -0.672,-2.046 -1.618,-2.046 -0.924,0 -1.617,0.869 -1.617,2.068 0,0.902 0.451,2.046 1.595,2.046 1.144,0 1.64,-1.055 1.64,-2.068 z"
     id="path62"
     inkscape:connector-curvature="0"
     style="fill:#ed1c24" /><path
     d="m 356.854,293.886 c 0,-2.553 1.552,-3.906 3.443,-3.906 1.959,0 3.334,1.518 3.334,3.763 0,2.354 -1.463,3.895 -3.443,3.895 -2.024,-10e-4 -3.334,-1.553 -3.334,-3.752 z m 5.754,-0.121 c 0,-1.585 -0.857,-3.004 -2.365,-3.004 -1.518,0 -2.376,1.396 -2.376,3.08 0,1.475 0.771,3.015 2.365,3.015 1.584,-10e-4 2.376,-1.463 2.376,-3.091 z"
     id="path64"
     inkscape:connector-curvature="0"
     style="fill:#ed1c24" /><path
     d="m 351.255,291.553 c 0,-0.55 -0.011,-1.034 -0.044,-1.452 l 0.858,0 0.055,0.869 0.021,0 c 0.254,-0.43 0.814,-0.99 1.761,-0.99 0.836,0 1.837,0.462 1.837,2.332 l 0,3.113 -0.968,0 0,-2.947 c 0,-1.013 -0.308,-1.695 -1.188,-1.695 -0.648,0 -1.1,0.451 -1.275,0.881 -0.056,0.143 -0.088,0.318 -0.088,0.494 l 0,3.268 -0.969,0 0,-3.873 z"
     id="path66"
     inkscape:connector-curvature="0"
     style="fill:#ed1c24" /><path
     d="m 348.632,296.702 0,-1.277 -1.387,0 0,-0.736 1.387,0 0,-2.871 c 0,-0.66 -0.188,-1.035 -0.727,-1.035 -0.264,0 -0.418,0.022 -0.561,0.066 l -0.044,-0.727 c 0.187,-0.076 0.483,-0.143 0.858,-0.143 0.451,0 0.813,0.154 1.045,0.418 0.275,0.286 0.374,0.76 0.374,1.387 l 0,2.904 0.825,0 0,0.736 -0.825,0 0,0.979 -0.945,0.299 z"
     id="path68"
     inkscape:connector-curvature="0"
     style="fill:#ed1c24" /><path
     d="m 471.496,328.046 0.771,-2.332 0.99,0 -2.52,7.415 -1.156,0 -2.529,-7.415 1.022,0 0.792,2.332 2.63,0 z m -2.432,0.748 0.726,2.135 c 0.166,0.484 0.275,0.924 0.386,1.354 l 0.022,0 c 0.109,-0.44 0.23,-0.892 0.373,-1.343 l 0.727,-2.146 -2.234,0 z"
     id="path70"
     inkscape:connector-curvature="0"
     style="fill:#ed1c24" /><path
     d="m 461.847,327.166 c 0,-0.55 -0.012,-1.034 -0.045,-1.452 l 0.858,0 0.056,0.869 0.021,0 c 0.253,-0.43 0.814,-0.99 1.76,-0.99 0.836,0 1.838,0.462 1.838,2.332 l 0,3.113 -0.969,0 0,-2.947 c 0,-1.013 -0.308,-1.695 -1.188,-1.695 -0.649,0 -1.1,0.451 -1.276,0.881 -0.056,0.143 -0.088,0.318 -0.088,0.494 l 0,3.268 -0.968,0 0,-3.873 z"
     id="path72"
     inkscape:connector-curvature="0"
     style="fill:#ed1c24" /><path
     d="m 455.766,333.524 0,-6.436 c 0,-0.473 -0.011,-1.012 -0.044,-1.375 l 0.869,0 0.044,0.924 0.022,0 c 0.297,-0.594 0.945,-1.045 1.814,-1.045 1.287,0 2.277,1.09 2.277,2.707 0.012,1.771 -1.089,2.859 -2.387,2.859 -0.814,0 -1.364,-0.385 -1.606,-0.813 l -0.022,0 0,3.179 -0.967,0 z m 0.967,-4.653 c 0,0.121 0.012,0.286 0.045,0.407 0.143,0.616 0.67,1.122 1.396,1.122 1.002,0 1.596,-0.88 1.596,-2.058 0,-1.078 -0.528,-1.969 -1.573,-1.969 -0.649,0 -1.243,0.43 -1.419,1.155 -0.033,0.132 -0.045,0.264 -0.045,0.418 l 0,0.925 z"
     id="path74"
     inkscape:connector-curvature="0"
     style="fill:#ed1c24" /><path
     d="m 453.263,332.534 c -0.012,-0.33 0.23,-0.594 0.615,-0.594 0.342,0 0.584,0.264 0.584,0.594 0,0.342 -0.254,0.605 -0.605,0.605 -0.364,10e-4 -0.594,-0.263 -0.594,-0.605 z m 1.078,-6.82 0,5.324 -0.969,0 0,-5.324 0.969,0 z"
     id="path76"
     inkscape:connector-curvature="0"
     style="fill:#ed1c24" /><path
     d="m 447.089,328.421 c 0,-1.97 1.363,-2.828 2.651,-2.828 1.44,0 2.552,1.057 2.552,2.739 0,1.782 -1.166,2.827 -2.641,2.827 -1.529,0 -2.562,-1.111 -2.562,-2.738 z m 4.224,-0.056 c 0,-1.166 -0.672,-2.046 -1.617,-2.046 -0.924,0 -1.617,0.869 -1.617,2.068 0,0.902 0.451,2.046 1.595,2.046 1.144,0.001 1.639,-1.055 1.639,-2.068 z"
     id="path78"
     inkscape:connector-curvature="0"
     style="fill:#ed1c24" /><path
     d="m 456.566,318.499 c 0,-2.553 1.552,-3.906 3.443,-3.906 1.958,0 3.333,1.518 3.333,3.763 0,2.354 -1.463,3.895 -3.443,3.895 -2.023,-10e-4 -3.333,-1.553 -3.333,-3.752 z m 5.753,-0.121 c 0,-1.585 -0.857,-3.004 -2.365,-3.004 -1.518,0 -2.376,1.396 -2.376,3.08 0,1.475 0.771,3.015 2.366,3.015 1.584,0 2.375,-1.463 2.375,-3.091 z"
     id="path80"
     inkscape:connector-curvature="0"
     style="fill:#ed1c24" /><path
     d="m 450.966,316.166 c 0,-0.55 -0.01,-1.034 -0.043,-1.452 l 0.857,0 0.055,0.869 0.022,0 c 0.253,-0.43 0.813,-0.99 1.761,-0.99 0.836,0 1.837,0.462 1.837,2.332 l 0,3.113 -0.968,0 0,-2.947 c 0,-1.013 -0.309,-1.695 -1.188,-1.695 -0.649,0 -1.101,0.451 -1.276,0.881 -0.055,0.143 -0.088,0.318 -0.088,0.494 l 0,3.268 -0.969,0 0,-3.873 z"
     id="path82"
     inkscape:connector-curvature="0"
     style="fill:#ed1c24" /><path
     d="m 448.343,321.315 0,-1.277 -1.386,0 0,-0.736 1.386,0 0,-2.871 c 0,-0.66 -0.187,-1.035 -0.726,-1.035 -0.265,0 -0.418,0.022 -0.562,0.066 l -0.043,-0.727 c 0.187,-0.076 0.483,-0.143 0.857,-0.143 0.451,0 0.814,0.154 1.045,0.418 0.275,0.286 0.375,0.76 0.375,1.387 l 0,2.904 0.824,0 0,0.736 -0.824,0 0,0.979 -0.946,0.299 z"
     id="path84"
     inkscape:connector-curvature="0"
     style="fill:#ed1c24" /><circle
     stroke-miterlimit="2.6131"
     cx="430.72699"
     cy="324.004"
     r="9.9209995"
     id="circle86"
     style="fill:none;stroke:#000000;stroke-miterlimit:2.61310005" /><circle
     stroke-miterlimit="2.6131"
     cx="377.37299"
     cy="329.10699"
     r="14.882"
     id="circle88"
     style="fill:none;stroke:#000000;stroke-miterlimit:2.61310005" /><path
     d="m 505.065,260.719 c 0,1.565 -1.27,2.835 -2.834,2.835 l -54.568,0 0,5.669 c 0,1.565 -1.27,2.835 -2.834,2.835 l -28.346,0 c -1.566,0 -2.836,-1.27 -2.836,-2.835 l 0,-5.669 -66.613,0 0,5.669 c 0,1.565 -1.27,2.835 -2.834,2.835 l -28.348,0 c -1.564,0 -2.834,-1.27 -2.834,-2.835 l 0,-5.669 -54.566,0 c -1.566,0 -2.836,-1.27 -2.836,-2.835 l 0,-154.489 c 0,-1.564 1.27,-2.834 2.836,-2.834 l 54.566,0 0,-5.67 c 0,-1.564 1.27,-2.834 2.834,-2.834 l 28.348,0 c 1.564,0 2.834,1.27 2.834,2.834 l 0,5.67 66.613,0 0,-5.67 c 0,-1.564 1.27,-2.834 2.836,-2.834 l 28.346,0 c 1.564,0 2.834,1.27 2.834,2.834 l 0,5.67 54.568,0 c 1.564,0 2.834,1.27 2.834,2.834 l 0,154.489 z"
     id="path90"
     inkscape:connector-curvature="0"
     style="fill:none;stroke:#000000;stroke-width:0.99;stroke-miterlimit:4;stroke-dasharray:none" /><path
     d="m 249.947,260.721 c 0,1.564 -1.27,2.832 -2.834,2.832 l -54.568,0 0,5.67 c 0,1.564 -1.27,2.834 -2.834,2.834 l -28.346,0 c -1.565,0 -2.835,-1.27 -2.835,-2.834 l 0,-5.67 -66.612,0 0,5.67 c 0,1.564 -1.27,2.834 -2.834,2.834 l -28.348,0 c -1.564,0 -2.834,-1.27 -2.834,-2.834 l 0,-5.67 -54.566,0 c -1.566,0 -2.836,-1.268 -2.836,-2.832 l 0,-154.49 c 0,-1.564 1.27,-2.834 2.836,-2.834 l 54.566,0 0,-5.67 c 0,-1.564 1.27,-2.834 2.834,-2.834 l 28.348,0 c 1.564,0 2.834,1.27 2.834,2.834 l 0,5.67 66.612,0 0,-5.67 c 0,-1.564 1.27,-2.834 2.835,-2.834 l 28.346,0 c 1.564,0 2.834,1.27 2.834,2.834 l 0,5.67 54.568,0 c 1.564,0 2.834,1.27 2.834,2.834 l 0,154.49 z"
     id="path92"
     inkscape:connector-curvature="0"
     style="fill:none;stroke:#000000" /><rect
     x="291.64401"
     y="7.586"
     width="9.0139999"
     height="22.677999"
     id="rect94"
     style="fill:none;stroke:#000000" /><rect
     x="291.64401"
     y="59.459"
     width="9.0139999"
     height="22.677999"
     id="rect96"
     style="fill:none;stroke:#000000" /><rect
     x="460.02301"
     y="7.586"
     width="9.0150003"
     height="22.677999"
     id="rect98"
     style="fill:none;stroke:#000000" /><rect
     x="460.02301"
     y="59.459"
     width="9.0150003"
     height="22.677999"
     id="rect100"
     style="fill:none;stroke:#000000" /><path
     d="m 284.812,9.004 c 0,-4.697 3.809,-8.504 8.504,-8.504 l 174.049,0 c 4.695,0 8.504,3.807 8.504,8.504 l 0,73.133 c 0,7.828 -6.346,14.173 -14.174,14.173 -5.243,0 -9.81,-2.854 -12.262,-7.086 l -138.185,0 c -2.451,4.232 -7.018,7.086 -12.262,7.086 -7.828,0 -14.174,-6.345 -14.174,-14.173 l 0,-73.133 z"
     id="path102"
     inkscape:connector-curvature="0"
     style="fill:none;stroke:#000000" /><path
     d="m 330.734,64.705 0.709,-0.709 20.268,0 c 1.566,0 2.834,-1.27 2.834,-2.835 l 0,-38.267 c 0,-1.565 -1.268,-2.835 -2.834,-2.835 l -43.938,0 c -1.564,0 -2.834,1.27 -2.834,2.835 l 0,38.268 c 0,1.565 1.27,2.835 2.834,2.835 l 20.27,0 0.709,0.709"
     id="path104"
     inkscape:connector-curvature="0"
     style="fill:none;stroke:#000000" /><path
     stroke-miterlimit="2.6131"
     d="m 367.303,20.059 c 0,-1.565 1.27,-2.835 2.835,-2.835 l 38.267,0 c 1.566,0 2.835,1.27 2.835,2.835 l 0,41.103 c 0,1.565 -1.269,2.835 -2.835,2.835 l -38.267,0 c -1.565,0 -2.835,-1.27 -2.835,-2.835 l 0,-41.103 z"
     id="path106"
     inkscape:connector-curvature="0"
     style="fill:none;stroke:#000000;stroke-miterlimit:2.61310005" /><path
     d="m 311.231,77.095 0,-7.415 1.045,0 2.377,3.751 c 0.55,0.869 0.979,1.65 1.331,2.41 l 0.021,-0.012 c -0.088,-0.99 -0.109,-1.892 -0.109,-3.047 l 0,-3.102 0.902,0 0,7.415 -0.969,0 -2.354,-3.763 c -0.517,-0.825 -1.012,-1.672 -1.386,-2.476 l -0.033,0.012 c 0.055,0.935 0.077,1.826 0.077,3.059 l 0,3.168 -0.902,0 z"
     id="path108"
     inkscape:connector-curvature="0"
     style="fill:#ed1c24" /><path
     d="m 318.89,74.608 c 0.022,1.309 0.858,1.848 1.826,1.848 0.693,0 1.111,-0.121 1.475,-0.274 l 0.165,0.692 c -0.341,0.154 -0.924,0.342 -1.771,0.342 -1.639,0 -2.618,-1.09 -2.618,-2.695 0,-1.606 0.946,-2.871 2.497,-2.871 1.738,0 2.201,1.529 2.201,2.508 0,0.198 -0.022,0.352 -0.033,0.451 l -3.742,0 z m 2.839,-0.693 c 0.011,-0.615 -0.253,-1.573 -1.342,-1.573 -0.979,0 -1.408,0.902 -1.485,1.573 l 2.827,0 z"
     id="path110"
     inkscape:connector-curvature="0"
     style="fill:#ed1c24" /><path
     d="m 324.918,70.493 0,1.277 1.386,0 0,0.736 -1.386,0 0,2.871 c 0,0.66 0.187,1.035 0.726,1.035 0.264,0 0.418,-0.022 0.562,-0.066 l 0.044,0.727 c -0.188,0.076 -0.484,0.143 -0.858,0.143 -0.451,0 -0.814,-0.154 -1.045,-0.418 -0.275,-0.286 -0.374,-0.76 -0.374,-1.387 l 0,-2.904 -0.825,0 0,-0.736 0.825,0 0,-0.979 0.945,-0.299 z"
     id="path112"
     inkscape:connector-curvature="0"
     style="fill:#ed1c24" /><path
     d="m 327.879,71.771 0.704,2.706 c 0.153,0.594 0.297,1.144 0.396,1.694 l 0.033,0 c 0.121,-0.539 0.297,-1.111 0.473,-1.694 l 0.869,-2.706 0.814,0 0.825,2.662 c 0.198,0.638 0.353,1.199 0.473,1.738 l 0.033,0 c 0.088,-0.539 0.231,-1.101 0.407,-1.728 l 0.759,-2.673 0.958,0 -1.717,5.324 -0.88,0 -0.814,-2.541 c -0.187,-0.594 -0.341,-1.123 -0.473,-1.75 l -0.022,0 c -0.132,0.639 -0.297,1.188 -0.483,1.761 l -0.858,2.53 -0.88,0 -1.606,-5.324 0.989,0 z"
     id="path114"
     inkscape:connector-curvature="0"
     style="fill:#ed1c24" /><path
     d="m 340.185,74.388 c 0,1.97 -1.364,2.828 -2.651,2.828 -1.441,0 -2.553,-1.057 -2.553,-2.739 0,-1.782 1.166,-2.827 2.641,-2.827 1.528,-0.001 2.563,1.111 2.563,2.738 z m -4.225,0.055 c 0,1.166 0.671,2.046 1.617,2.046 0.924,0 1.617,-0.869 1.617,-2.068 0,-0.902 -0.451,-2.046 -1.596,-2.046 -1.143,0 -1.638,1.056 -1.638,2.068 z"
     id="path116"
     inkscape:connector-curvature="0"
     style="fill:#ed1c24" /><path
     d="m 341.275,73.431 c 0,-0.627 -0.011,-1.166 -0.044,-1.66 l 0.848,0 0.033,1.045 0.044,0 c 0.241,-0.715 0.825,-1.166 1.474,-1.166 0.11,0 0.188,0.011 0.275,0.033 l 0,0.912 c -0.1,-0.021 -0.198,-0.033 -0.33,-0.033 -0.683,0 -1.166,0.518 -1.298,1.244 -0.022,0.132 -0.044,0.285 -0.044,0.451 l 0,2.838 -0.958,0 0,-3.664 z"
     id="path118"
     inkscape:connector-curvature="0"
     style="fill:#ed1c24" /><path
     d="m 345.692,74.212 0.021,0 c 0.132,-0.187 0.319,-0.418 0.473,-0.604 l 1.562,-1.837 1.166,0 -2.057,2.189 2.343,3.135 -1.177,0 -1.838,-2.553 -0.494,0.551 0,2.002 -0.958,0 0,-7.811 0.958,0 0,4.928 z"
     id="path120"
     inkscape:connector-curvature="0"
     style="fill:#ed1c24" /><path
     d="m 382.072,69.68 0,4.39 c 0,1.661 0.737,2.365 1.728,2.365 1.101,0 1.805,-0.727 1.805,-2.365 l 0,-4.39 0.968,0 0,4.323 c 0,2.277 -1.199,3.213 -2.806,3.213 -1.518,0 -2.662,-0.869 -2.662,-3.168 l 0,-4.368 0.967,0 z"
     id="path122"
     inkscape:connector-curvature="0"
     style="fill:#ed1c24" /><path
     d="m 387.823,75.929 c 0.429,0.264 1.057,0.484 1.716,0.484 0.979,0 1.552,-0.518 1.552,-1.266 0,-0.693 -0.396,-1.09 -1.397,-1.475 -1.21,-0.429 -1.958,-1.056 -1.958,-2.102 0,-1.154 0.957,-2.013 2.398,-2.013 0.759,0 1.309,0.177 1.639,0.363 l -0.264,0.78 c -0.242,-0.131 -0.737,-0.352 -1.408,-0.352 -1.012,0 -1.397,0.605 -1.397,1.111 0,0.693 0.451,1.034 1.475,1.43 1.254,0.484 1.893,1.09 1.893,2.179 0,1.145 -0.848,2.146 -2.597,2.146 -0.715,0 -1.496,-0.221 -1.893,-0.484 l 0.241,-0.801 z"
     id="path124"
     inkscape:connector-curvature="0"
     style="fill:#ed1c24" /><path
     d="m 393.136,69.778 c 0.418,-0.088 1.078,-0.154 1.749,-0.154 0.958,0 1.573,0.166 2.036,0.539 0.385,0.287 0.615,0.727 0.615,1.311 0,0.715 -0.473,1.342 -1.254,1.627 l 0,0.022 c 0.704,0.177 1.529,0.759 1.529,1.859 0,0.638 -0.253,1.122 -0.627,1.485 -0.518,0.473 -1.354,0.693 -2.563,0.693 -0.66,0 -1.166,-0.045 -1.485,-0.088 l 0,-7.294 z m 0.957,6.59 c 0.188,0.033 0.462,0.045 0.804,0.045 0.99,0 1.903,-0.363 1.903,-1.441 0,-1.012 -0.869,-1.431 -1.915,-1.431 l -0.792,0 0,2.827 z m 0,-3.553 0.869,0 c 1.013,0 1.606,-0.528 1.606,-1.244 0,-0.869 -0.66,-1.209 -1.628,-1.209 -0.44,0 -0.693,0.032 -0.848,0.065 l 0,2.388 z"
     id="path126"
     inkscape:connector-curvature="0"
     style="fill:#ed1c24" /><path
     d="m 328.752,59.744 -0.709,0.708 -9.639,0 c -1.566,0 -2.836,-1.269 -2.836,-2.834 l 0,-1.805 c 0,-0.843 0.377,-1.643 1.025,-2.182 1.133,-0.939 1.811,-2.364 1.811,-3.809 0,-2.735 -2.227,-4.961 -4.961,-4.961 l -0.709,0 c -1.564,0 -2.834,-1.27 -2.834,-2.834 l 0,-15.59 c 0,-1.564 1.27,-2.834 2.834,-2.834 l 34.016,0 c 1.566,0 2.836,1.27 2.836,2.834 l 0,15.592 c 0,1.564 -1.27,2.834 -2.836,2.834 l -0.709,0 c -2.734,0 -4.959,2.226 -4.959,4.961 0,1.444 0.676,2.869 1.809,3.809 0.65,0.539 1.025,1.339 1.025,2.182 l 0,1.805 c 0,1.565 -1.27,2.834 -2.834,2.834 l -9.639,0 -0.709,-0.708"
     id="path128"
     inkscape:connector-curvature="0"
     style="fill:none;stroke:#000000" /><rect
     x="204.90601"
     y="336.68701"
     width="9.0139999"
     height="22.677999"
     id="rect130"
     style="fill:none;stroke:#000000" /><rect
     x="204.90601"
     y="284.81299"
     width="9.0139999"
     height="22.677999"
     id="rect132"
     style="fill:none;stroke:#000000" /><rect
     x="36.526001"
     y="336.68701"
     width="9.0139999"
     height="22.677999"
     id="rect134"
     style="fill:none;stroke:#000000" /><rect
     x="36.526001"
     y="284.81299"
     width="9.0139999"
     height="22.677999"
     id="rect136"
     style="fill:none;stroke:#000000" /><path
     d="m 220.751,357.946 c 0,4.697 -3.809,8.504 -8.504,8.504 l -174.048,0 c -4.695,0 -8.504,-3.807 -8.504,-8.504 l 0,-73.133 c 0,-7.828 6.346,-14.174 14.174,-14.174 5.242,0 9.809,2.854 12.262,7.086 l 138.185,0 c 2.453,-4.232 7.02,-7.086 12.262,-7.086 7.828,0 14.174,6.346 14.174,14.174 l 0,73.133 z"
     id="path138"
     inkscape:connector-curvature="0"
     style="fill:none;stroke:#000000" /><path
     d="m 169.444,300.403 c 0,1.564 -1.27,2.834 -2.834,2.834 l -70.868,0 c -1.564,0 -2.834,-1.27 -2.834,-2.834 l 0,-4.252 c 0,-1.564 1.27,-2.834 2.834,-2.834 l 70.868,0 c 1.564,0 2.834,1.27 2.834,2.834 l 0,4.252 z"
     id="path140"
     inkscape:connector-curvature="0"
     style="fill:none;stroke:#000000" /><path
     d="m 80.776,335.801 c -0.462,0.077 -1.067,0.144 -1.838,0.144 -0.945,0 -1.639,-0.221 -2.079,-0.617 -0.407,-0.352 -0.648,-0.891 -0.648,-1.551 0,-0.671 0.197,-1.199 0.571,-1.584 0.507,-0.539 1.332,-0.814 2.267,-0.814 0.286,0 0.55,0.012 0.771,0.066 l 0,-2.971 0.957,0 0,7.327 z m -0.957,-3.575 c -0.209,-0.056 -0.474,-0.078 -0.792,-0.078 -1.155,0 -1.859,0.562 -1.859,1.585 0,0.979 0.692,1.452 1.749,1.452 0.418,0 0.737,-0.033 0.902,-0.077 l 0,-2.882 z"
     id="path142"
     inkscape:connector-curvature="0"
     style="fill:#ed1c24" /><path
     d="m 70.486,331.181 c 0,-1.97 1.364,-2.828 2.651,-2.828 1.441,0 2.553,1.057 2.553,2.739 0,1.782 -1.166,2.827 -2.641,2.827 -1.528,0 -2.563,-1.111 -2.563,-2.738 z m 4.225,-0.056 c 0,-1.166 -0.671,-2.046 -1.617,-2.046 -0.924,0 -1.617,0.869 -1.617,2.068 0,0.902 0.451,2.046 1.596,2.046 1.143,0 1.638,-1.055 1.638,-2.068 z"
     id="path144"
     inkscape:connector-curvature="0"
     style="fill:#ed1c24" /><path
     d="m 69.12,333.798 -0.704,-2.706 c -0.153,-0.594 -0.297,-1.144 -0.396,-1.694 l -0.033,0 c -0.121,0.539 -0.297,1.111 -0.473,1.694 l -0.869,2.706 -0.814,0 -0.825,-2.662 c -0.198,-0.638 -0.353,-1.199 -0.473,-1.738 l -0.033,0 c -0.088,0.539 -0.231,1.101 -0.407,1.728 l -0.759,2.673 -0.958,0 1.717,-5.324 0.88,0 0.814,2.541 c 0.187,0.594 0.341,1.123 0.473,1.75 l 0.022,0 c 0.132,-0.639 0.297,-1.188 0.483,-1.761 l 0.858,-2.53 0.88,0 1.606,5.324 -0.989,0 z"
     id="path146"
     inkscape:connector-curvature="0"
     style="fill:#ed1c24" /><path
     d="m 61.096,330.96 c -0.022,-1.309 -0.858,-1.848 -1.826,-1.848 -0.693,0 -1.111,0.121 -1.475,0.274 l -0.165,-0.692 c 0.341,-0.154 0.924,-0.342 1.771,-0.342 1.639,0 2.618,1.09 2.618,2.695 0,1.606 -0.946,2.871 -2.497,2.871 -1.738,0 -2.201,-1.529 -2.201,-2.508 0,-0.198 0.022,-0.352 0.033,-0.451 l 3.742,0 z m -2.839,0.693 c -0.011,0.615 0.253,1.573 1.342,1.573 0.979,0 1.408,-0.902 1.485,-1.573 l -2.827,0 z"
     id="path148"
     inkscape:connector-curvature="0"
     style="fill:#ed1c24" /><path
     d="m 56.261,332.138 c 0,0.627 0.011,1.166 0.044,1.66 l -0.848,0 -0.033,-1.045 -0.044,0 c -0.241,0.715 -0.825,1.166 -1.474,1.166 -0.11,0 -0.188,-0.011 -0.275,-0.033 l 0,-0.912 c 0.1,0.021 0.198,0.033 0.33,0.033 0.683,0 1.166,-0.518 1.298,-1.244 0.022,-0.132 0.044,-0.285 0.044,-0.451 l 0,-2.838 0.958,0 0,3.664 z"
     id="path150"
     inkscape:connector-curvature="0"
     style="fill:#ed1c24" /><path
     d="m 148.28,310.077 c -0.43,-0.264 -1.057,-0.484 -1.717,-0.484 -0.979,0 -1.551,0.518 -1.551,1.266 0,0.693 0.396,1.09 1.396,1.475 1.211,0.429 1.959,1.056 1.959,2.102 0,1.154 -0.957,2.013 -2.398,2.013 -0.76,0 -1.31,-0.177 -1.64,-0.363 l 0.265,-0.78 c 0.242,0.131 0.736,0.352 1.408,0.352 1.012,0 1.396,-0.605 1.396,-1.111 0,-0.693 -0.451,-1.034 -1.475,-1.43 -1.254,-0.484 -1.892,-1.09 -1.892,-2.179 0,-1.145 0.847,-2.146 2.597,-2.146 0.715,0 1.496,0.221 1.893,0.484 l -0.241,0.801 z"
     id="path152"
     inkscape:connector-curvature="0"
     style="fill:#ed1c24" /><path
     d="m 142.968,316.228 c -0.584,0.088 -1.277,0.154 -2.036,0.154 -1.375,0 -2.354,-0.32 -3.003,-0.925 -0.66,-0.604 -1.045,-1.464 -1.045,-2.662 0,-1.21 0.373,-2.2 1.066,-2.883 0.693,-0.692 1.838,-1.067 3.279,-1.067 0.682,0 1.254,0.033 1.738,0.088 l 0,7.295 z m -0.958,-6.557 c -0.241,-0.045 -0.594,-0.056 -0.968,-0.056 -2.047,0 -3.158,1.144 -3.158,3.146 -0.01,1.749 0.979,2.86 3.004,2.86 0.495,0 0.869,-0.044 1.122,-0.1 l 0,-5.85 z"
     id="path154"
     inkscape:connector-curvature="0"
     style="fill:#ed1c24" /><path
     d="m 128.347,309.153 c 0.353,-0.176 1.057,-0.363 1.959,-0.363 2.09,0 3.664,1.331 3.664,3.763 0,2.321 -1.574,3.895 -3.873,3.895 -0.924,0 -1.508,-0.198 -1.76,-0.33 l 0.23,-0.781 c 0.363,0.177 0.881,0.308 1.496,0.308 1.738,0 2.894,-1.111 2.894,-3.059 0,-1.814 -1.045,-2.98 -2.85,-2.98 -0.583,0 -1.177,0.121 -1.562,0.308 l -0.198,-0.761 z"
     id="path156"
     inkscape:connector-curvature="0"
     style="fill:#ed1c24" /><path
     d="m 123.568,310.188 c 0,-0.462 -0.022,-0.913 -0.089,-1.276 l 0.881,0 0.077,0.671 0.032,0 c 0.298,-0.418 0.869,-0.792 1.629,-0.792 1.078,0 1.628,0.76 1.628,1.529 0,1.287 -1.144,1.991 -3.201,1.98 l 0,0.109 c 0,0.44 0.121,1.232 1.21,1.232 0.495,0 1.012,-0.154 1.387,-0.396 l 0.22,0.639 c -0.44,0.286 -1.078,0.473 -1.749,0.473 -1.629,0 -2.024,-1.111 -2.024,-2.178 l 0,-1.991 z m 0.935,1.44 c 1.057,0.022 2.256,-0.164 2.256,-1.199 0,-0.627 -0.418,-0.924 -0.913,-0.924 -0.693,0 -1.134,0.44 -1.288,0.892 -0.032,0.099 -0.055,0.209 -0.055,0.308 l 0,0.923 z"
     id="path158"
     inkscape:connector-curvature="0"
     style="fill:#ed1c24" /><path
     d="m 122.188,312.575 c 0,0.627 0.011,1.166 0.044,1.66 l -0.848,0 -0.032,-1.045 -0.044,0 c -0.242,0.715 -0.825,1.166 -1.475,1.166 -0.109,0 -0.187,-0.011 -0.275,-0.033 l 0,-0.912 c 0.1,0.021 0.199,0.033 0.33,0.033 0.683,0 1.167,-0.518 1.299,-1.244 0.021,-0.132 0.044,-0.285 0.044,-0.451 l 0,-2.838 0.957,0 0,3.664 z"
     id="path160"
     inkscape:connector-curvature="0"
     style="fill:#ed1c24" /><path
     d="m 114.172,316.722 0,-6.436 c 0,-0.473 -0.011,-1.012 -0.044,-1.375 l 0.869,0 0.044,0.924 0.022,0 c 0.297,-0.594 0.945,-1.045 1.814,-1.045 1.287,0 2.277,1.09 2.277,2.707 0.012,1.771 -1.089,2.859 -2.387,2.859 -0.814,0 -1.364,-0.385 -1.606,-0.813 l -0.022,0 0,3.179 -0.967,0 z m 0.968,-4.654 c 0,0.121 0.012,0.286 0.045,0.407 0.143,0.616 0.67,1.122 1.396,1.122 1.002,0 1.596,-0.88 1.596,-2.058 0,-1.078 -0.528,-1.969 -1.573,-1.969 -0.649,0 -1.243,0.43 -1.419,1.155 -0.033,0.132 -0.045,0.264 -0.045,0.418 l 0,0.925 z"
     id="path162"
     inkscape:connector-curvature="0"
     style="fill:#ed1c24" /><path
     d="m 56.199,322.798 c -3.131,0 -5.67,-2.539 -5.67,-5.67 l 0,-14.172 c 0,-3.131 2.539,-5.67 5.67,-5.67 l 22.678,0 c 3.131,0 5.668,2.539 5.668,5.67 l 0,14.172 c 0,3.131 -2.537,5.67 -5.668,5.67 l -22.678,0 z"
     id="path164"
     inkscape:connector-curvature="0"
     style="fill:none;stroke:#000000" /><rect
     id="rect3634"
     height="13.516942"
     width="110.26694"
     y="243.29745"
     x="384.47412"
     style="fill:none;stroke:#000000;stroke-width:0.99000001;stroke-miterlimit:4;stroke-dasharray:none" /></svg>