<?xml version="1.0" encoding="UTF-8" standalone="no"?>
<!-- Generator: Adobe Illustrator 15.1.0, SVG Export Plug-In  -->

<svg
   xmlns:dc="http://purl.org/dc/elements/1.1/"
   xmlns:cc="http://creativecommons.org/ns#"
   xmlns:rdf="http://www.w3.org/1999/02/22-rdf-syntax-ns#"
   xmlns:svg="http://www.w3.org/2000/svg"
   xmlns="http://www.w3.org/2000/svg"
   xmlns:sodipodi="http://sodipodi.sourceforge.net/DTD/sodipodi-0.dtd"
   xmlns:inkscape="http://www.inkscape.org/namespaces/inkscape"
   version="1.1"
   x="0px"
   y="0px"
   width="792px"
   height="612px"
   viewBox="-142.884 -121.767 792 612"
   overflow="visible"
   enable-background="new -142.884 -121.767 792 612"
   xml:space="preserve"
   id="svg2"
   inkscape:version="0.91 r13725"
   sodipodi:docname="adafruit_pi_box.svg"><metadata
     id="metadata612"><rdf:RDF><cc:Work
         rdf:about=""><dc:format>image/svg+xml</dc:format><dc:type
           rdf:resource="http://purl.org/dc/dcmitype/StillImage" /><dc:title></dc:title></cc:Work></rdf:RDF></metadata><sodipodi:namedview
     pagecolor="#ffffff"
     bordercolor="#666666"
     borderopacity="1"
     objecttolerance="10"
     gridtolerance="10"
     guidetolerance="10"
     inkscape:pageopacity="0"
     inkscape:pageshadow="2"
     inkscape:window-width="1920"
     inkscape:window-height="1017"
     id="namedview610"
     showgrid="false"
     inkscape:zoom="1.4545455"
     inkscape:cx="388.17812"
     inkscape:cy="328.27733"
     inkscape:window-x="-8"
     inkscape:window-y="-8"
     inkscape:window-maximized="1"
     inkscape:current-layer="svg2" /><defs
     id="defs4" /><path
     d="m -53.446875,32.00125 c 0,-1.95625 1.585,-3.54375 3.5425,-3.54375 l 6.91,0 0,-36.49375 -6.91,0 c -1.9575,0 -3.5425,-1.5875 -3.5425,-3.54375 l 0,-11.51625 10.63,0 c 11.92625,0 21.51875,-1.88375 27.36875,-4.135 5.725,-2.2025 14.675,-3.8375 25.78125,-3.8375 1.22375,0 2.21375,-0.99125 2.21375,-2.21375 l 0,0 c 0,-1.22375 -0.99125,-2.21375 -2.21375,-2.21375 -11.92625,0 -21.52125,1.8825 -27.37,4.13375 -5.725,2.2025 -14.675,3.83875 -25.77875,3.83875 l -10.63,-0.0012 c -3.67,0 -6.645,-2.97375 -6.645,-6.6425 0,-3.66875 2.97625,-6.6425 6.645,-6.6425 l 0,4.075 10.63,0 0,-4.96375 c 0,-1.95625 1.585,-3.5425 3.5425,-3.5425 l 1.7725,0 c 0.45125,0 0.90625,0.17375 1.2525,0.51875 0.69125,0.6925 1.81125,0.6925 2.505,0 0.69125,-0.6925 1.81375,-0.6925 2.505,0.0012 0.69125,0.69125 1.81375,0.69125 2.505,-0.0012 0.69125,-0.6925 1.81375,-0.6925 2.505,0.0012 0.69375,0.69125 1.81375,0.69125 2.505,-0.0012 0.69375,-0.6925 1.81375,-0.6925 2.5075,0.0012 0.69125,0.69125 1.81125,0.69125 2.505,-0.0012 0.34375,-0.345 0.79875,-0.51875 1.2525,-0.51875 l 260.032505,0 c 0.45375,0 0.90875,0.17375 1.2525,0.51875 0.69375,0.6925 1.81375,0.6925 2.505,0.0012 0.69375,-0.69375 1.81375,-0.69375 2.5075,-0.0012 0.69125,0.6925 1.81125,0.6925 2.50375,0.0012 0.69125,-0.69375 1.81375,-0.69375 2.505,-0.0012 0.6925,0.6925 1.815,0.6925 2.50625,0.0012 0.69125,-0.69375 1.81375,-0.69375 2.505,-0.0012 0.69375,0.6925 1.81375,0.6925 2.505,0 0.34625,-0.345 0.80125,-0.51875 1.2525,-0.51875 l 1.7725,0 c 1.9575,0 3.5425,1.58625 3.5425,3.5425 l 0,4.96125 11.16125,0 0,-4.075 c 3.67,0 6.6425,2.97375 6.6425,6.6425 0,3.66875 -2.97375,6.6425 -6.6425,6.6425 l -11.16125,0.0012 c -11.10375,0 -20.05375,-1.6375 -25.78,-3.83875 -5.85,-2.25125 -15.4425,-4.13375 -27.36875,-4.13375 -1.22375,0 -2.21375,0.99125 -2.21375,2.21375 l 0,0 c 0,1.22375 0.99125,2.21375 2.21375,2.21375 11.10375,0 20.05375,1.63625 25.77875,3.8375 5.85,2.25125 15.4425,4.135 27.36875,4.135 l 11.16125,0 0,11.51625 c 0,1.95625 -1.585,3.54375 -3.5425,3.54375 l -7.44251,0 0,36.49375 7.44251,0 c 1.95749,0 3.5425,1.5875 3.5425,3.54375 l 0,15.945 c 3.67,0 6.6425,2.975 6.6425,6.64375 0,3.66875 -2.97375,6.6425 -6.6425,6.6425 l 0,-4.075 -11.1625,0 0,4.96125 c 0,1.955 -1.585,3.5425 -3.5425,3.5425 l -303.661255,0 c -1.9575,0 -3.5425,-1.5875 -3.5425,-3.5425 l 0,-4.96125 -10.63,0 0,4.075 c -3.67,0 -6.645,-2.97375 -6.645,-6.6425 0,-3.66875 2.97625,-6.64375 6.645,-6.64375 l 0,-15.9425 z"
     id="path6"
     inkscape:connector-curvature="0"
     style="fill:none;stroke:#000000;stroke-width:1.25" /><rect
     x="28.933128"
     y="46.175003"
     width="42.52"
     height="10.983749"
     id="rect8"
     style="fill:none;stroke:#000000;stroke-width:1.25" /><rect
     x="154.72061"
     y="46.175003"
     width="42.52"
     height="10.983749"
     id="rect10"
     style="fill:none;stroke:#000000;stroke-width:1.25" /><rect
     x="28.933128"
     y="-36.737499"
     width="42.52"
     height="10.983749"
     id="rect12"
     style="fill:none;stroke:#000000;stroke-width:1.25" /><rect
     x="154.72061"
     y="-36.737499"
     width="42.52"
     height="10.983749"
     id="rect14"
     style="fill:none;stroke:#000000;stroke-width:1.25" /><path
     stroke-miterlimit="2.6131"
     d="m 130.09438,10.875 c 0,1.95625 -1.58751,3.5425 -3.5425,3.5425 l -49.606255,0 c -1.9575,0 -3.5425,-1.58625 -3.5425,-3.5425 l 0,-13.28875 c 0,-0.94 0.37125,-1.84125 1.0375,-2.505 l 3.5425,-3.5425 c 0.66375,-0.665 1.565,-1.0375 2.505,-1.0375 l 42.521255,0 c 0.94,0 1.84125,0.3725 2.505,1.0375 l 3.5425,3.5425 c 0.66374,0.66375 1.0375,1.565 1.0375,2.505 l 0,13.28875 z"
     id="path16"
     inkscape:connector-curvature="0"
     style="fill:none;stroke:#000000;stroke-width:1.25;stroke-miterlimit:2.61310005" /><path
     d="m 236.39563,367.905 0,-29.41125 -6.91,0 c -1.95625,0 -3.5425,-1.58625 -3.5425,-3.54375 l 0,-11.51625 10.63,0 c 11.92625,0 21.51875,-1.88375 27.37,-4.13375 5.72375,-2.2025 14.675,-3.8375 25.78,-3.8375 1.22375,0 2.21375,-0.99125 2.21375,-2.21375 l 0,0 c 0,-1.22375 -0.99125,-2.21375 -2.21375,-2.21375 -11.92625,0 -21.52125,1.8825 -27.37,4.13375 -5.725,2.20125 -14.67625,3.8375 -25.78,3.8375 l -10.63,0 c -3.67,0 -6.64375,-2.97375 -6.64375,-6.6425 0,-3.66875 2.975,-6.64375 6.64375,-6.64375 l 0,4.075 10.63,0 0,-4.96 c 0,-1.9575 1.58625,-3.54375 3.5425,-3.54375 l 1.7725,0 c 0.4525,0.001 0.90625,0.17375 1.2525,0.51875 0.69125,0.69375 1.8125,0.69375 2.505,0 0.69125,-0.69125 1.81375,-0.69125 2.505,10e-4 0.6925,0.6925 1.81375,0.6925 2.505,-10e-4 0.6925,-0.69125 1.81375,-0.69125 2.50625,10e-4 0.6925,0.6925 1.81375,0.6925 2.505,-10e-4 0.6925,-0.69125 1.81375,-0.69125 2.50625,10e-4 0.69125,0.6925 1.81125,0.6925 2.505,-10e-4 0.34375,-0.34375 0.79875,-0.5175 1.2525,-0.5175 l 260.03375,0 c 0.45375,0 0.90875,0.17375 1.2525,0.5175 0.69375,0.69375 1.81375,0.69375 2.505,10e-4 0.6925,-0.6925 1.81375,-0.6925 2.50625,-10e-4 0.6925,0.69375 1.8125,0.69375 2.505,10e-4 0.6925,-0.6925 1.81375,-0.6925 2.50625,-10e-4 0.69125,0.69375 1.8125,0.69375 2.505,10e-4 0.69125,-0.6925 1.81375,-0.6925 2.505,-10e-4 0.6925,0.69375 1.81375,0.69375 2.505,0 0.34625,-0.345 0.8,-0.5175 1.2525,-0.51875 l 1.7725,0 c 1.95625,0 3.5425,1.58625 3.5425,3.54375 l 0,4.96 11.16125,0 0,-4.075 c 3.67,0 6.6425,2.975 6.6425,6.64375 0,3.66875 -2.97375,6.6425 -6.6425,6.6425 l -11.16125,0 c -11.10375,0 -20.055,-1.6375 -25.78,-3.8375 -5.85,-2.25125 -15.4425,-4.13375 -27.36875,-4.13375 -1.22375,0 -2.21375,0.99125 -2.21375,2.21375 l 0,0 c 0,1.22375 0.99125,2.21375 2.21375,2.21375 11.10375,0 20.05375,1.63625 25.77875,3.8375 5.85,2.25 15.4425,4.13375 27.37,4.13375 l 11.16125,0 0,11.51625 c 0,1.9575 -1.58625,3.54375 -3.5425,3.54375 l -7.44125,0 0,36.495 7.44125,0 c 1.95625,0 3.5425,1.58625 3.5425,3.5425 l 0,15.945 c 3.67,0 6.6425,2.975 6.6425,6.64375 0,3.66875 -2.97375,6.64375 -6.6425,6.64375 l 0,-4.075 -11.16125,0 0,4.96 c 0,1.95625 -1.58625,3.54375 -3.5425,3.54375 l -303.6625,0 c -1.95625,0 -3.5425,-1.5875 -3.5425,-3.54375 l 0,-4.96 -10.63,0 0,4.075 c -3.67,0 -6.64375,-2.975 -6.64375,-6.64375 0,-3.66875 2.975,-6.64375 6.64375,-6.64375 l 0,-15.9425 c 0,-1.9575 1.58625,-3.545 3.5425,-3.545 l 136.4175,0 c 1.9575,0 3.54375,-1.5875 3.54375,-3.54375 0,-1.95625 -1.58625,-3.54375 -3.54375,-3.54375 l -129.50875,0.004 z"
     id="path26"
     inkscape:connector-curvature="0"
     style="fill:none;stroke:#000000;stroke-width:1.25" /><rect
     x="308.32437"
     y="392.70502"
     width="42.52"
     height="10.985"
     id="rect28"
     style="fill:none;stroke:#000000;stroke-width:1.25" /><rect
     x="434.11063"
     y="392.70502"
     width="42.52"
     height="10.985"
     id="rect30"
     style="fill:none;stroke:#000000;stroke-width:1.25" /><rect
     x="308.32437"
     y="309.79248"
     width="42.52"
     height="10.985"
     id="rect32"
     style="fill:none;stroke:#000000;stroke-width:1.25" /><rect
     x="434.11063"
     y="309.79248"
     width="42.52"
     height="10.985"
     id="rect34"
     style="fill:none;stroke:#000000;stroke-width:1.25" /><ellipse
     stroke-miterlimit="2.6131"
     cx="475.2131"
     cy="359.13626"
     id="circle86"
     rx="12.40125"
     ry="12.401249"
     style="fill:none;stroke:#000000;stroke-width:1.25;stroke-miterlimit:2.61310005" /><ellipse
     stroke-miterlimit="2.6131"
     cx="408.5206"
     cy="365.51498"
     id="circle88"
     rx="18.602501"
     ry="18.602499"
     style="fill:none;stroke:#000000;stroke-width:1.25;stroke-miterlimit:2.61310005" /><path
     d="m 568.13563,280.03 c 0,1.95625 -1.5875,3.54375 -3.5425,3.54375 l -68.21,0 0,7.08625 c 0,1.95625 -1.5875,3.54375 -3.5425,3.54375 l -35.4325,0 c -1.9575,0 -3.545,-1.5875 -3.545,-3.54375 l 0,-7.08625 -83.26625,0 0,7.08625 c 0,1.95625 -1.5875,3.54375 -3.5425,3.54375 l -35.435,0 c -1.95501,0 -3.5425,-1.5875 -3.5425,-3.54375 l 0,-7.08625 -68.2075,0 c -1.9575,0 -3.545,-1.5875 -3.545,-3.54375 l 0,-193.11125 c 0,-1.955 1.58749,-3.5425 3.545,-3.5425 l 68.2075,0 0,-7.0875 c 0,-1.955 1.5875,-3.5425 3.5425,-3.5425 l 35.435,0 c 1.955,0 3.5425,1.5875 3.5425,3.5425 l 0,7.0875 83.26625,0 0,-7.0875 c 0,-1.955 1.58749,-3.5425 3.545,-3.5425 l 35.4325,0 c 1.955,0 3.5425,1.5875 3.5425,3.5425 l 0,7.0875 68.21,0 c 1.955,0 3.5425,1.5875 3.5425,3.5425 l 0,193.11125 z"
     id="path90"
     inkscape:connector-curvature="0"
     style="fill:none;stroke:#000000;stroke-width:1.25" /><path
     d="m 249.23813,280.0325 c 0,1.955 -1.5875,3.54 -3.5425,3.54 l -68.21,0 0,7.0875 c 0,1.955 -1.5875,3.5425 -3.5425,3.5425 l -35.4325,0 c -1.95625,0 -3.54375,-1.5875 -3.54375,-3.5425 l 0,-7.0875 -83.265005,0 0,7.0875 c 0,1.955 -1.5875,3.5425 -3.5425,3.5425 l -35.435,0 c -1.955,0 -3.5425,-1.5875 -3.5425,-3.5425 l 0,-7.0875 -68.2075,0 c -1.9575,0 -3.545,-1.585 -3.545,-3.54 l 0,-193.1125 c 0,-1.955 1.5875,-3.5425 3.545,-3.5425 l 68.2075,0 0,-7.0875 c 0,-1.955 1.5875,-3.5425 3.5425,-3.5425 l 35.435,0 c 1.955,0 3.5425,1.5875 3.5425,3.5425 l 0,7.0875 83.265005,0 0,-7.0875 c 0,-1.955 1.5875,-3.5425 3.54375,-3.5425 l 35.4325,0 c 1.955,0 3.5425,1.5875 3.5425,3.5425 l 0,7.0875 68.21,0 c 1.955,0 3.5425,1.5875 3.5425,3.5425 l 0,193.1125 z"
     id="path92"
     inkscape:connector-curvature="0"
     style="fill:none;stroke:#000000;stroke-width:1.25" /><rect
     x="301.35941"
     y="-36.38625"
     width="11.2675"
     height="28.3475"
     id="rect94"
     style="fill:none;stroke:#000000;stroke-width:1.25" /><rect
     x="301.35941"
     y="28.455"
     width="11.2675"
     height="28.3475"
     id="rect96"
     style="fill:none;stroke:#000000;stroke-width:1.25" /><rect
     x="511.83313"
     y="-36.38625"
     width="11.26875"
     height="28.3475"
     id="rect98"
     style="fill:none;stroke:#000000;stroke-width:1.25" /><rect
     x="511.83313"
     y="28.455"
     width="11.26875"
     height="28.3475"
     id="rect100"
     style="fill:none;stroke:#000000;stroke-width:1.25" /><path
     d="m 292.81938,-34.61375 c 0,-5.87125 4.76125,-10.63 10.63,-10.63 l 217.56125,0 c 5.86875,0 10.63,4.75875 10.63,10.63 l 0,91.41625 c 0,9.785 -7.9325,17.71625 -17.7175,17.71625 -6.55375,0 -12.2625,-3.5675 -15.3275,-8.8575 l -172.73125,0 c -3.06375,5.29 -8.7725,8.8575 -15.3275,8.8575 -9.785,0 -17.7175,-7.93125 -17.7175,-17.71625 l 0,-91.41625 z"
     id="path102"
     inkscape:connector-curvature="0"
     style="fill:none;stroke:#000000;stroke-width:1.25" /><path
     d="m 350.22188,35.0125 0.88625,-0.88625 25.335,0 c 1.9575,0 3.5425,-1.5875 3.5425,-3.54375 l 0,-47.83375 c 0,-1.95625 -1.585,-3.54375 -3.5425,-3.54375 l -54.9225,0 c -1.955,0 -3.5425,1.5875 -3.5425,3.54375 l 0,47.835 c 0,1.95625 1.5875,3.54375 3.5425,3.54375 l 25.3375,0 0.88625,0.88625"
     id="path104"
     inkscape:connector-curvature="0"
     style="fill:none;stroke:#000000;stroke-width:1.25" /><path
     stroke-miterlimit="2.6131"
     d="m 395.93313,-20.795 c 0,-1.95625 1.5875,-3.54375 3.54375,-3.54375 l 47.83375,0 c 1.95749,0 3.54375,1.5875 3.54375,3.54375 l 0,51.37875 c 0,1.95625 -1.58626,3.54375 -3.54375,3.54375 l -47.83375,0 c -1.95625,0 -3.54375,-1.5875 -3.54375,-3.54375 l 0,-51.37875 z"
     id="path106"
     inkscape:connector-curvature="0"
     style="fill:none;stroke:#000000;stroke-width:1.25;stroke-miterlimit:2.61310005" /><path
     d="m 347.74438,28.81125 -0.88625,0.885 -12.04875,0 c -1.9575,0 -3.545,-1.58625 -3.545,-3.5425 l 0,-2.25625 c 0,-1.05375 0.47125,-2.05375 1.28125,-2.7275 1.41624,-1.17375 2.26374,-2.955 2.26374,-4.76125 0,-3.41875 -2.78375,-6.20125 -6.20125,-6.20125 l -0.88625,0 c -1.955,0 -3.5425,-1.5875 -3.5425,-3.5425 l 0,-19.4875 c 0,-1.955 1.5875,-3.5425 3.5425,-3.5425 l 42.52,0 c 1.9575,0 3.545,1.5875 3.545,3.5425 l 0,19.49 c 0,1.955 -1.58749,3.5425 -3.545,3.5425 l -0.88625,0 c -3.41749,0 -6.19874,2.7825 -6.19874,6.20125 0,1.805 0.84499,3.58625 2.26125,4.76125 0.81249,0.67375 1.28124,1.67375 1.28124,2.7275 l 0,2.25625 c 0,1.95625 -1.5875,3.5425 -3.54249,3.5425 l -12.04876,0 -0.88625,-0.885"
     id="path128"
     inkscape:connector-curvature="0"
     style="fill:none;stroke:#000000;stroke-width:1.25" /><rect
     x="192.93689"
     y="374.99002"
     width="11.2675"
     height="28.3475"
     id="rect130"
     style="fill:none;stroke:#000000;stroke-width:1.25" /><rect
     x="192.93689"
     y="310.14749"
     width="11.2675"
     height="28.3475"
     id="rect132"
     style="fill:none;stroke:#000000;stroke-width:1.25" /><rect
     x="-17.538124"
     y="374.99002"
     width="11.2675"
     height="28.3475"
     id="rect134"
     style="fill:none;stroke:#000000;stroke-width:1.25" /><rect
     x="-17.538124"
     y="310.14749"
     width="11.2675"
     height="28.3475"
     id="rect136"
     style="fill:none;stroke:#000000;stroke-width:1.25" /><path
     d="m 212.74313,401.56375 c 0,5.87125 -4.76125,10.63 -10.63,10.63 l -217.560005,0 c -5.86875,0 -10.63,-4.75875 -10.63,-10.63 l 0,-91.41625 c 0,-9.785 7.9325,-17.7175 17.7175,-17.7175 6.5525,0 12.26125,3.5675 15.3275,8.8575 l 172.731255,0 c 3.06625,-5.29 8.775,-8.8575 15.3275,-8.8575 9.785,0 17.7175,7.9325 17.7175,17.7175 l 0,91.41625 z"
     id="path138"
     inkscape:connector-curvature="0"
     style="fill:none;stroke:#000000;stroke-width:1.25" /><path
     d="m 148.60938,329.635 c 0,1.955 -1.58751,3.5425 -3.54251,3.5425 l -88.584995,0 c -1.955,0 -3.5425,-1.5875 -3.5425,-3.5425 l 0,-5.315 c 0,-1.955 1.5875,-3.5425 3.5425,-3.5425 l 88.585005,0 c 1.955,0 3.5425,1.5875 3.5425,3.5425 l 0,5.315 z"
     id="path140"
     inkscape:connector-curvature="0"
     style="fill:none;stroke:#000000;stroke-width:1.25" /><path
     d="m 7.053125,357.62875 c -3.91375,0 -7.0875,-3.17375 -7.0875,-7.0875 l 0,-17.715 c 0,-3.91375 3.17375,-7.0875 7.0875,-7.0875 l 28.3475,0 c 3.91375,0 7.085,3.17375 7.085,7.0875 l 0,17.715 c 0,3.91375 -3.17125,7.0875 -7.085,7.0875 l -28.3475,0 z"
     id="path164"
     inkscape:connector-curvature="0"
     style="fill:none;stroke:#000000;stroke-width:1.25" /></svg>