<?xml version="1.0" encoding="UTF-8" standalone="no"?>
<!-- Created with Inkscape (http://www.inkscape.org/) -->

<svg
   xmlns:dc="http://purl.org/dc/elements/1.1/"
   xmlns:cc="http://creativecommons.org/ns#"
   xmlns:rdf="http://www.w3.org/1999/02/22-rdf-syntax-ns#"
   xmlns:svg="http://www.w3.org/2000/svg"
   xmlns="http://www.w3.org/2000/svg"
   xmlns:sodipodi="http://sodipodi.sourceforge.net/DTD/sodipodi-0.dtd"
   xmlns:inkscape="http://www.inkscape.org/namespaces/inkscape"
   width="42in"
   height="20in"
   viewBox="0 0 3780.0001 1800"
   id="svg2"
   version="1.1"
   inkscape:version="0.91 r13725"
   sodipodi:docname="bridge.svg">
  <defs
     id="defs4" />
  <sodipodi:namedview
     id="base"
     pagecolor="#ffffff"
     bordercolor="#666666"
     borderopacity="1.0"
     inkscape:pageopacity="0.0"
     inkscape:pageshadow="2"
     inkscape:zoom="0.24748737"
     inkscape:cx="1824.9428"
     inkscape:cy="947.3273"
     inkscape:document-units="in"
     inkscape:current-layer="layer1"
     showgrid="false"
     units="in"
     inkscape:object-nodes="false"
     inkscape:snap-global="true"
     inkscape:snap-bbox="true"
     inkscape:bbox-nodes="false"
     inkscape:bbox-paths="false"
     inkscape:snap-page="false"
     inkscape:snap-midpoints="false"
     inkscape:window-width="1536"
     inkscape:window-height="801"
     inkscape:window-x="-8"
     inkscape:window-y="-8"
     inkscape:window-maximized="1"
     showguides="false" />
  <metadata
     id="metadata7">
    <rdf:RDF>
      <cc:Work
         rdf:about="">
        <dc:format>image/svg+xml</dc:format>
        <dc:type
           rdf:resource="http://purl.org/dc/dcmitype/StillImage" />
        <dc:title></dc:title>
      </cc:Work>
    </rdf:RDF>
  </metadata>
  <g
     inkscape:label="Layer 1"
     inkscape:groupmode="layer"
     id="layer1"
     transform="translate(0,747.63784)">
    <path
       style="opacity:1;fill:none;stroke:#000000;stroke-width:1.03892148;stroke-miterlimit:4;stroke-dasharray:none"
       d="m -5.7142858,1453.0765 c -17.1299902,0.02 -16.3147482,49.8328 0,55.4689 37.0686638,12.8056 73.9070038,28.2147 110.5331958,45.8937 l 0,1688.1473 -110.5331958,0 0,55.469 110.5331958,0 0,0.022 51.42774,0 0,-0.022 218.54492,0 0,0.022 51.42773,0 0,-0.022 218.57227,0 0,0.022 51.42773,0 0,-0.022 218.57227,0 0,0.022 51.42773,0 0,-0.022 218.5723,0 0,0.022 51.4277,0 0,-0.022 218.5723,0 0,0.022 51.4277,0 0,-0.022 218.5723,0 0,0.022 51.4277,0 0,-0.022 218.5723,0 0,0.022 51.4277,0 0,-0.022 218.5449,0 0,0.022 51.4277,0 0,-0.022 218.5723,0 0,0.022 51.4277,0 0,-0.022 218.5723,0 0,0.022 51.4277,0 0,-0.022 218.5723,0 0,0.022 51.4277,0 0,-0.022 218.5723,0 0,0.022 51.4277,0 0,-0.022 218.5723,0 0,0.022 51.4277,0 0,-0.022 112.379,0 0,-55.469 -112.379,0 0,-1699.2212 c 37.7228,-15.4766 75.1914,-27.2721 112.379,-34.8198 16.8349,-3.4169 17.13,-55.4503 0,-55.4689 -645.7686,-0.703 -1255.452,1317.1033 -1887.2188,1317.1033 -629.6618,0 -1298.2851,-1317.8063 -1897.0663858,-1317.1033 z m 3620.4784858,113.5476 0,1675.9623 -218.5723,0 0,-1536.2719 c 73.6185,-56.3488 146.5343,-104.1951 218.5723,-139.6904 z m -3458.51755,14.1771 c 73.62916,39.8982 146.42544,88.4713 218.54492,143.0023 l 0,1518.7829 -218.54492,0 0,-1661.7852 z m 3188.51755,166.1368 0,1495.6484 -218.5723,0 0,-1301.2207 c 73.3826,-69.6833 146.2944,-135.6838 218.5723,-194.4277 z m -2918.5449,16.8017 c 73.47655,58.5552 146.27893,122.6941 218.57227,189.5264 l 0,1289.3203 -218.57227,0 0,-1478.8467 z m 2648.5449,226.9666 0,1251.8801 -218.5723,0 0,-1036.7253 c 73.1755,-72.1872 146.0826,-145.0228 218.5723,-215.1548 z m -2378.5449,10.5975 c 73.28848,69.1089 146.08813,140.2785 218.57227,210.5149 l 0,1030.7677 -218.57227,0 0,-1241.2826 z m 2108.5449,255.0763 0,986.2063 -218.5723,0 0,-780.7298 c 72.9827,-64.783 145.8888,-134.3956 218.5723,-205.4765 z m -1838.5449,5.1143 c 73.079,70.3225 145.88,138.9415 218.5723,202.7254 l 0,778.3666 -218.5723,0 0,-981.092 z m 1568.5449,245.1766 0,735.9154 -218.5723,0 0,-569.4181 c 72.7958,-47.6936 145.7026,-104.2847 218.5723,-166.4973 z m -1298.5449,1.8509 c 72.8619,61.5066 145.66,117.4011 218.5723,164.5473 l 0,569.5172 -218.5723,0 0,-734.0645 z m 270,196.304 c 72.6441,42.6609 145.4434,75.9061 218.5723,96.63 l 0,441.1305 -218.5723,0 0,-537.7605 z m 758.5449,0.5481 0,537.2124 -218.5449,0 0,-439.5157 c 72.5979,-20.5181 145.4966,-54.2073 218.5449,-97.6967 z m -488.5449,108.5388 c 38.2679,7.6687 76.6374,11.7338 115.1328,11.7338 34.3916,0 68.8777,-3.548 103.4395,-10.275 l 0,427.2148 -218.5723,0 0,-428.6736 z"
       id="rect3374"
       inkscape:connector-curvature="0" />
    <path
       style="opacity:1;fill:none;stroke:#000000;stroke-width:1;stroke-miterlimit:4;stroke-dasharray:none"
       d="M 3786.5059 2.6894531 C 3785.7455 2.7387413 3784.9241 3.1222656 3784.041 3.8925781 C 3414.9986 325.79447 2515.0073 1034.248 1884.5312 1034.248 C 1255.0073 1034.248 311.80084 269.89933 4.0410156 3.8925781 C -7.3074146 -5.9162219 -6.7095725 70.607497 4.7558594 80.279297 C 42.362717 112.00302 82.144541 145.18432 123.77734 179.34375 L 123.77734 1755.0488 L 4.2929688 1755.0488 L 4.2929688 1800.0488 L 2036.2402 1800.0488 L 2036.2402 1806.0605 L 2081.2402 1806.0605 L 2081.2402 1800.0488 L 3784.293 1800.0488 L 3784.293 1755.0488 L 3656.2031 1755.0488 L 3656.2031 181.60352 C 3702.3042 139.68542 3745.7415 98.303389 3786.0605 57.984375 C 3795.8385 48.206416 3795.4781 2.1078522 3786.5059 2.6894531 z M 168.77734 216.05469 C 190.80732 233.91517 213.33895 252.0058 236.27734 270.24805 L 236.27734 1755.0488 L 168.77734 1755.0488 L 168.77734 216.05469 z M 3611.2031 221.9375 L 3611.2031 1755.0488 L 3543.7031 1755.0488 L 3543.7031 280.37305 C 3566.7133 260.84911 3589.2279 241.35474 3611.2031 221.9375 z M 281.27734 305.78906 C 303.43075 323.16727 325.9164 340.64397 348.77734 358.18945 L 348.77734 1755.0488 L 281.27734 1755.0488 L 281.27734 305.78906 z M 3498.7031 318.07227 L 3498.7031 1755.0488 L 3431.2227 1755.0488 L 3431.2227 372.82031 C 3454.105 354.60276 3476.609 336.33953 3498.7031 318.07227 z M 393.77734 392.43945 C 416.00623 409.23853 438.49079 426.05878 461.27734 442.86133 L 461.27734 1755.0488 L 393.77734 1755.0488 L 393.77734 392.43945 z M 3386.2227 408.19727 L 3386.2227 1755.0488 L 3318.7031 1755.0488 L 3318.7031 459.6875 C 3341.5137 442.61376 3364.0248 425.4376 3386.2227 408.19727 z M 506.27734 475.73047 C 528.55639 491.87639 551.04041 507.98149 573.75977 523.99805 L 573.75977 1755.0488 L 506.27734 1755.0488 L 506.27734 475.73047 z M 3273.7031 492.95703 L 3273.7031 1755.0488 L 3206.2031 1755.0488 L 3206.2031 541.33203 C 3228.9355 525.341 3251.4483 509.20882 3273.7031 492.95703 z M 618.75977 555.41602 C 641.08441 570.84964 663.59035 586.17864 686.25977 601.36914 L 686.25977 1755.0488 L 618.75977 1755.0488 L 618.75977 555.41602 z M 3161.2031 572.58984 L 3161.2031 1755.0488 L 3093.7031 1755.0488 L 3093.7031 618.00586 C 3116.3868 603.04482 3138.8891 587.89314 3161.2031 572.58984 z M 731.25977 631.19336 C 753.62478 645.85123 776.13098 660.35143 798.75977 674.66406 L 798.75977 1755.0488 L 731.25977 1755.0488 L 731.25977 631.19336 z M 3048.7031 647.28711 L 3048.7031 1755.0488 L 2981.2227 1755.0488 L 2981.2227 689.72656 C 3003.8517 675.79199 3026.3529 661.6377 3048.7031 647.28711 z M 843.75977 702.76953 C 866.16722 716.58667 888.67717 730.20395 911.27734 743.58008 L 911.27734 1755.0488 L 843.75977 1755.0488 L 843.75977 702.76953 z M 2936.2227 717.04688 L 2936.2227 1755.0488 L 2868.7031 1755.0488 L 2868.7031 756.51953 C 2891.3055 743.60769 2913.8203 730.44596 2936.2227 717.04688 z M 956.27734 769.82227 C 978.70567 782.71103 1001.2035 795.35728 1023.7598 807.71289 L 1023.7598 1755.0488 L 956.27734 1755.0488 L 956.27734 769.82227 z M 2823.7031 781.82422 L 2823.7031 1755.0488 L 2756.2031 1755.0488 L 2756.2031 818.21484 C 2778.7641 806.36528 2801.2706 794.23103 2823.7031 781.82422 z M 1068.7598 831.9375 C 1091.2233 843.82163 1113.7287 855.41007 1136.2598 866.66797 L 1136.2598 1755.0488 L 1068.7598 1755.0488 L 1068.7598 831.9375 z M 2711.2031 841.43164 L 2711.2031 1755.0488 L 2643.7031 1755.0488 L 2643.7031 874.61133 C 2666.2305 863.86833 2688.7372 852.80413 2711.2031 841.43164 z M 1181.2598 888.69141 C 1203.7526 899.46886 1226.2578 909.89978 1248.7598 919.95508 L 1248.7598 1755.0488 L 1181.2598 1755.0488 L 1181.2598 888.69141 z M 2598.7031 895.61914 L 2598.7031 1755.0488 L 2531.2227 1755.0488 L 2531.2227 925.39648 C 2553.7116 915.82946 2576.2108 905.89189 2598.7031 895.61914 z M 1293.7598 939.56055 C 1316.2873 949.11769 1338.7989 958.27114 1361.2773 967.00391 L 1361.2773 1755.0488 L 1293.7598 1755.0488 L 1293.7598 939.56055 z M 2486.2227 944.04297 L 2486.2227 1755.0488 L 2418.7227 1755.0488 L 2418.7227 970.16406 C 2441.1852 961.85744 2463.6918 953.13918 2486.2227 944.04297 z M 1406.2773 983.93359 C 1428.8236 992.12588 1451.3222 999.85148 1473.7598 1007.1094 L 1473.7598 1755.0488 L 1406.2773 1755.0488 L 1406.2773 983.93359 z M 2373.7227 986.26758 L 2373.7227 1755.0488 L 2306.2227 1755.0488 L 2306.2227 1008.3945 C 2328.6514 1001.467 2351.1583 994.07804 2373.7227 986.26758 z M 1518.7598 1021.0449 C 1541.3433 1027.7133 1563.848 1033.8531 1586.2598 1039.4629 L 1586.2598 1755.0488 L 1518.7598 1755.0488 L 1518.7598 1021.0449 z M 2261.2227 1021.6992 L 2261.2227 1755.0488 L 2193.7227 1755.0488 L 2193.7227 1039.4023 C 2216.1146 1034.0038 2238.6229 1028.0877 2261.2227 1021.6992 z M 2148.7227 1049.5879 L 2148.7227 1755.0488 L 2081.2402 1755.0488 L 2081.2402 1062.3086 C 2103.586 1058.6336 2126.0892 1054.3779 2148.7227 1049.5879 z M 1631.2598 1050.0176 C 1653.8767 1054.9559 1676.3833 1059.3086 1698.7598 1063.0469 L 1698.7598 1755.0488 L 1631.2598 1755.0488 L 1631.2598 1050.0176 z M 2036.2402 1068.959 L 2036.2402 1755.0488 L 1968.7402 1755.0488 L 1968.7402 1075.9512 C 1991.048 1074.2529 2013.5524 1071.9249 2036.2402 1068.959 z M 1743.7598 1069.7441 C 1766.4072 1072.6969 1788.9106 1075.0041 1811.2402 1076.5918 L 1811.2402 1755.0488 L 1743.7598 1755.0488 L 1743.7598 1069.7441 z M 1923.7402 1078.5176 L 1923.7402 1755.0488 L 1856.2402 1755.0488 L 1856.2402 1078.8418 C 1865.7043 1079.1101 1875.1359 1079.248 1884.5312 1079.248 C 1897.5194 1079.248 1910.5918 1078.9998 1923.7402 1078.5176 z "
       transform="translate(0,-747.63784)"
       id="rect3578" />
    <rect
       style="opacity:1;fill:#000000;stroke:none;stroke-width:1;stroke-miterlimit:4;stroke-dasharray:none"
       id="rect3583"
       width="45"
       height="1800"
       x="-434.41727"
       y="-765.12738" />
    <rect
       y="-816.55579"
       x="4203.7031"
       height="1800"
       width="45"
       id="rect3659"
       style="opacity:1;fill:#000000;stroke:none;stroke-width:1;stroke-miterlimit:4;stroke-dasharray:none" />
  </g>
</svg>
