<?xml version="1.0" encoding="UTF-8" standalone="no"?>
<!-- Created with Inkscape (http://www.inkscape.org/) -->

<svg
   xmlns:dc="http://purl.org/dc/elements/1.1/"
   xmlns:cc="http://creativecommons.org/ns#"
   xmlns:rdf="http://www.w3.org/1999/02/22-rdf-syntax-ns#"
   xmlns:svg="http://www.w3.org/2000/svg"
   xmlns="http://www.w3.org/2000/svg"
   xmlns:sodipodi="http://sodipodi.sourceforge.net/DTD/sodipodi-0.dtd"
   xmlns:inkscape="http://www.inkscape.org/namespaces/inkscape"
   width="42in"
   height="19in"
   viewBox="0 0 3780.0001 1710"
   id="svg2"
   version="1.1"
   inkscape:version="0.91 r13725"
   sodipodi:docname="bridge.svg">
  <defs
     id="defs4" />
  <sodipodi:namedview
     id="base"
     pagecolor="#ffffff"
     bordercolor="#666666"
     borderopacity="1.0"
     inkscape:pageopacity="0.0"
     inkscape:pageshadow="2"
     inkscape:zoom="0.175"
     inkscape:cx="1543.0381"
     inkscape:cy="337.97541"
     inkscape:document-units="in"
     inkscape:current-layer="layer1"
     showgrid="false"
     units="in"
     inkscape:object-nodes="false"
     inkscape:snap-global="true"
     inkscape:snap-bbox="true"
     inkscape:bbox-nodes="false"
     inkscape:bbox-paths="true"
     inkscape:snap-page="true"
     inkscape:snap-midpoints="true"
     inkscape:window-width="1536"
     inkscape:window-height="801"
     inkscape:window-x="-8"
     inkscape:window-y="-8"
     inkscape:window-maximized="1" />
  <metadata
     id="metadata7">
    <rdf:RDF>
      <cc:Work
         rdf:about="">
        <dc:format>image/svg+xml</dc:format>
        <dc:type
           rdf:resource="http://purl.org/dc/dcmitype/StillImage" />
        <dc:title></dc:title>
      </cc:Work>
    </rdf:RDF>
  </metadata>
  <g
     inkscape:label="Layer 1"
     inkscape:groupmode="layer"
     id="layer1"
     transform="translate(0,657.63784)">
    <path
       style="opacity:1;fill:#000000;stroke:none;stroke-width:1;stroke-miterlimit:4;stroke-dasharray:none"
       d="m 0,-656.98651 c 598.78129,-0.65133 1267.4047,1220.26427 1897.0665,1220.26427 631.7668,0 1241.4505,-1220.91558 1887.2191,-1220.26427 17.13,0.0173 16.8349,48.22434 0,51.39 C 3192.097,-494.24059 2528.8333,614.66776 1897.0665,614.66776 1267.4047,614.66776 671.51228,-390.67318 0,-605.59651 c -16.314748,-5.22168 -17.12999,-51.37137 0,-51.39 z"
       id="rect3374"
       inkscape:connector-curvature="0"
       sodipodi:nodetypes="sssssss" />
    <path
       style="opacity:1;fill:#000000;stroke:none;stroke-width:1;stroke-miterlimit:4;stroke-dasharray:none"
       d="m 142.85715,-576.82562 51.42857,0 0,1629.18782 -51.42857,0 z"
       id="rect3376"
       inkscape:connector-curvature="0" />
    <path
       style="opacity:1;fill:#000000;stroke:none;stroke-width:1;stroke-miterlimit:4;stroke-dasharray:none"
       d="m 412.82999,-447.52609 51.42857,0 0,1499.88829 -51.42857,0 z"
       id="rect3378"
       inkscape:connector-curvature="0" />
    <path
       style="opacity:1;fill:#000000;stroke:none;stroke-width:1;stroke-miterlimit:4;stroke-dasharray:none"
       d="m 682.83002,-229.33314 51.42857,0 0,1281.69534 -51.42857,0 z"
       id="rect3380"
       inkscape:connector-curvature="0" />
    <path
       style="opacity:1;fill:#000000;stroke:none;stroke-width:1;stroke-miterlimit:4;stroke-dasharray:none"
       d="m 952.83002,45.428351 51.42858,0 0,1006.933849 -51.42858,0 z"
       id="rect3382"
       inkscape:connector-curvature="0" />
    <path
       style="opacity:1;fill:#000000;stroke:none;stroke-width:1;stroke-miterlimit:4;stroke-dasharray:none"
       d="m 1222.83,279.78374 51.4285,0 0,772.57846 -51.4285,0 z"
       id="rect3386"
       inkscape:connector-curvature="0" />
    <path
       style="opacity:1;fill:#000000;stroke:none;stroke-width:1;stroke-miterlimit:4;stroke-dasharray:none"
       d="m 1492.83,473.73303 51.4285,0 0,578.62917 -51.4285,0 z"
       id="rect3388"
       inkscape:connector-curvature="0" />
    <path
       style="opacity:1;fill:#000000;stroke:none;stroke-width:1;stroke-miterlimit:4;stroke-dasharray:none"
       d="m 1762.83,562.62645 51.4285,0 0,489.73575 -51.4285,0 z"
       id="rect3390"
       inkscape:connector-curvature="0" />
    <path
       style="opacity:1;fill:#000000;stroke:none;stroke-width:1;stroke-miterlimit:4;stroke-dasharray:none"
       d="m 2032.83,558.58584 51.4285,0 0,493.77636 -51.4285,0 z"
       id="rect3392"
       inkscape:connector-curvature="0" />
    <path
       style="opacity:1;fill:#000000;stroke:none;stroke-width:1;stroke-miterlimit:4;stroke-dasharray:none"
       d="m 2302.8027,437.36752 51.4286,0 0,614.99468 -51.4286,0 z"
       id="rect3394"
       inkscape:connector-curvature="0" />
    <path
       style="opacity:1;fill:#000000;stroke:none;stroke-width:1;stroke-miterlimit:4;stroke-dasharray:none"
       d="m 2572.803,215.13398 51.4285,0 0,837.22822 -51.4285,0 z"
       id="rect3396"
       inkscape:connector-curvature="0" />
    <path
       style="opacity:1;fill:#000000;stroke:none;stroke-width:1;stroke-miterlimit:4;stroke-dasharray:none"
       d="m 2842.803,-27.302632 51.4285,0 0,1079.664832 -51.4285,0 z"
       id="rect3398"
       inkscape:connector-curvature="0" />
    <path
       style="opacity:1;fill:#000000;stroke:none;stroke-width:1;stroke-miterlimit:4;stroke-dasharray:none"
       d="m 3112.8027,-285.90168 51.4286,0 0,1338.26388 -51.4286,0 z"
       id="rect3402"
       inkscape:connector-curvature="0" />
    <path
       style="opacity:1;fill:#000000;stroke:none;stroke-width:1;stroke-miterlimit:4;stroke-dasharray:none"
       d="m 3382.8027,-480.49496 51.4286,0 0,1532.85716 -51.4286,0 z"
       id="rect3404"
       inkscape:connector-curvature="0" />
    <path
       style="opacity:1;fill:#000000;stroke:none;stroke-width:1;stroke-miterlimit:4;stroke-dasharray:none"
       d="m 3652.8027,-586.20927 51.4286,0 0,1638.57147 -51.4286,0 z"
       id="rect3406"
       inkscape:connector-curvature="0" />
    <path
       style="opacity:1;fill:#000000;stroke:none;stroke-width:1;stroke-miterlimit:4;stroke-dasharray:none"
       d="m 0,1000.9528 3784.2856,0 0,51.39 -3784.2856,0 z"
       id="rect3445" />
  </g>
</svg>
