<?xml version="1.0" encoding="UTF-8" standalone="no"?>
<!-- Created with Inkscape (http://www.inkscape.org/) -->

<svg
   xmlns:dc="http://purl.org/dc/elements/1.1/"
   xmlns:cc="http://creativecommons.org/ns#"
   xmlns:rdf="http://www.w3.org/1999/02/22-rdf-syntax-ns#"
   xmlns:svg="http://www.w3.org/2000/svg"
   xmlns="http://www.w3.org/2000/svg"
   xmlns:sodipodi="http://sodipodi.sourceforge.net/DTD/sodipodi-0.dtd"
   xmlns:inkscape="http://www.inkscape.org/namespaces/inkscape"
   width="48in"
   height="36in"
   viewBox="0 0 4320.0001 3240.0001"
   id="svg2"
   version="1.1"
   inkscape:version="0.91 r13725"
   sodipodi:docname="card.circular.svg">
  <defs
     id="defs4" />
  <sodipodi:namedview
     id="base"
     pagecolor="#ffffff"
     bordercolor="#666666"
     borderopacity="1.0"
     inkscape:pageopacity="0.0"
     inkscape:pageshadow="2"
     inkscape:zoom="3.959798"
     inkscape:cx="85.10006"
     inkscape:cy="3177.6318"
     inkscape:document-units="in"
     inkscape:current-layer="layer1"
     showgrid="false"
     inkscape:window-width="1536"
     inkscape:window-height="801"
     inkscape:window-x="-8"
     inkscape:window-y="-8"
     inkscape:window-maximized="1"
     units="in"
     showguides="false" />
  <metadata
     id="metadata7">
    <rdf:RDF>
      <cc:Work
         rdf:about="">
        <dc:format>image/svg+xml</dc:format>
        <dc:type
           rdf:resource="http://purl.org/dc/dcmitype/StillImage" />
        <dc:title />
      </cc:Work>
    </rdf:RDF>
  </metadata>
  <g
     inkscape:label="Layer 1"
     inkscape:groupmode="layer"
     id="layer1"
     transform="translate(0,2187.6379)">
    <path
       style="fill:#0000ff;fill-rule:evenodd;stroke:none;stroke-width:1.12606657px;stroke-linecap:butt;stroke-linejoin:miter;stroke-opacity:1"
       d="M 97.818359 9.9648438 C 96.197712 9.9536562 94.573966 9.9982156 92.953125 10.041016 C 63.381047 10.854616 38.943887 52.962706 39.986328 82.628906 C 39.646607 112.07771 65.55079 138.88183 95.083984 139.23633 C 123.94521 140.81033 151.57649 116.88502 154.00977 87.978516 C 157.86551 58.190116 132.49599 10.448309 102.66797 10.224609 C 101.05715 10.042359 99.439006 9.9760313 97.818359 9.9648438 z M 97.175781 17.865234 A 5.177032 5.177032 0 0 1 102.35352 23.042969 A 5.177032 5.177032 0 0 1 97.175781 28.220703 A 5.177032 5.177032 0 0 1 92 23.042969 A 5.177032 5.177032 0 0 1 97.175781 17.865234 z "
       transform="translate(0,-2187.6379)"
       id="circle3338" />
    <circle
       style="fill:none;fill-rule:evenodd;stroke:#000000;stroke-width:1.12606657px;stroke-linecap:butt;stroke-linejoin:miter;stroke-opacity:1"
       id="path3336"
       cx="97.154297"
       cy="-2105.5544"
       r="46.062992" />
  </g>
</svg>
