<?xml version="1.0" encoding="UTF-8" standalone="no"?>
<!-- Created with Inkscape (http://www.inkscape.org/) -->

<svg
   xmlns:dc="http://purl.org/dc/elements/1.1/"
   xmlns:cc="http://creativecommons.org/ns#"
   xmlns:rdf="http://www.w3.org/1999/02/22-rdf-syntax-ns#"
   xmlns:svg="http://www.w3.org/2000/svg"
   xmlns="http://www.w3.org/2000/svg"
   xmlns:sodipodi="http://sodipodi.sourceforge.net/DTD/sodipodi-0.dtd"
   xmlns:inkscape="http://www.inkscape.org/namespaces/inkscape"
   width="5in"
   height="5in"
   viewBox="0 0 450.00001 450.00001"
   id="svg2"
   version="1.1"
   inkscape:version="0.91 r13725"
   sodipodi:docname="card.circular.svg">
  <defs
     id="defs4" />
  <sodipodi:namedview
     id="base"
     pagecolor="#ffffff"
     bordercolor="#666666"
     borderopacity="1.0"
     inkscape:pageopacity="0.0"
     inkscape:pageshadow="2"
     inkscape:zoom="9.6405564"
     inkscape:cx="64.757597"
     inkscape:cy="423.52113"
     inkscape:document-units="in"
     inkscape:current-layer="layer1"
     showgrid="false"
     inkscape:window-width="1920"
     inkscape:window-height="1017"
     inkscape:window-x="-8"
     inkscape:window-y="-8"
     inkscape:window-maximized="1"
     units="in"
     showguides="false" />
  <metadata
     id="metadata7">
    <rdf:RDF>
      <cc:Work
         rdf:about="">
        <dc:format>image/svg+xml</dc:format>
        <dc:type
           rdf:resource="http://purl.org/dc/dcmitype/StillImage" />
        <dc:title></dc:title>
      </cc:Work>
    </rdf:RDF>
  </metadata>
  <g
     inkscape:label="Layer 1"
     inkscape:groupmode="layer"
     id="layer1"
     transform="translate(0,-602.3621)">
    <path
       style="fill:none;fill-rule:evenodd;stroke:#ffff00;stroke-width:1.12606657px;stroke-linecap:butt;stroke-linejoin:miter;stroke-opacity:1"
       d="m 61.782653,603.70128 c -1.68507,-0.011 -3.373322,0.035 -5.058596,0.08 -30.747644,0.8422 -56.15614586,44.4309 -55.0722649,75.1406 -0.353226,30.4846 26.5798949,58.2307 57.2871109,58.5977 30.00853,1.6294 58.737567,-23.1372 61.267587,-53.0606 4.009,-30.8361 -22.369057,-80.2566 -53.382827,-80.4882 -1.67485,-0.1886 -3.35594,-0.258 -5.04101,-0.2696 z"
       id="path4168" />
    <path
       style="fill:none;fill-rule:evenodd;stroke:#ffff00;stroke-width:1.37498045px;stroke-linecap:butt;stroke-linejoin:miter;stroke-opacity:1"
       d="m 47.145989,618.4902 27.937227,0 c 2.845931,0 11.671953,5.73312 11.671953,8.98912 l 0,6.92871 c 0,3.25601 -1.326471,6.16168 -3.581134,4.42507 -9.831051,-7.57218 -32.823609,-8.38938 -44.430051,0.10373 -2.296697,1.68063 -3.166219,-1.37652 -3.166219,-4.63253 l 0,-6.92871 c 0,-3.256 8.722293,-8.88539 11.568224,-8.88539 z"
       id="circle3338"
       inkscape:connector-curvature="0"
       sodipodi:nodetypes="sssssssss" />
    <path
       inkscape:connector-curvature="0"
       style="fill:none;fill-rule:evenodd;stroke:#ff0000;stroke-width:1.12606657px;stroke-linecap:butt;stroke-linejoin:miter;stroke-opacity:1"
       d="m 107.1776,680.36998 a 46.062992,46.062992 0 0 1 -46.062997,46.063 46.062992,46.062992 0 0 1 -46.062997,-46.063 46.062992,46.062992 0 0 1 46.062997,-46.063 46.062992,46.062992 0 0 1 46.062997,46.063 z"
       id="path3336" />
    <text
       xml:space="preserve"
       style="font-style:normal;font-weight:normal;font-size:61.87436295px;line-height:125%;font-family:sans-serif;letter-spacing:0px;word-spacing:0px;fill:#000000;fill-opacity:1;stroke:none;stroke-width:1px;stroke-linecap:butt;stroke-linejoin:miter;stroke-opacity:1"
       x="-81.205643"
       y="702.89301"
       id="text4143"
       sodipodi:linespacing="125%"
       transform="scale(-1,1)"><tspan
         sodipodi:role="line"
         id="tspan4145"
         x="-81.205643"
         y="702.89301">2</tspan></text>
    <flowRoot
       xml:space="preserve"
       id="flowRoot3337"
       style="fill:black;stroke:none;stroke-opacity:1;stroke-width:1px;stroke-linejoin:miter;stroke-linecap:butt;fill-opacity:1;font-family:sans-serif;font-style:normal;font-weight:normal;font-size:40px;line-height:125%;letter-spacing:0px;word-spacing:0px"><flowRegion
         id="flowRegion3339"><rect
           id="rect3341"
           width="193.63632"
           height="156.66939"
           x="-16.429749"
           y="-6.5123029" /></flowRegion><flowPara
         id="flowPara3343" /></flowRoot>  </g>
</svg>
