<?xml version="1.0" encoding="UTF-8" standalone="no"?>
<!-- Created with Inkscape (http://www.inkscape.org/) -->

<svg
   xmlns:dc="http://purl.org/dc/elements/1.1/"
   xmlns:cc="http://creativecommons.org/ns#"
   xmlns:rdf="http://www.w3.org/1999/02/22-rdf-syntax-ns#"
   xmlns:svg="http://www.w3.org/2000/svg"
   xmlns="http://www.w3.org/2000/svg"
   xmlns:sodipodi="http://sodipodi.sourceforge.net/DTD/sodipodi-0.dtd"
   xmlns:inkscape="http://www.inkscape.org/namespaces/inkscape"
   width="2.8in"
   height="1.2in"
   viewBox="0 0 251.99999 108.00001"
   id="svg2"
   version="1.1"
   inkscape:version="0.91 r13725"
   sodipodi:docname="card.svg">
  <defs
     id="defs4" />
  <sodipodi:namedview
     id="base"
     pagecolor="#ffffff"
     bordercolor="#666666"
     borderopacity="1.0"
     inkscape:pageopacity="0.0"
     inkscape:pageshadow="2"
     inkscape:zoom="3.6203867"
     inkscape:cx="115.38706"
     inkscape:cy="42.671192"
     inkscape:document-units="in"
     inkscape:current-layer="layer1"
     showgrid="false"
     units="in"
     inkscape:window-width="1536"
     inkscape:window-height="801"
     inkscape:window-x="-8"
     inkscape:window-y="-8"
     inkscape:window-maximized="1" />
  <metadata
     id="metadata7">
    <rdf:RDF>
      <cc:Work
         rdf:about="">
        <dc:format>image/svg+xml</dc:format>
        <dc:type
           rdf:resource="http://purl.org/dc/dcmitype/StillImage" />
        <dc:title></dc:title>
      </cc:Work>
    </rdf:RDF>
  </metadata>
  <g
     inkscape:label="Layer 1"
     inkscape:groupmode="layer"
     id="layer1"
     transform="translate(0,-944.36212)">
    <rect
       style="fill:#000000;stroke:none;stroke-width:1;stroke-miterlimit:4;stroke-dasharray:none;opacity:0.5"
       id="rect3336"
       width="144"
       height="90"
       x="8.9999905"
       y="953.36212"
       rx="5.4000001" />
    <path
       style="opacity:1;fill:none;stroke:#ff0000;stroke-width:1.15156901;stroke-miterlimit:4;stroke-dasharray:none"
       d="M 6.6074219 0.57617188 C 3.265796 0.57617188 0.57617188 3.2658023 0.57617188 6.6074219 L 0.57617188 101.39258 C 0.57617188 104.73428 3.265796 107.42383 6.6074219 107.42383 L 154.72852 107.42383 C 157.73584 107.99942 160.96133 107.11875 163.29883 104.78125 L 206.81055 61.271484 C 210.5618 57.520228 210.5618 51.479772 206.81055 47.728516 L 163.29883 4.2167969 C 162.04175 2.9597192 160.52658 2.1352683 158.92773 1.7207031 C 157.93504 1.0027832 156.71667 0.57617187 155.39258 0.57617188 L 6.6074219 0.57617188 z M 185.27148 45 A 9.0000005 9.0000005 0 0 1 194.27148 54 A 9.0000005 9.0000005 0 0 1 185.27148 63 A 9.0000005 9.0000005 0 0 1 176.27148 54 A 9.0000005 9.0000005 0 0 1 185.27148 45 z "
       transform="translate(-1.525879e-5,944.36212)"
       id="rect3336-1" />
  </g>
</svg>
