<?xml version="1.0" encoding="UTF-8" standalone="no"?>
<svg
   xmlns:dc="http://purl.org/dc/elements/1.1/"
   xmlns:cc="http://creativecommons.org/ns#"
   xmlns:rdf="http://www.w3.org/1999/02/22-rdf-syntax-ns#"
   xmlns:svg="http://www.w3.org/2000/svg"
   xmlns="http://www.w3.org/2000/svg"
   xmlns:sodipodi="http://sodipodi.sourceforge.net/DTD/sodipodi-0.dtd"
   xmlns:inkscape="http://www.inkscape.org/namespaces/inkscape"
   version="1.1"
   width="390.7mm"
   height="284.7mm"
   viewBox=" 0 0 1384.371217 1008.780357"
   id="svg3336"
   inkscape:version="0.91 r13725"
   sodipodi:docname="caseplans.svg">
  <metadata
     id="metadata3366">
    <rdf:RDF>
      <cc:Work
         rdf:about="">
        <dc:format>image/svg+xml</dc:format>
        <dc:type
           rdf:resource="http://purl.org/dc/dcmitype/StillImage" />
        <dc:title></dc:title>
      </cc:Work>
    </rdf:RDF>
  </metadata>
  <defs
     id="defs3364" />
  <sodipodi:namedview
     pagecolor="#ffffff"
     bordercolor="#666666"
     borderopacity="1"
     objecttolerance="10"
     gridtolerance="10"
     guidetolerance="10"
     inkscape:pageopacity="0"
     inkscape:pageshadow="2"
     inkscape:window-width="1536"
     inkscape:window-height="801"
     id="namedview3362"
     showgrid="false"
     inkscape:zoom="0.6264996"
     inkscape:cx="794.22237"
     inkscape:cy="404.93824"
     inkscape:window-x="-8"
     inkscape:window-y="-8"
     inkscape:window-maximized="1"
     inkscape:current-layer="svg3336" />
  <!-- Front-->
  <!-- Back-->
  <g
     transform="translate(327.2246785, 22.5000185) "
     id="g3342">
    <polygon
       style="stroke:#000000; fill:none; stroke-width:0.90000074"
       points="0, 0 65.551235, 0 65.551235, 10.62993 131.10247, 10.62993 131.10247, 0 173.62219000000002, 0 173.62219000000002, 10.62993 239.173425, 10.62993 239.173425, 0 304.72466, 0 304.72466, 46.771691999999994 294.09472999999997, 46.771691999999994 294.09472999999997, 93.54338399999999 304.72466, 93.54338399999999 304.72466, 140.31507599999998 294.09472999999997, 140.31507599999998 294.09472999999997, 187.08676799999998 304.72466, 187.08676799999998 304.72466000000003, 233.85846 239.173425, 233.85846 239.173425, 223.22853 173.62219000000002, 223.22853 173.62219000000002, 233.85846 131.10247, 233.85846 131.10247, 223.22853 65.551235, 223.22853 65.551235, 233.85846 0, 233.85845999999998 0, 187.08676799999998 10.62993, 187.08676799999998 10.62993, 140.31507599999998 0, 140.31507599999998 0, 93.54338399999999 10.62993, 93.54338399999999 10.62993, 46.771691999999994 0, 46.771691999999994 "
       id="polygon3344" />
  </g>
  <!-- Left-->
  <g
     transform="translate(631.9493385, 22.5000185) "
     id="g3346">
    <polygon
       style="stroke:#000000; fill:none; stroke-width:0.90000074"
       points="10.62993, 0 65.551235, 0 65.551235, 10.62993 131.10247, 10.62993 131.10247, 0 173.62219000000002, 0 173.62219000000002, 10.62993 216.14191, 10.62993 216.14191, 0 258.66163, 0 258.66163, 10.62993 301.18135, 10.62993 301.18135, 0 343.70107, 0 343.70107, 10.62993 386.22078999999997, 10.62993 386.22078999999997, 0 428.74051, 0 428.74051, 10.62993 471.26023, 10.62993 471.26023, 0 513.77995, 0 513.77995, 10.62993 556.29967, 10.62993 556.29967, 0 598.81939, 0 598.81939, 10.62993 664.370625, 10.62993 664.370625, 0 719.2919300000001, 0 719.2919300000001, 46.771691999999994 729.92186, 46.771691999999994 729.92186, 93.54338399999999 719.2919300000001, 93.54338399999999 719.2919300000001, 140.31507599999998 729.92186, 140.31507599999998 729.92186, 187.08676799999998 719.2919300000001, 187.08676799999998 719.2919300000001, 233.85846 664.370625, 233.85846 664.370625, 223.22853 598.81939, 223.22853 598.81939, 233.85846 556.29967, 233.85846 556.29967, 223.22853 513.77995, 223.22853 513.77995, 233.85846 471.26023, 233.85846 471.26023, 223.22853 428.74051, 223.22853 428.74051, 233.85846 386.22078999999997, 233.85846 386.22078999999997, 223.22853 343.70107, 223.22853 343.70107, 233.85846 301.18135, 233.85846 301.18135, 223.22853 258.66163, 223.22853 258.66163, 233.85846 216.14191, 233.85846 216.14191, 223.22853 173.62219000000002, 223.22853 173.62219000000002, 233.85846 131.10247, 233.85846 131.10247, 223.22853 65.551235, 223.22853 65.551235, 233.85846 10.62993, 233.85845999999998 10.62993, 187.08676799999998 0, 187.08676799999998 0, 140.31507599999998 10.62993, 140.31507599999998 10.62993, 93.54338399999999 0, 93.54338399999999 0, 46.771691999999994 10.62993, 46.771691999999994 "
       id="polygon3348" />
  </g>
  <!-- Right-->
  <g
     transform="translate(631.9493385, 256.3584785) "
     id="g3350">
    <polygon
       style="stroke:#000000; fill:none; stroke-width:0.90000074"
       points="10.62993, 0 65.551235, 0 65.551235, 10.62993 131.10247, 10.62993 131.10247, 0 173.62219000000002, 0 173.62219000000002, 10.62993 216.14191, 10.62993 216.14191, 0 258.66163, 0 258.66163, 10.62993 301.18135, 10.62993 301.18135, 0 343.70107, 0 343.70107, 10.62993 386.22078999999997, 10.62993 386.22078999999997, 0 428.74051, 0 428.74051, 10.62993 471.26023, 10.62993 471.26023, 0 513.77995, 0 513.77995, 10.62993 556.29967, 10.62993 556.29967, 0 598.81939, 0 598.81939, 10.62993 664.370625, 10.62993 664.370625, 0 719.2919300000001, 0 719.2919300000001, 46.771691999999994 729.92186, 46.771691999999994 729.92186, 93.54338399999999 719.2919300000001, 93.54338399999999 719.2919300000001, 140.31507599999998 729.92186, 140.31507599999998 729.92186, 187.08676799999998 719.2919300000001, 187.08676799999998 719.2919300000001, 233.85846 664.370625, 233.85846 664.370625, 223.22853 598.81939, 223.22853 598.81939, 233.85846 556.29967, 233.85846 556.29967, 223.22853 513.77995, 223.22853 513.77995, 233.85846 471.26023, 233.85846 471.26023, 223.22853 428.74051, 223.22853 428.74051, 233.85846 386.22078999999997, 233.85846 386.22078999999997, 223.22853 343.70107, 223.22853 343.70107, 233.85846 301.18135, 233.85846 301.18135, 223.22853 258.66163, 223.22853 258.66163, 233.85846 216.14191, 233.85846 216.14191, 223.22853 173.62219000000002, 223.22853 173.62219000000002, 233.85846 131.10247, 233.85846 131.10247, 223.22853 65.551235, 223.22853 65.551235, 233.85846 10.62993, 233.85845999999998 10.62993, 187.08676799999998 0, 187.08676799999998 0, 140.31507599999998 10.62993, 140.31507599999998 10.62993, 93.54338399999999 0, 93.54338399999999 0, 46.771691999999994 10.62993, 46.771691999999994 "
       id="polygon3352" />
  </g>
  <!-- Top-->
  <!-- Bottom-->
  <g
     transform="translate(327.2246785, 256.3584785) "
     id="g3358">
    <polygon
       style="stroke:#000000; fill:none; stroke-width:0.90000074"
       points="10.62993, 10.62993 65.551235, 10.62993 65.551235, 0 131.10247, 0 131.10247, 10.62993 173.62219000000002, 10.62993 173.62219000000002, 0 239.173425, 0 239.173425, 10.62993 294.09472999999997, 10.62993 294.09472999999997, 65.551235 304.72466, 65.551235 304.72466, 131.10247 294.09472999999997, 131.10247 294.09472999999997, 173.62219000000002 304.72466, 173.62219000000002 304.72466, 216.14191 294.09472999999997, 216.14191 294.09472999999997, 258.66163 304.72466, 258.66163 304.72466, 301.18135 294.09472999999997, 301.18135 294.09472999999997, 343.70107 304.72466, 343.70107 304.72466, 386.22078999999997 294.09472999999997, 386.22078999999997 294.09472999999997, 428.74051 304.72466, 428.74051 304.72466, 471.26023 294.09472999999997, 471.26023 294.09472999999997, 513.77995 304.72466, 513.77995 304.72466, 556.29967 294.09472999999997, 556.29967 294.09472999999997, 598.81939 304.72466, 598.81939 304.72466, 664.370625 294.09472999999997, 664.370625 294.09473, 719.2919300000001 239.173425, 719.2919300000001 239.173425, 729.92186 173.62219000000002, 729.92186 173.62219000000002, 719.2919300000001 131.10247, 719.2919300000001 131.10247, 729.92186 65.551235, 729.92186 65.551235, 719.2919300000001 10.62993, 719.2919300000001 10.62993, 664.370625 0, 664.370625 0, 598.81939 10.62993, 598.81939 10.62993, 556.29967 0, 556.29967 0, 513.77995 10.62993, 513.77995 10.62993, 471.26023 0, 471.26023 0, 428.74051 10.62993, 428.74051 10.62993, 386.22078999999997 0, 386.22078999999997 0, 343.70107 10.62993, 343.70107 10.62993, 301.18135 0, 301.18135 0, 258.66163 10.62993, 258.66163 10.62993, 216.14191 0, 216.14191 0, 173.62219000000002 10.62993, 173.62219000000002 10.62993, 131.10247 0, 131.10247 0, 65.551235 10.62993, 65.551235 "
       id="polygon3360" />
  </g>
  <g
     id="g3375">
    <g
       id="g3338"
       transform="translate(22.5000185, 22.5000185) ">
      <polygon
         id="polygon3340"
         points="0, 0 65.551235, 0 65.551235, 10.62993 131.10247, 10.62993 131.10247, 0 173.62219000000002, 0 173.62219000000002, 10.62993 239.173425, 10.62993 239.173425, 0 304.72466, 0 304.72466, 46.771691999999994 294.09472999999997, 46.771691999999994 294.09472999999997, 93.54338399999999 304.72466, 93.54338399999999 304.72466, 140.31507599999998 294.09472999999997, 140.31507599999998 294.09472999999997, 187.08676799999998 304.72466, 187.08676799999998 304.72466000000003, 233.85846 239.173425, 233.85846 239.173425, 223.22853 173.62219000000002, 223.22853 173.62219000000002, 233.85846 131.10247, 233.85846 131.10247, 223.22853 65.551235, 223.22853 65.551235, 233.85846 0, 233.85845999999998 0, 187.08676799999998 10.62993, 187.08676799999998 10.62993, 140.31507599999998 0, 140.31507599999998 0, 93.54338399999999 10.62993, 93.54338399999999 10.62993, 46.771691999999994 0, 46.771691999999994 "
         style="stroke:#000000; fill:none; stroke-width:0.90000074" />
    </g>
    <rect
       y="59.0956"
       x="165.59103"
       height="86.19326"
       width="134.0784"
       id="rect3368"
       style="opacity:1;fill:none;stroke:#000000;stroke-width:1;stroke-miterlimit:4;stroke-dasharray:none" />
  </g>
  <g
     id="g3384">
    <g
       id="g3354"
       transform="translate(22.5000185, 256.3584785) ">
      <polygon
         id="polygon3356"
         points="10.62993, 10.62993 65.551235, 10.62993 65.551235, 0 131.10247, 0 131.10247, 10.62993 173.62219000000002, 10.62993 173.62219000000002, 0 239.173425, 0 239.173425, 10.62993 294.09472999999997, 10.62993 294.09472999999997, 65.551235 304.72466, 65.551235 304.72466, 131.10247 294.09472999999997, 131.10247 294.09472999999997, 173.62219000000002 304.72466, 173.62219000000002 304.72466, 216.14191 294.09472999999997, 216.14191 294.09472999999997, 258.66163 304.72466, 258.66163 304.72466, 301.18135 294.09472999999997, 301.18135 294.09472999999997, 343.70107 304.72466, 343.70107 304.72466, 386.22078999999997 294.09472999999997, 386.22078999999997 294.09472999999997, 428.74051 304.72466, 428.74051 304.72466, 471.26023 294.09472999999997, 471.26023 294.09472999999997, 513.77995 304.72466, 513.77995 304.72466, 556.29967 294.09472999999997, 556.29967 294.09472999999997, 598.81939 304.72466, 598.81939 304.72466, 664.370625 294.09472999999997, 664.370625 294.09473, 719.2919300000001 239.173425, 719.2919300000001 239.173425, 729.92186 173.62219000000002, 729.92186 173.62219000000002, 719.2919300000001 131.10247, 719.2919300000001 131.10247, 729.92186 65.551235, 729.92186 65.551235, 719.2919300000001 10.62993, 719.2919300000001 10.62993, 664.370625 0, 664.370625 0, 598.81939 10.62993, 598.81939 10.62993, 556.29967 0, 556.29967 0, 513.77995 10.62993, 513.77995 10.62993, 471.26023 0, 471.26023 0, 428.74051 10.62993, 428.74051 10.62993, 386.22078999999997 0, 386.22078999999997 0, 343.70107 10.62993, 343.70107 10.62993, 301.18135 0, 301.18135 0, 258.66163 10.62993, 258.66163 10.62993, 216.14191 0, 216.14191 0, 173.62219000000002 10.62993, 173.62219000000002 10.62993, 131.10247 0, 131.10247 0, 65.551235 10.62993, 65.551235 "
         style="stroke:#000000; fill:none; stroke-width:0.90000074" />
    </g>
    <circle
       r="8.5428982"
       cy="642.63574"
       cx="272.46558"
       id="path3380"
       style="opacity:1;fill:none;stroke:#000000;stroke-width:0.63075316;stroke-miterlimit:4;stroke-dasharray:none" />
    <rect
       rx="20.452539"
       y="679.24878"
       x="87.993477"
       height="263.64401"
       width="173.73775"
       id="rect3382"
       style="opacity:1;fill:none;stroke:#ff0000;stroke-width:1.07644939;stroke-miterlimit:4;stroke-dasharray:none" />
  </g>
</svg>
