<?xml version="1.0" encoding="UTF-8" standalone="no"?>
<svg
   xmlns:dc="http://purl.org/dc/elements/1.1/"
   xmlns:cc="http://creativecommons.org/ns#"
   xmlns:rdf="http://www.w3.org/1999/02/22-rdf-syntax-ns#"
   xmlns:svg="http://www.w3.org/2000/svg"
   xmlns="http://www.w3.org/2000/svg"
   xmlns:sodipodi="http://sodipodi.sourceforge.net/DTD/sodipodi-0.dtd"
   xmlns:inkscape="http://www.inkscape.org/namespaces/inkscape"
   version="1.1"
   width="14.207999999999998in"
   height="7.272in"
   viewBox=" 0 0 1278.7199999999998 654.48"
   id="svg2"
   inkscape:version="0.91 r13725"
   sodipodi:docname="caseplans.svg">
  <metadata
     id="metadata32">
    <rdf:RDF>
      <cc:Work
         rdf:about="">
        <dc:format>image/svg+xml</dc:format>
        <dc:type
           rdf:resource="http://purl.org/dc/dcmitype/StillImage" />
        <dc:title />
      </cc:Work>
    </rdf:RDF>
  </metadata>
  <defs
     id="defs30" />
  <sodipodi:namedview
     pagecolor="#ffffff"
     bordercolor="#666666"
     borderopacity="1"
     objecttolerance="10"
     gridtolerance="10"
     guidetolerance="10"
     inkscape:pageopacity="0"
     inkscape:pageshadow="2"
     inkscape:window-width="1366"
     inkscape:window-height="705"
     id="namedview28"
     showgrid="false"
     inkscape:document-units="in"
     inkscape:zoom="1.8018018"
     inkscape:cx="208.04371"
     inkscape:cy="516.95308"
     inkscape:window-x="-8"
     inkscape:window-y="-8"
     inkscape:window-maximized="1"
     inkscape:current-layer="svg2" />
  <!-- Front-->
  <path
     style="fill:none;stroke:#000000;stroke-width:0.89999998"
     d="m 22.275391,22.5 c 0,9.720052 0,19.440104 0,29.160156 3.539713,0 7.079427,0 10.61914,0 0,9.494792 0,18.989584 0,28.484375 -3.539713,0 -7.079427,0 -10.61914,0 0,7.64974 0,15.299479 0,22.949219 3.539713,0 7.079427,0 10.61914,0 0,9.49544 0,18.99089 0,28.48633 -3.539713,0 -7.079427,0 -10.61914,0 0,9.79492 0,19.58984 0,29.38476 11.294922,0 22.589843,0 33.884765,0 0,-3.54036 0,-7.08073 0,-10.62109 10.994792,0 21.989584,0 32.984375,0 0,3.54036 0,7.08073 0,10.62109 7.64974,0 15.299479,0 22.949219,0 0,-3.54036 0,-7.08073 0,-10.62109 7.35026,0 14.70052,0 22.05078,0 0,3.54036 0,7.08073 0,10.62109 7.64974,0 15.29948,0 22.94922,0 0,-3.54036 0,-7.08073 0,-10.62109 7.35026,0 14.70052,0 22.05078,0 0,3.54036 0,7.08073 0,10.62109 7.64974,0 15.29948,0 22.94922,0 0,-3.54036 0,-7.08073 0,-10.62109 7.35026,0 14.70052,0 22.05078,0 0,3.54036 0,7.08073 0,10.62109 7.64974,0 15.29948,0 22.94922,0 0,-3.54036 0,-7.08073 0,-10.62109 7.35026,0 14.70052,0 22.05078,0 0,3.54036 0,7.08073 0,10.62109 7.64974,0 15.29948,0 22.94922,0 0,-3.54036 0,-7.08073 0,-10.62109 7.35026,0 14.70052,0 22.05078,0 0,3.54036 0,7.08073 0,10.62109 7.64974,0 15.29948,0 22.94922,0 0,-3.54036 0,-7.08073 0,-10.62109 10.99544,0 21.99089,0 32.98633,0 0,3.54036 0,7.08073 0,10.62109 11.29492,0 22.58984,0 33.88476,0 0,-9.79492 0,-19.58984 0,-29.38476 -3.54036,0 -7.08073,0 -10.62109,0 0,-9.49544 0,-18.99089 0,-28.48633 3.54036,0 7.08073,0 10.62109,0 0,-7.64974 0,-15.299479 0,-22.949219 -3.54036,0 -7.08073,0 -10.62109,0 0,-9.494791 0,-18.989583 0,-28.484375 3.54036,0 7.08073,0 10.62109,0 0,-9.794922 0,-19.589843 0,-29.384765 -11.29492,0 -22.58984,0 -33.88476,0 0,3.539713 0,7.079427 0,10.61914 -10.99544,0 -21.99089,0 -32.98633,0 0,-3.539713 0,-7.079427 0,-10.61914 -7.64974,0 -15.29948,0 -22.94922,0 0,3.539713 0,7.079427 0,10.61914 -7.35026,0 -14.70052,0 -22.05078,0 0,-3.539713 0,-7.079427 0,-10.61914 -7.64974,0 -15.29948,0 -22.94922,0 0,3.539713 0,7.079427 0,10.61914 -7.35026,0 -14.70052,0 -22.05078,0 0,-3.539713 0,-7.079427 0,-10.61914 -7.64974,0 -15.29948,0 -22.94922,0 0,3.539713 0,7.079427 0,10.61914 -7.35026,0 -14.70052,0 -22.05078,0 0,-3.539713 0,-7.079427 0,-10.61914 -7.64974,0 -15.29948,0 -22.94922,0 0,3.539713 0,7.079427 0,10.61914 -7.35026,0 -14.70052,0 -22.05078,0 0,-3.539713 0,-7.079427 0,-10.61914 -7.64974,0 -15.29948,0 -22.94922,0 0,3.539713 0,7.079427 0,10.61914 -7.35026,0 -14.70052,0 -22.05078,0 0,-3.539713 0,-7.079427 0,-10.61914 -7.64974,0 -15.299479,0 -22.949219,0 0,3.539713 0,7.079427 0,10.61914 -10.994791,0 -21.989583,0 -32.984375,0 0,-3.539713 0,-7.079427 0,-10.61914 -11.294922,0 -22.589843,0 -33.884765,0 l 0,0.224609 z"
     id="polygon6"
     inkscape:connector-curvature="0" />
  <!-- Back-->
  <path
     style="fill:none;stroke:#000000;stroke-width:0.89999998"
     d="m 403.51562,22.5 c 0,9.720052 10e-6,19.440104 0,29.160156 3.53972,0 7.07943,0 10.61915,0 0,9.494792 0,18.989584 0,28.484375 -3.53972,0 -7.07943,0 -10.61915,0 0,7.64974 10e-6,15.299479 0,22.949219 3.53972,0 7.07943,0 10.61915,0 0,9.49544 0,18.99089 0,28.48633 -3.53972,0 -7.07943,0 -10.61915,0 10e-6,9.79492 0,19.58984 0,29.38476 11.29493,0 22.58985,0 33.88477,0 0,-3.54036 0,-7.08073 0,-10.62109 10.99479,0 21.98958,0 32.98438,0 0,3.54036 0,7.08073 0,10.62109 7.64974,0 15.29947,0 22.94921,0 0,-3.54036 0,-7.08073 0,-10.62109 7.35026,0 14.70053,0 22.05079,0 0,3.54036 0,7.08073 0,10.62109 7.64974,0 15.29947,0 22.94921,0 0,-3.54036 0,-7.08073 0,-10.62109 7.35026,0 14.70053,0 22.05079,0 0,3.54036 0,7.08073 0,10.62109 7.64974,0 15.29947,0 22.94921,0 0,-3.54036 0,-7.08073 0,-10.62109 7.35026,0 14.70053,0 22.05079,0 0,3.54036 0,7.08073 0,10.62109 7.64974,0 15.29947,0 22.94921,0 0,-3.54036 0,-7.08073 0,-10.62109 7.35026,0 14.70053,0 22.05079,0 0,3.54036 0,7.08073 0,10.62109 7.64974,0 15.29947,0 22.94921,0 0,-3.54036 0,-7.08073 0,-10.62109 7.35026,0 14.70053,0 22.05079,0 0,3.54036 0,7.08073 0,10.62109 7.64974,0 15.29947,0 22.94921,0 0,-3.54036 0,-7.08073 0,-10.62109 10.99545,0 21.99089,0 32.98633,0 0,3.54036 0,7.08073 0,10.62109 11.29492,0 22.58985,0 33.88477,0 0,-9.79492 0,-19.58984 0,-29.38476 -3.54037,0 -7.08073,0 -10.6211,0 0,-9.49544 0,-18.99089 0,-28.48633 3.54037,0 7.08073,0 10.6211,0 0,-7.64974 0,-15.299479 0,-22.949219 -3.54037,0 -7.08073,0 -10.6211,0 0,-9.494791 0,-18.989583 0,-28.484375 3.54037,0 7.08073,0 10.6211,0 0,-9.794922 0,-19.589843 0,-29.384765 -11.29492,0 -22.58985,0 -33.88477,0 0,3.539713 0,7.079427 0,10.61914 -10.99544,0 -21.99088,0 -32.98633,0 0,-3.539713 0,-7.079427 0,-10.61914 -7.64974,0 -15.29947,0 -22.94921,0 0,3.539713 0,7.079427 0,10.61914 -7.35026,0 -14.70053,0 -22.05079,0 0,-3.539713 0,-7.079427 0,-10.61914 -7.64974,0 -15.29947,0 -22.94921,0 0,3.539713 0,7.079427 0,10.61914 -7.35026,0 -14.70053,0 -22.05079,0 0,-3.539713 0,-7.079427 0,-10.61914 -7.64974,0 -15.29947,0 -22.94921,0 0,3.539713 0,7.079427 0,10.61914 -7.35026,0 -14.70053,0 -22.05079,0 0,-3.539713 0,-7.079427 0,-10.61914 -7.64974,0 -15.29947,0 -22.94921,0 0,3.539713 0,7.079427 0,10.61914 -7.35026,0 -14.70053,0 -22.05079,0 0,-3.539713 0,-7.079427 0,-10.61914 -7.64974,0 -15.29947,0 -22.94921,0 0,3.539713 0,7.079427 0,10.61914 -7.35026,0 -14.70053,0 -22.05079,0 0,-3.539713 0,-7.079427 0,-10.61914 -7.64974,0 -15.29947,0 -22.94921,0 0,3.539713 0,7.079427 0,10.61914 -10.9948,0 -21.98959,0 -32.98438,0 0,-3.539713 0,-7.079427 0,-10.61914 -11.29492,0 -22.58984,0 -33.88477,0 l 0,0.224609 z"
     id="polygon10"
     inkscape:connector-curvature="0" />
  <!-- Left-->
  <path
     style="fill:none;stroke:#000000;stroke-width:0.89999998"
     d="m 795.375,22.5 c 0,9.570312 0,19.140625 0,28.710938 -3.53971,0 -7.07943,-10e-7 -10.61914,0 0,9.79427 0,19.588541 0,29.382812 3.53971,0 7.07943,0 10.61914,0 0,7.35026 0,14.700521 0,22.05078 -3.53971,0 -7.07943,0 -10.61914,0 0,9.79492 0,19.58984 0,29.38477 3.53971,0 7.07943,0 10.61914,0 0,9.64518 0,19.29036 0,28.93554 7.75456,0 15.50911,0 23.26367,0 0,-3.54036 0,-7.08073 0,-10.62109 10.99544,0 21.99089,0 32.98633,0 0,3.54036 0,7.08073 0,10.62109 7.64974,0 15.29948,0 22.94922,0 0,-3.54036 0,-7.08073 0,-10.62109 7.35026,0 14.70052,0 22.05078,0 0,3.54036 0,7.08073 0,10.62109 7.64974,0 15.29948,0 22.94922,0 0,-3.54036 0,-7.08073 0,-10.62109 7.35026,0 14.70052,0 22.05078,0 0,3.54036 0,7.08073 0,10.62109 7.64974,0 15.29948,0 22.94922,0 0,-3.54036 0,-7.08073 0,-10.62109 7.35026,0 14.70052,0 22.05078,0 0,3.54036 0,7.08073 0,10.62109 7.64974,0 15.2995,0 22.9492,0 0,-3.54036 0,-7.08073 0,-10.62109 7.3503,0 14.7005,0 22.0508,0 0,3.54036 0,7.08073 0,10.62109 7.6497,0 15.2995,0 22.9492,0 0,-3.54036 0,-7.08073 0,-10.62109 7.3503,0 14.7005,0 22.0508,0 0,3.54036 0,7.08073 0,10.62109 7.6497,0 15.2995,0 22.9492,0 0,-3.54036 0,-7.08073 0,-10.62109 7.3503,0 14.7005,0 22.0508,0 0,3.54036 0,7.08073 0,10.62109 7.6497,0 15.2995,0 22.9492,0 0,-3.54036 0,-7.08073 0,-10.62109 7.3503,0 14.7005,0 22.0508,0 0,3.54036 0,7.08073 0,10.62109 7.6497,0 15.2995,0 22.9492,0 0,-3.54036 0,-7.08073 0,-10.62109 10.9955,0 21.9909,0 32.9863,0 0,3.54036 0,7.08073 0,10.62109 7.7546,0 15.5092,0 23.2637,0 0,-9.64518 0,-19.29036 0,-28.93554 3.5404,0 7.0807,0 10.6211,0 0,-9.79492 0,-19.58985 0,-29.38477 -3.5404,0 -7.0807,0 -10.6211,0 0,-7.350259 0,-14.70052 0,-22.05078 3.5404,0 7.0807,0 10.6211,0 0,-9.794271 0,-19.588542 0,-29.382812 -3.5404,0 -7.0807,-10e-7 -10.6211,0 0,-9.645183 0,-19.290365 0,-28.935547 -7.7545,0 -15.5091,0 -23.2637,0 0,3.539713 0,7.079427 0,10.61914 -10.9954,0 -21.9908,0 -32.9863,0 0,-3.539713 0,-7.079427 0,-10.61914 -7.6497,0 -15.2995,0 -22.9492,0 0,3.539713 0,7.079427 0,10.61914 -7.3503,0 -14.7005,0 -22.0508,0 0,-3.539713 0,-7.079427 0,-10.61914 -7.6497,0 -15.2995,0 -22.9492,0 0,3.539713 0,7.079427 0,10.61914 -7.3503,0 -14.7005,0 -22.0508,0 0,-3.539713 0,-7.079427 0,-10.61914 -7.6497,0 -15.2995,0 -22.9492,0 0,3.539713 0,7.079427 0,10.61914 -7.3503,0 -14.7005,0 -22.0508,0 0,-3.539713 0,-7.079427 0,-10.61914 -7.6497,0 -15.2995,0 -22.9492,0 0,3.539713 0,7.079427 0,10.61914 -7.3503,0 -14.7005,0 -22.0508,0 0,-3.539713 0,-7.079427 0,-10.61914 -7.6497,0 -15.29946,0 -22.9492,0 0,3.539713 0,7.079427 0,10.61914 -7.35026,0 -14.70052,0 -22.05078,0 0,-3.539713 0,-7.079427 0,-10.61914 -7.64974,0 -15.29948,0 -22.94922,0 0,3.539713 0,7.079427 0,10.61914 -7.35026,0 -14.70052,0 -22.05078,0 0,-3.539713 0,-7.079427 0,-10.61914 -7.64974,0 -15.29948,0 -22.94922,0 0,3.539713 0,7.079427 0,10.61914 -7.35026,0 -14.70052,0 -22.05078,0 0,-3.539713 0,-7.079427 0,-10.61914 -7.64974,0 -15.29948,0 -22.94922,0 0,3.539713 0,7.079427 0,10.61914 -10.99544,0 -21.99089,0 -32.98633,0 0,-3.539713 0,-7.079427 0,-10.61914 -7.75456,0 -15.50911,0 -23.26367,0 l 0,0.224609 z"
     id="polygon14"
     inkscape:connector-curvature="0" />
  <!-- Right-->
  <path
     style="fill:none;stroke:#000000;stroke-width:0.89999998"
     d="m 795.375,160.74023 c 0,9.57032 0,19.14063 0,28.71094 -3.53971,0 -7.07943,0 -10.61914,0 0,9.79427 0,19.58854 0,29.38281 3.53971,0 7.07943,0 10.61914,0 0,7.35026 0,14.70053 0,22.05079 -3.53971,0 -7.07943,0 -10.61914,0 0,9.79492 0,19.58984 0,29.38476 3.53971,0 7.07943,0 10.61914,0 0,9.64518 0,19.29037 0,28.93555 7.75456,0 15.50911,0 23.26367,0 0,-3.54037 0,-7.08073 0,-10.6211 10.99544,0 21.99089,0 32.98633,0 0,3.54037 0,7.08073 0,10.6211 7.64974,0 15.29948,0 22.94922,0 0,-3.54037 0,-7.08073 0,-10.6211 7.35026,0 14.70052,0 22.05078,0 0,3.54037 0,7.08073 0,10.6211 7.64974,0 15.29948,0 22.94922,0 0,-3.54037 0,-7.08073 0,-10.6211 7.35026,0 14.70052,0 22.05078,0 0,3.54037 0,7.08073 0,10.6211 7.64974,0 15.29948,0 22.94922,0 0,-3.54037 0,-7.08073 0,-10.6211 7.35026,0 14.70052,0 22.05078,0 0,3.54037 0,7.08073 0,10.6211 7.64974,0 15.2995,0 22.9492,0 0,-3.54037 0,-7.08073 0,-10.6211 7.3503,0 14.7005,0 22.0508,0 0,3.54037 0,7.08073 0,10.6211 7.6497,0 15.2995,0 22.9492,0 0,-3.54037 0,-7.08073 0,-10.6211 7.3503,0 14.7005,0 22.0508,0 0,3.54037 0,7.08073 0,10.6211 7.6497,0 15.2995,0 22.9492,0 0,-3.54037 0,-7.08073 0,-10.6211 7.3503,0 14.7005,0 22.0508,0 0,3.54037 0,7.08073 0,10.6211 7.6497,0 15.2995,0 22.9492,0 0,-3.54037 0,-7.08073 0,-10.6211 7.3503,0 14.7005,0 22.0508,0 0,3.54037 0,7.08073 0,10.6211 7.6497,0 15.2995,0 22.9492,0 0,-3.54037 0,-7.08073 0,-10.6211 10.9955,0 21.9909,0 32.9863,0 0,3.54037 0,7.08073 0,10.6211 7.7546,0 15.5092,0 23.2637,0 0,-9.64518 0,-19.29037 0,-28.93555 3.5404,0 7.0807,0 10.6211,0 0,-9.79492 0,-19.58984 0,-29.38476 -3.5404,0 -7.0807,0 -10.6211,0 0,-7.35026 0,-14.70053 0,-22.05079 3.5404,0 7.0807,0 10.6211,0 0,-9.79427 0,-19.58854 0,-29.38281 -3.5404,0 -7.0807,0 -10.6211,0 0,-9.64518 0,-19.29036 0,-28.93555 -7.7545,0 -15.5091,10e-6 -23.2637,0 0,3.53972 0,7.07943 0,10.61915 -10.9954,0 -21.9908,0 -32.9863,0 0,-3.53972 0,-7.07943 0,-10.61915 -7.6497,0 -15.2995,0 -22.9492,0 0,3.53972 0,7.07943 0,10.61915 -7.3503,0 -14.7005,0 -22.0508,0 0,-3.53972 0,-7.07943 0,-10.61915 -7.6497,0 -15.2995,0 -22.9492,0 0,3.53972 0,7.07943 0,10.61915 -7.3503,0 -14.7005,0 -22.0508,0 0,-3.53972 0,-7.07943 0,-10.61915 -7.6497,0 -15.2995,0 -22.9492,0 0,3.53972 0,7.07943 0,10.61915 -7.3503,0 -14.7005,0 -22.0508,0 0,-3.53972 0,-7.07943 0,-10.61915 -7.6497,0 -15.2995,0 -22.9492,0 0,3.53972 0,7.07943 0,10.61915 -7.3503,0 -14.7005,0 -22.0508,0 0,-3.53972 0,-7.07943 0,-10.61915 -7.6497,0 -15.29946,0 -22.9492,0 0,3.53972 0,7.07943 0,10.61915 -7.35026,0 -14.70052,0 -22.05078,0 0,-3.53972 0,-7.07943 0,-10.61915 -7.64974,0 -15.29948,0 -22.94922,0 0,3.53972 0,7.07943 0,10.61915 -7.35026,0 -14.70052,0 -22.05078,0 0,-3.53972 0,-7.07943 0,-10.61915 -7.64974,0 -15.29948,0 -22.94922,0 0,3.53972 0,7.07943 0,10.61915 -7.35026,0 -14.70052,0 -22.05078,0 0,-3.53972 0,-7.07943 0,-10.61915 -7.64974,0 -15.29948,0 -22.94922,0 0,3.53972 0,7.07943 0,10.61915 -10.99544,0 -21.99089,0 -32.98633,0 0,-3.53972 0,-7.07943 0,-10.61915 -7.75456,0 -15.50911,10e-6 -23.26367,0 l 0,0.22461 z"
     id="polygon18"
     inkscape:connector-curvature="0" />
  <!-- Top-->
  <path
     style="fill:none;stroke:#000000;stroke-width:0.89999998"
     d="m 55.710938,160.74023 c -10e-7,3.46485 0,6.92969 0,10.39454 -7.605469,0 -15.210938,0 -22.816407,0 0,7.60546 0,15.21093 0,22.8164 -3.539713,0 -7.079427,0 -10.61914,0 0,11.29427 0,22.58854 0,33.88281 3.539713,0 7.079427,0 10.61914,0 0,7.35026 0,14.70053 0,22.05079 -3.539713,0 -7.079427,0 -10.61914,0 0,7.64974 0,15.29947 0,22.94921 3.539713,0 7.079427,0 10.61914,0 0,7.35026 0,14.70053 0,22.05079 -3.539713,0 -7.079427,0 -10.61914,0 0,7.64974 0,15.29947 0,22.94921 3.539713,0 7.079427,0 10.61914,0 0,7.35026 0,14.70053 0,22.05079 -3.539713,0 -7.079427,0 -10.61914,0 0,7.64974 0,15.29947 0,22.94921 3.539713,0 7.079427,0 10.61914,0 0,7.35026 0,14.70053 0,22.05079 -3.539713,0 -7.079427,0 -10.61914,0 0,7.64974 0,15.29947 0,22.94921 3.539713,0 7.079427,0 10.61914,0 0,7.35026 0,14.70053 0,22.05079 -3.539713,0 -7.079427,0 -10.61914,0 0,7.64974 0,15.29947 0,22.94921 3.539713,0 7.079427,0 10.61914,0 0,7.35026 0,14.70053 0,22.05079 -3.539713,0 -7.079427,0 -10.61914,0 0,7.64974 0,15.29947 0,22.94921 3.539713,0 7.079427,0 10.61914,0 0,7.35026 0,14.70053 0,22.05079 -3.539713,0 -7.079427,0 -10.61914,0 0,7.64974 0,15.29947 0,22.94921 3.539713,0 7.079427,0 10.61914,0 0,7.35026 0,14.70053 0,22.05079 -3.539713,0 -7.079427,0 -10.61914,0 0,11.29492 0,22.58984 0,33.88476 3.539713,0 7.079427,0 10.61914,0 0,7.60482 0,15.20964 0,22.81445 7.605469,0 15.210938,0 22.816407,0 0,3.54037 -10e-7,7.08073 0,10.6211 11.29427,0 22.588541,0 33.882812,0 0,-3.54037 0,-7.08073 0,-10.6211 7.35026,0 14.70052,0 22.05078,0 0,3.54037 0,7.08073 0,10.6211 7.64974,0 15.29948,0 22.94922,0 0,-3.54037 0,-7.08073 0,-10.6211 7.35026,0 14.70052,0 22.05078,0 0,3.54037 0,7.08073 0,10.6211 7.64974,0 15.29948,0 22.94922,0 0,-3.54037 0,-7.08073 0,-10.6211 7.35026,0 14.70052,0 22.05078,0 0,3.54037 0,7.08073 0,10.6211 7.64974,0 15.29948,0 22.94922,0 0,-3.54037 0,-7.08073 0,-10.6211 7.35026,0 14.70052,0 22.05078,0 0,3.54037 0,7.08073 0,10.6211 7.64974,0 15.29948,0 22.94922,0 0,-3.54037 0,-7.08073 0,-10.6211 7.35026,0 14.70052,0 22.05078,0 0,3.54037 0,7.08073 0,10.6211 7.64974,0 15.29948,0 22.94922,0 0,-3.54037 0,-7.08073 0,-10.6211 7.35026,0 14.70052,0 22.05078,0 0,3.54037 0,7.08073 0,10.6211 11.29492,0 22.58985,0 33.88477,0 0,-3.54037 0,-7.08073 0,-10.6211 7.60481,0 15.20963,0 22.81445,0 0,-7.60481 0,-15.20963 0,-22.81445 3.54036,0 7.08073,0 10.62109,0 0,-11.29492 0,-22.58984 0,-33.88476 -3.54036,0 -7.08073,0 -10.62109,0 0,-7.35026 0,-14.70053 0,-22.05079 3.54036,0 7.08073,0 10.62109,0 0,-7.64974 0,-15.29947 0,-22.94921 -3.54036,0 -7.08073,0 -10.62109,0 0,-7.35026 0,-14.70053 0,-22.05079 3.54036,0 7.08073,0 10.62109,0 0,-7.64974 0,-15.29947 0,-22.94921 -3.54036,0 -7.08073,0 -10.62109,0 0,-7.35026 0,-14.70053 0,-22.05079 3.54036,0 7.08073,0 10.62109,0 0,-7.64974 0,-15.29947 0,-22.94921 -3.54036,0 -7.08073,0 -10.62109,0 0,-7.35026 0,-14.70053 0,-22.05079 3.54036,0 7.08073,0 10.62109,0 0,-7.64974 0,-15.29947 0,-22.94921 -3.54036,0 -7.08073,0 -10.62109,0 0,-7.35026 0,-14.70053 0,-22.05079 3.54036,0 7.08073,0 10.62109,0 0,-7.64974 0,-15.29947 0,-22.94921 -3.54036,0 -7.08073,0 -10.62109,0 0,-7.35026 0,-14.70053 0,-22.05079 3.54036,0 7.08073,0 10.62109,0 0,-7.64974 0,-15.29947 0,-22.94921 -3.54036,0 -7.08073,0 -10.62109,0 0,-7.35026 0,-14.70053 0,-22.05079 3.54036,0 7.08073,0 10.62109,0 0,-7.64974 0,-15.29947 0,-22.94921 -3.54036,0 -7.08073,0 -10.62109,0 0,-7.35026 0,-14.70053 0,-22.05079 3.54036,0 7.08073,0 10.62109,0 0,-11.29427 0,-22.58854 0,-33.88281 -3.54036,0 -7.08073,0 -10.62109,0 0,-7.60547 0,-15.21094 0,-22.8164 -7.60482,0 -15.20964,0 -22.81445,0 0,-3.53972 0,-7.07943 0,-10.61915 -11.29493,10e-6 -22.58985,0 -33.88477,0 0,3.53972 0,7.07943 0,10.61915 -7.35026,0 -14.70052,0 -22.05078,0 0,-3.53972 0,-7.07943 0,-10.61915 -7.64974,0 -15.29948,0 -22.94922,0 0,3.53972 0,7.07943 0,10.61915 -7.35026,0 -14.70052,0 -22.05078,0 0,-3.53972 0,-7.07943 0,-10.61915 -7.64974,0 -15.29948,0 -22.94922,0 0,3.53972 0,7.07943 0,10.61915 -7.35026,0 -14.70052,0 -22.05078,0 0,-3.53972 0,-7.07943 0,-10.61915 -7.64974,0 -15.29948,0 -22.94922,0 0,3.53972 0,7.07943 0,10.61915 -7.35026,0 -14.70052,0 -22.05078,0 0,-3.53972 0,-7.07943 0,-10.61915 -7.64974,0 -15.29948,0 -22.94922,0 0,3.53972 0,7.07943 0,10.61915 -7.35026,0 -14.70052,0 -22.05078,0 0,-3.53972 0,-7.07943 0,-10.61915 -7.64974,0 -15.29948,0 -22.94922,0 0,3.53972 0,7.07943 0,10.61915 -7.35026,0 -14.70052,0 -22.05078,0 0,-3.53972 0,-7.07943 0,-10.61915 -11.294271,0 -22.588542,0 -33.882812,0 l 0,0.22461 z"
     id="polygon22"
     inkscape:connector-curvature="0" />
  <!-- Bottom-->
  <path
     style="fill:none;stroke:#000000;stroke-width:0.89999998"
     d="m 436.95117,160.74023 c 0,3.46485 0,6.92969 0,10.39454 -7.60547,0 -15.21094,0 -22.8164,0 0,7.60546 0,15.21093 0,22.8164 -3.53972,0 -7.07943,0 -10.61915,0 0,11.29427 10e-6,22.58854 0,33.88281 3.53972,0 7.07943,0 10.61915,0 0,7.35026 0,14.70053 0,22.05079 -3.53972,0 -7.07943,0 -10.61915,0 0,7.64974 10e-6,15.29947 0,22.94921 3.53972,0 7.07943,0 10.61915,0 0,7.35026 0,14.70053 0,22.05079 -3.53972,0 -7.07943,0 -10.61915,0 0,7.64974 10e-6,15.29947 0,22.94921 3.53972,0 7.07943,0 10.61915,0 0,7.35026 0,14.70053 0,22.05079 -3.53972,0 -7.07943,0 -10.61915,0 0,7.64974 10e-6,15.29947 0,22.94921 3.53972,0 7.07943,0 10.61915,0 0,7.35026 0,14.70053 0,22.05079 -3.53972,0 -7.07943,0 -10.61915,0 0,7.64974 10e-6,15.29947 0,22.94921 3.53972,0 7.07943,0 10.61915,0 0,7.35026 0,14.70053 0,22.05079 -3.53972,0 -7.07943,0 -10.61915,0 0,7.64974 10e-6,15.29947 0,22.94921 3.53972,0 7.07943,0 10.61915,0 0,7.35026 0,14.70053 0,22.05079 -3.53972,0 -7.07943,0 -10.61915,0 0,7.64974 10e-6,15.29947 0,22.94921 3.53972,0 7.07943,0 10.61915,0 0,7.35026 0,14.70053 0,22.05079 -3.53972,0 -7.07943,0 -10.61915,0 0,7.64974 10e-6,15.29947 0,22.94921 3.53972,0 7.07943,0 10.61915,0 0,7.35026 0,14.70053 0,22.05079 -3.53972,0 -7.07943,0 -10.61915,0 0,11.29492 10e-6,22.58984 0,33.88476 3.53972,0 7.07943,0 10.61915,0 0,7.60482 0,15.20964 0,22.81445 7.60546,0 15.21093,0 22.8164,0 0,3.54037 0,7.08073 0,10.6211 11.29427,0 22.58854,0 33.88281,0 0,-3.54037 0,-7.08073 0,-10.6211 7.35026,0 14.70053,0 22.05079,0 0,3.54037 0,7.08073 0,10.6211 7.64974,0 15.29947,0 22.94921,0 0,-3.54037 0,-7.08073 0,-10.6211 7.35026,0 14.70053,0 22.05079,0 0,3.54037 0,7.08073 0,10.6211 7.64974,0 15.29947,0 22.94921,0 0,-3.54037 0,-7.08073 0,-10.6211 7.35026,0 14.70053,0 22.05079,0 0,3.54037 0,7.08073 0,10.6211 7.64974,0 15.29947,0 22.94921,0 0,-3.54037 0,-7.08073 0,-10.6211 7.35026,0 14.70053,0 22.05079,0 0,3.54037 0,7.08073 0,10.6211 7.64974,0 15.29947,0 22.94921,0 0,-3.54037 0,-7.08073 0,-10.6211 7.35026,0 14.70053,0 22.05079,0 0,3.54037 0,7.08073 0,10.6211 7.64974,0 15.29947,0 22.94921,0 0,-3.54037 0,-7.08073 0,-10.6211 7.35026,0 14.70053,0 22.05079,0 0,3.54037 0,7.08073 0,10.6211 11.29492,0 22.58984,0 33.88476,0 0,-3.54037 0,-7.08073 0,-10.6211 7.60482,0 15.20964,0 22.81445,0 0,-7.60481 0,-15.20963 0,-22.81445 3.54037,0 7.08073,0 10.6211,0 0,-11.29492 0,-22.58984 0,-33.88476 -3.54037,0 -7.08073,0 -10.6211,0 0,-7.35026 0,-14.70053 0,-22.05079 3.54037,0 7.08073,0 10.6211,0 0,-7.64974 0,-15.29947 0,-22.94921 -3.54037,0 -7.08073,0 -10.6211,0 0,-7.35026 0,-14.70053 0,-22.05079 3.54037,0 7.08073,0 10.6211,0 0,-7.64974 0,-15.29947 0,-22.94921 -3.54037,0 -7.08073,0 -10.6211,0 0,-7.35026 0,-14.70053 0,-22.05079 3.54037,0 7.08073,0 10.6211,0 0,-7.64974 0,-15.29947 0,-22.94921 -3.54037,0 -7.08073,0 -10.6211,0 0,-7.35026 0,-14.70053 0,-22.05079 3.54037,0 7.08073,0 10.6211,0 0,-7.64974 0,-15.29947 0,-22.94921 -3.54037,0 -7.08073,0 -10.6211,0 0,-7.35026 0,-14.70053 0,-22.05079 3.54037,0 7.08073,0 10.6211,0 0,-7.64974 0,-15.29947 0,-22.94921 -3.54037,0 -7.08073,0 -10.6211,0 0,-7.35026 0,-14.70053 0,-22.05079 3.54037,0 7.08073,0 10.6211,0 0,-7.64974 0,-15.29947 0,-22.94921 -3.54037,0 -7.08073,0 -10.6211,0 0,-7.35026 0,-14.70053 0,-22.05079 3.54037,0 7.08073,0 10.6211,0 0,-7.64974 0,-15.29947 0,-22.94921 -3.54037,0 -7.08073,0 -10.6211,0 0,-7.35026 0,-14.70053 0,-22.05079 3.54037,0 7.08073,0 10.6211,0 0,-11.29427 0,-22.58854 0,-33.88281 -3.54037,0 -7.08073,0 -10.6211,0 0,-7.60547 0,-15.21094 0,-22.8164 -7.60481,0 -15.20963,0 -22.81445,0 0,-3.53972 0,-7.07943 0,-10.61915 -11.29492,10e-6 -22.58984,0 -33.88476,0 0,3.53972 0,7.07943 0,10.61915 -7.35026,0 -14.70053,0 -22.05079,0 0,-3.53972 0,-7.07943 0,-10.61915 -7.64974,0 -15.29947,0 -22.94921,0 0,3.53972 0,7.07943 0,10.61915 -7.35026,0 -14.70053,0 -22.05079,0 0,-3.53972 0,-7.07943 0,-10.61915 -7.64974,0 -15.29947,0 -22.94921,0 0,3.53972 0,7.07943 0,10.61915 -7.35026,0 -14.70053,0 -22.05079,0 0,-3.53972 0,-7.07943 0,-10.61915 -7.64974,0 -15.29947,0 -22.94921,0 0,3.53972 0,7.07943 0,10.61915 -7.35026,0 -14.70053,0 -22.05079,0 0,-3.53972 0,-7.07943 0,-10.61915 -7.64974,0 -15.29947,0 -22.94921,0 0,3.53972 0,7.07943 0,10.61915 -7.35026,0 -14.70053,0 -22.05079,0 0,-3.53972 0,-7.07943 0,-10.61915 -7.64974,0 -15.29947,0 -22.94921,0 0,3.53972 0,7.07943 0,10.61915 -7.35026,0 -14.70053,0 -22.05079,0 0,-3.53972 0,-7.07943 0,-10.61915 -11.29427,0 -22.58854,0 -33.88281,0 l 0,0.22461 z"
     id="polygon26"
     inkscape:connector-curvature="0" />
  <path
     style="opacity:1;fill:none;stroke:#000000;stroke-width:0.99000001;stroke-miterlimit:4;stroke-dasharray:none"
     d="m 318.375,96.974985 45,0 0,42.300005 -45,0 z"
     id="rect4160"
     inkscape:connector-curvature="0" />
  <g
     id="g4186"
     transform="translate(-10.584443,7.5468788)">
    <path
       inkscape:connector-curvature="0"
       id="path4162"
       d="m 89.807007,51.009023 a 18.209595,18.209595 0 0 1 -18.209594,18.20959 18.209595,18.209595 0 0 1 -18.209595,-18.20959 18.209595,18.209595 0 0 1 18.209595,-18.2096 18.209595,18.209595 0 0 1 18.209594,18.2096 z"
       style="opacity:1;fill:none;stroke:#000000;stroke-width:1.02081013;stroke-miterlimit:4;stroke-dasharray:none" />
    <path
       inkscape:connector-curvature="0"
       id="rect4164"
       d="m 119.30306,36.204023 71.28,0 0,29.61001 -71.28,0 z"
       style="opacity:1;fill:none;stroke:#000000;stroke-width:0.99000001;stroke-miterlimit:4;stroke-dasharray:none" />
  </g>
</svg>
