<?xml version="1.0" encoding="UTF-8" standalone="no"?>
<svg
   xmlns:dc="http://purl.org/dc/elements/1.1/"
   xmlns:cc="http://creativecommons.org/ns#"
   xmlns:rdf="http://www.w3.org/1999/02/22-rdf-syntax-ns#"
   xmlns:svg="http://www.w3.org/2000/svg"
   xmlns="http://www.w3.org/2000/svg"
   xmlns:sodipodi="http://sodipodi.sourceforge.net/DTD/sodipodi-0.dtd"
   xmlns:inkscape="http://www.inkscape.org/namespaces/inkscape"
   version="1.1"
   width="14.207999999999998in"
   height="7.272in"
   viewBox=" 0 0 1278.7199999999998 654.48"
   id="svg2"
   inkscape:version="0.91 r13725"
   sodipodi:docname="caseplans.svg">
  <metadata
     id="metadata32">
    <rdf:RDF>
      <cc:Work
         rdf:about="">
        <dc:format>image/svg+xml</dc:format>
        <dc:type
           rdf:resource="http://purl.org/dc/dcmitype/StillImage" />
        <dc:title />
      </cc:Work>
    </rdf:RDF>
  </metadata>
  <defs
     id="defs30" />
  <sodipodi:namedview
     pagecolor="#ffffff"
     bordercolor="#666666"
     borderopacity="1"
     objecttolerance="10"
     gridtolerance="10"
     guidetolerance="10"
     inkscape:pageopacity="0"
     inkscape:pageshadow="2"
     inkscape:window-width="1920"
     inkscape:window-height="1017"
     id="namedview28"
     showgrid="false"
     inkscape:document-units="in"
     inkscape:zoom="0.9009009"
     inkscape:cx="513.78749"
     inkscape:cy="301.6784"
     inkscape:window-x="-8"
     inkscape:window-y="-8"
     inkscape:window-maximized="1"
     inkscape:current-layer="svg2"
     showguides="false" />
  <!-- Front-->
  <path
     style="fill:none;stroke:#000000;stroke-width:0.89999998"
     d="m 22.275391,22.5 c 0,9.720052 0,19.440104 0,29.160156 3.539713,0 7.079427,0 10.61914,0 0,9.494792 0,18.989584 0,28.484375 -3.539713,0 -7.079427,0 -10.61914,0 0,7.64974 0,15.299479 0,22.949219 3.539713,0 7.079427,0 10.61914,0 0,9.49544 0,18.99089 0,28.48633 -3.539713,0 -7.079427,0 -10.61914,0 0,9.79492 0,19.58984 0,29.38476 11.294922,0 22.589843,0 33.884765,0 0,-3.54036 0,-7.08073 0,-10.62109 10.994792,0 21.989584,0 32.984375,0 0,3.54036 0,7.08073 0,10.62109 7.64974,0 15.299479,0 22.949219,0 0,-3.54036 0,-7.08073 0,-10.62109 7.35026,0 14.70052,0 22.05078,0 0,3.54036 0,7.08073 0,10.62109 7.64974,0 15.29948,0 22.94922,0 0,-3.54036 0,-7.08073 0,-10.62109 7.35026,0 14.70052,0 22.05078,0 0,3.54036 0,7.08073 0,10.62109 7.64974,0 15.29948,0 22.94922,0 0,-3.54036 0,-7.08073 0,-10.62109 7.35026,0 14.70052,0 22.05078,0 0,3.54036 0,7.08073 0,10.62109 7.64974,0 15.29948,0 22.94922,0 0,-3.54036 0,-7.08073 0,-10.62109 7.35026,0 14.70052,0 22.05078,0 0,3.54036 0,7.08073 0,10.62109 7.64974,0 15.29948,0 22.94922,0 0,-3.54036 0,-7.08073 0,-10.62109 7.35026,0 14.70052,0 22.05078,0 0,3.54036 0,7.08073 0,10.62109 7.64974,0 15.29948,0 22.94922,0 0,-3.54036 0,-7.08073 0,-10.62109 10.99544,0 21.99089,0 32.98633,0 0,3.54036 0,7.08073 0,10.62109 11.29492,0 22.58984,0 33.88476,0 0,-9.79492 0,-19.58984 0,-29.38476 -3.54036,0 -7.08073,0 -10.62109,0 0,-9.49544 0,-18.99089 0,-28.48633 3.54036,0 7.08073,0 10.62109,0 0,-7.64974 0,-15.299479 0,-22.949219 -3.54036,0 -7.08073,0 -10.62109,0 0,-9.494791 0,-18.989583 0,-28.484375 3.54036,0 7.08073,0 10.62109,0 0,-9.794922 0,-19.589843 0,-29.384765 -11.29492,0 -22.58984,0 -33.88476,0 0,3.539713 0,7.079427 0,10.61914 -10.99544,0 -21.99089,0 -32.98633,0 0,-3.539713 0,-7.079427 0,-10.61914 -7.64974,0 -15.29948,0 -22.94922,0 0,3.539713 0,7.079427 0,10.61914 -7.35026,0 -14.70052,0 -22.05078,0 0,-3.539713 0,-7.079427 0,-10.61914 -7.64974,0 -15.29948,0 -22.94922,0 0,3.539713 0,7.079427 0,10.61914 -7.35026,0 -14.70052,0 -22.05078,0 0,-3.539713 0,-7.079427 0,-10.61914 -7.64974,0 -15.29948,0 -22.94922,0 0,3.539713 0,7.079427 0,10.61914 -7.35026,0 -14.70052,0 -22.05078,0 0,-3.539713 0,-7.079427 0,-10.61914 -7.64974,0 -15.29948,0 -22.94922,0 0,3.539713 0,7.079427 0,10.61914 -7.35026,0 -14.70052,0 -22.05078,0 0,-3.539713 0,-7.079427 0,-10.61914 -7.64974,0 -15.29948,0 -22.94922,0 0,3.539713 0,7.079427 0,10.61914 -7.35026,0 -14.70052,0 -22.05078,0 0,-3.539713 0,-7.079427 0,-10.61914 -7.64974,0 -15.299479,0 -22.949219,0 0,3.539713 0,7.079427 0,10.61914 -10.994791,0 -21.989583,0 -32.984375,0 0,-3.539713 0,-7.079427 0,-10.61914 -11.294922,0 -22.589843,0 -33.884765,0 l 0,0.224609 z"
     id="polygon6"
     inkscape:connector-curvature="0" />
  <!-- Back-->
  <path
     style="fill:none;stroke:#000000;stroke-width:0.89999998"
     d="m 403.51562,22.5 c 0,9.720052 10e-6,19.440104 0,29.160156 3.53972,0 7.07943,0 10.61915,0 0,9.494792 0,18.989584 0,28.484375 -3.53972,0 -7.07943,0 -10.61915,0 0,7.64974 10e-6,15.299479 0,22.949219 3.53972,0 7.07943,0 10.61915,0 0,9.49544 0,18.99089 0,28.48633 -3.53972,0 -7.07943,0 -10.61915,0 10e-6,9.79492 0,19.58984 0,29.38476 11.29493,0 22.58985,0 33.88477,0 0,-3.54036 0,-7.08073 0,-10.62109 10.99479,0 21.98958,0 32.98438,0 0,3.54036 0,7.08073 0,10.62109 7.64974,0 15.29947,0 22.94921,0 0,-3.54036 0,-7.08073 0,-10.62109 7.35026,0 14.70053,0 22.05079,0 0,3.54036 0,7.08073 0,10.62109 7.64974,0 15.29947,0 22.94921,0 0,-3.54036 0,-7.08073 0,-10.62109 7.35026,0 14.70053,0 22.05079,0 0,3.54036 0,7.08073 0,10.62109 7.64974,0 15.29947,0 22.94921,0 0,-3.54036 0,-7.08073 0,-10.62109 7.35026,0 14.70053,0 22.05079,0 0,3.54036 0,7.08073 0,10.62109 7.64974,0 15.29947,0 22.94921,0 0,-3.54036 0,-7.08073 0,-10.62109 7.35026,0 14.70053,0 22.05079,0 0,3.54036 0,7.08073 0,10.62109 7.64974,0 15.29947,0 22.94921,0 0,-3.54036 0,-7.08073 0,-10.62109 7.35026,0 14.70053,0 22.05079,0 0,3.54036 0,7.08073 0,10.62109 7.64974,0 15.29947,0 22.94921,0 0,-3.54036 0,-7.08073 0,-10.62109 10.99545,0 21.99089,0 32.98633,0 0,3.54036 0,7.08073 0,10.62109 11.29492,0 22.58985,0 33.88477,0 0,-9.79492 0,-19.58984 0,-29.38476 -3.54037,0 -7.08073,0 -10.6211,0 0,-9.49544 0,-18.99089 0,-28.48633 3.54037,0 7.08073,0 10.6211,0 0,-7.64974 0,-15.299479 0,-22.949219 -3.54037,0 -7.08073,0 -10.6211,0 0,-9.494791 0,-18.989583 0,-28.484375 3.54037,0 7.08073,0 10.6211,0 0,-9.794922 0,-19.589843 0,-29.384765 -11.29492,0 -22.58985,0 -33.88477,0 0,3.539713 0,7.079427 0,10.61914 -10.99544,0 -21.99088,0 -32.98633,0 0,-3.539713 0,-7.079427 0,-10.61914 -7.64974,0 -15.29947,0 -22.94921,0 0,3.539713 0,7.079427 0,10.61914 -7.35026,0 -14.70053,0 -22.05079,0 0,-3.539713 0,-7.079427 0,-10.61914 -7.64974,0 -15.29947,0 -22.94921,0 0,3.539713 0,7.079427 0,10.61914 -7.35026,0 -14.70053,0 -22.05079,0 0,-3.539713 0,-7.079427 0,-10.61914 -7.64974,0 -15.29947,0 -22.94921,0 0,3.539713 0,7.079427 0,10.61914 -7.35026,0 -14.70053,0 -22.05079,0 0,-3.539713 0,-7.079427 0,-10.61914 -7.64974,0 -15.29947,0 -22.94921,0 0,3.539713 0,7.079427 0,10.61914 -7.35026,0 -14.70053,0 -22.05079,0 0,-3.539713 0,-7.079427 0,-10.61914 -7.64974,0 -15.29947,0 -22.94921,0 0,3.539713 0,7.079427 0,10.61914 -7.35026,0 -14.70053,0 -22.05079,0 0,-3.539713 0,-7.079427 0,-10.61914 -7.64974,0 -15.29947,0 -22.94921,0 0,3.539713 0,7.079427 0,10.61914 -10.9948,0 -21.98959,0 -32.98438,0 0,-3.539713 0,-7.079427 0,-10.61914 -11.29492,0 -22.58984,0 -33.88477,0 l 0,0.224609 z"
     id="polygon10"
     inkscape:connector-curvature="0" />
  <!-- Left-->
  <path
     style="fill:none;stroke:#000000;stroke-width:0.89999998"
     d="M 1246.0098 51.210938 L 1245.8242 51.210938 L 1245.8242 22.275391 L 1222.5605 22.275391 L 1222.5605 32.894531 L 1189.5742 32.894531 L 1189.5742 22.275391 L 1166.625 22.275391 L 1166.625 32.894531 L 1144.5742 32.894531 L 1144.5742 22.275391 L 1121.625 22.275391 L 1121.625 32.894531 L 1099.5742 32.894531 L 1099.5742 22.275391 L 1076.625 22.275391 L 1076.625 32.894531 L 1054.5742 32.894531 L 1054.5742 22.275391 L 1031.625 22.275391 L 1031.625 32.894531 L 1009.5742 32.894531 L 1009.5742 22.275391 L 986.625 22.275391 L 986.625 32.894531 L 964.57422 32.894531 L 964.57422 22.275391 L 941.625 22.275391 L 941.625 32.894531 L 919.57422 32.894531 L 919.57422 22.275391 L 896.625 22.275391 L 896.625 32.894531 L 874.57422 32.894531 L 874.57422 22.275391 L 851.625 22.275391 L 851.625 32.894531 L 818.63867 32.894531 L 818.63867 22.275391 L 795.375 22.275391 L 795.375 22.5 L 795.375 51.210938 L 784.75586 51.210938 L 784.75586 80.59375 L 795.375 80.59375 L 795.375 102.64453 L 784.75586 102.64453 L 784.75586 132.0293 L 795.375 132.0293 L 795.375 160.96484 L 818.63867 160.96484 L 818.63867 150.34375 L 851.625 150.34375 L 851.625 160.96484 L 874.57422 160.96484 L 874.57422 150.34375 L 896.625 150.34375 L 896.625 160.96484 L 919.57422 160.96484 L 919.57422 150.34375 L 941.625 150.34375 L 941.625 160.96484 L 964.57422 160.96484 L 964.57422 150.34375 L 986.625 150.34375 L 986.625 160.96484 L 1009.5742 160.96484 L 1009.5742 150.34375 L 1031.625 150.34375 L 1031.625 160.96484 L 1054.5742 160.96484 L 1054.5742 150.34375 L 1076.625 150.34375 L 1076.625 160.96484 L 1099.5742 160.96484 L 1099.5742 150.34375 L 1121.625 150.34375 L 1121.625 160.96484 L 1144.5742 160.96484 L 1144.5742 150.34375 L 1166.625 150.34375 L 1166.625 160.96484 L 1189.5742 160.96484 L 1189.5742 150.34375 L 1222.5605 150.34375 L 1222.5605 160.96484 L 1245.8242 160.96484 L 1245.8242 132.0293 L 1246.0098 132.0293 L 1246.0098 102.64453 L 1245.8242 102.64453 L 1245.8242 80.59375 L 1246.0098 80.59375 L 1246.0098 51.210938 z "
     id="path4179" />
  <!-- Right-->
  <path
     style="fill:none;stroke:#000000;stroke-width:0.89999998"
     d="M 1246.0098 189.45117 L 1245.8242 189.45117 L 1245.8242 160.51562 C 1238.0697 160.51562 1230.3151 160.51564 1222.5605 160.51562 L 1222.5605 171.13477 L 1189.5742 171.13477 L 1189.5742 160.51562 L 1166.625 160.51562 L 1166.625 171.13477 L 1144.5742 171.13477 L 1144.5742 160.51562 L 1121.625 160.51562 L 1121.625 171.13477 L 1099.5742 171.13477 L 1099.5742 160.51562 L 1076.625 160.51562 L 1076.625 171.13477 L 1054.5742 171.13477 L 1054.5742 160.51562 L 1031.625 160.51562 L 1031.625 171.13477 L 1009.5742 171.13477 L 1009.5742 160.51562 L 986.625 160.51562 L 986.625 171.13477 L 964.57422 171.13477 L 964.57422 160.51562 L 941.625 160.51562 L 941.625 171.13477 L 919.57422 171.13477 L 919.57422 160.51562 L 896.625 160.51562 L 896.625 171.13477 L 874.57422 171.13477 L 874.57422 160.51562 L 851.625 160.51562 L 851.625 171.13477 L 818.63867 171.13477 L 818.63867 160.51562 C 810.88411 160.51562 803.12956 160.51564 795.375 160.51562 L 795.375 160.74023 L 795.375 189.45117 L 784.75586 189.45117 L 784.75586 218.83398 L 795.375 218.83398 L 795.375 240.88477 L 784.75586 240.88477 L 784.75586 270.26953 L 795.375 270.26953 L 795.375 299.20508 L 818.63867 299.20508 L 818.63867 288.58398 L 851.625 288.58398 L 851.625 299.20508 L 874.57422 299.20508 L 874.57422 288.58398 L 896.625 288.58398 L 896.625 299.20508 L 919.57422 299.20508 L 919.57422 288.58398 L 941.625 288.58398 L 941.625 299.20508 L 964.57422 299.20508 L 964.57422 288.58398 L 986.625 288.58398 L 986.625 299.20508 L 1009.5742 299.20508 L 1009.5742 288.58398 L 1031.625 288.58398 L 1031.625 299.20508 L 1054.5742 299.20508 L 1054.5742 288.58398 L 1076.625 288.58398 L 1076.625 299.20508 L 1099.5742 299.20508 L 1099.5742 288.58398 L 1121.625 288.58398 L 1121.625 299.20508 L 1144.5742 299.20508 L 1144.5742 288.58398 L 1166.625 288.58398 L 1166.625 299.20508 L 1189.5742 299.20508 L 1189.5742 288.58398 L 1222.5605 288.58398 L 1222.5605 299.20508 L 1245.8242 299.20508 L 1245.8242 270.26953 L 1246.0098 270.26953 L 1246.0098 240.88477 L 1245.8242 240.88477 L 1245.8242 218.83398 L 1246.0098 218.83398 L 1246.0098 189.45117 z "
     id="path4184" />
  <!-- Top-->
  <path
     style="fill:none;stroke:#000000;stroke-width:0.89999998"
     d="M 55.710938 160.51562 L 55.710938 160.74023 L 55.710938 171.13477 L 32.894531 171.13477 L 32.894531 193.95117 L 22.275391 193.95117 L 22.275391 227.83398 L 32.894531 227.83398 L 32.894531 249.88477 L 22.275391 249.88477 L 22.275391 272.83398 L 32.894531 272.83398 L 32.894531 294.88477 L 22.275391 294.88477 L 22.275391 317.83398 L 32.894531 317.83398 L 32.894531 339.88477 L 22.275391 339.88477 L 22.275391 362.83398 L 32.894531 362.83398 L 32.894531 384.88477 L 22.275391 384.88477 L 22.275391 407.83398 L 32.894531 407.83398 L 32.894531 429.88477 L 22.275391 429.88477 L 22.275391 452.83398 L 32.894531 452.83398 L 32.894531 474.88477 L 22.275391 474.88477 L 22.275391 497.83398 L 32.894531 497.83398 L 32.894531 519.88477 L 22.275391 519.88477 L 22.275391 542.83398 L 32.894531 542.83398 L 32.894531 564.88477 L 22.275391 564.88477 L 22.275391 598.76953 L 32.894531 598.76953 L 32.894531 621.12305 L 393.34375 621.12305 L 393.34375 598.76953 L 403.96484 598.76953 L 403.96484 564.88477 L 393.34375 564.88477 L 393.34375 542.83398 L 403.96484 542.83398 L 403.96484 519.88477 L 393.34375 519.88477 L 393.34375 497.83398 L 403.96484 497.83398 L 403.96484 474.88477 L 393.34375 474.88477 L 393.34375 452.83398 L 403.96484 452.83398 L 403.96484 429.88477 L 393.34375 429.88477 L 393.34375 407.83398 L 403.96484 407.83398 L 403.96484 384.88477 L 393.34375 384.88477 L 393.34375 362.83398 L 403.96484 362.83398 L 403.96484 339.88477 L 393.34375 339.88477 L 393.34375 317.83398 L 403.96484 317.83398 L 403.96484 294.88477 L 393.34375 294.88477 L 393.34375 272.83398 L 403.96484 272.83398 L 403.96484 249.88477 L 393.34375 249.88477 L 393.34375 227.83398 L 403.96484 227.83398 L 403.96484 193.95117 L 393.34375 193.95117 L 393.34375 171.13477 L 370.5293 171.13477 L 370.5293 160.51562 C 359.23437 160.51564 347.93945 160.51562 336.64453 160.51562 L 336.64453 171.13477 L 314.59375 171.13477 L 314.59375 160.51562 L 291.64453 160.51562 L 291.64453 171.13477 L 269.59375 171.13477 L 269.59375 160.51562 L 246.64453 160.51562 L 246.64453 171.13477 L 224.59375 171.13477 L 224.59375 160.51562 L 201.64453 160.51562 L 201.64453 171.13477 L 179.59375 171.13477 L 179.59375 160.51562 L 156.64453 160.51562 L 156.64453 171.13477 L 134.59375 171.13477 L 134.59375 160.51562 L 111.64453 160.51562 L 111.64453 171.13477 L 89.59375 171.13477 L 89.59375 160.51562 L 55.710938 160.51562 z "
     id="polygon22" />
  <!-- Bottom-->
  <path
     style="fill:none;stroke:#000000;stroke-width:0.89999998"
     d="M 436.95117 160.51562 L 436.95117 160.74023 L 436.95117 171.13477 L 414.13477 171.13477 L 414.13477 193.95117 L 403.51562 193.95117 L 403.51562 227.83398 L 414.13477 227.83398 L 414.13477 249.88477 L 403.51562 249.88477 L 403.51562 272.83398 L 414.13477 272.83398 L 414.13477 294.88477 L 403.51562 294.88477 L 403.51562 317.83398 L 414.13477 317.83398 L 414.13477 339.88477 L 403.51562 339.88477 L 403.51562 362.83398 L 414.13477 362.83398 L 414.13477 384.88477 L 403.51562 384.88477 L 403.51562 407.83398 L 414.13477 407.83398 L 414.13477 429.88477 L 403.51562 429.88477 L 403.51562 452.83398 L 414.13477 452.83398 L 414.13477 474.88477 L 403.51562 474.88477 L 403.51562 497.83398 L 414.13477 497.83398 L 414.13477 519.88477 L 403.51562 519.88477 L 403.51562 542.83398 L 414.13477 542.83398 L 414.13477 564.88477 L 403.51562 564.88477 L 403.51562 598.76953 L 414.13477 598.76953 L 414.13477 621.58398 L 436.95117 621.58398 L 436.95117 621.78125 L 470.83398 621.78125 L 470.83398 621.58398 L 492.88477 621.58398 L 492.88477 621.78125 L 515.83398 621.78125 L 515.83398 621.58398 L 537.88477 621.58398 L 537.88477 621.78125 L 560.83398 621.78125 L 560.83398 621.58398 L 582.88477 621.58398 L 582.88477 621.78125 L 605.83398 621.78125 L 605.83398 621.58398 L 627.88477 621.58398 L 627.88477 621.78125 L 650.83398 621.78125 L 650.83398 621.58398 L 672.88477 621.58398 L 672.88477 621.78125 L 695.83398 621.78125 L 695.83398 621.58398 L 717.88477 621.58398 L 717.88477 621.78125 L 751.76953 621.78125 L 751.76953 621.58398 L 774.58398 621.58398 L 774.58398 598.76953 L 785.20508 598.76953 L 785.20508 564.88477 L 774.58398 564.88477 L 774.58398 542.83398 L 785.20508 542.83398 L 785.20508 519.88477 L 774.58398 519.88477 L 774.58398 497.83398 L 785.20508 497.83398 L 785.20508 474.88477 L 774.58398 474.88477 L 774.58398 452.83398 L 785.20508 452.83398 L 785.20508 429.88477 L 774.58398 429.88477 L 774.58398 407.83398 L 785.20508 407.83398 L 785.20508 384.88477 L 774.58398 384.88477 L 774.58398 362.83398 L 785.20508 362.83398 L 785.20508 339.88477 L 774.58398 339.88477 L 774.58398 317.83398 L 785.20508 317.83398 L 785.20508 294.88477 L 774.58398 294.88477 L 774.58398 272.83398 L 785.20508 272.83398 L 785.20508 249.88477 L 774.58398 249.88477 L 774.58398 227.83398 L 785.20508 227.83398 L 785.20508 193.95117 L 774.58398 193.95117 L 774.58398 171.13477 L 751.76953 171.13477 L 751.76953 160.51562 C 740.47461 160.51564 729.17969 160.51562 717.88477 160.51562 L 717.88477 171.13477 L 695.83398 171.13477 L 695.83398 160.51562 L 672.88477 160.51562 L 672.88477 171.13477 L 650.83398 171.13477 L 650.83398 160.51562 L 627.88477 160.51562 L 627.88477 171.13477 L 605.83398 171.13477 L 605.83398 160.51562 L 582.88477 160.51562 L 582.88477 171.13477 L 560.83398 171.13477 L 560.83398 160.51562 L 537.88477 160.51562 L 537.88477 171.13477 L 515.83398 171.13477 L 515.83398 160.51562 L 492.88477 160.51562 L 492.88477 171.13477 L 470.83398 171.13477 L 470.83398 160.51562 L 436.95117 160.51562 z "
     id="polygon26" />
  <path
     style="opacity:1;fill:none;stroke:#000000;stroke-width:0.99000001;stroke-miterlimit:4;stroke-dasharray:none"
     d="m 318.375,96.974985 45,0 0,42.300005 -45,0 z"
     id="rect4160"
     inkscape:connector-curvature="0" />
  <g
     id="g4186"
     transform="translate(-10.584443,7.5468788)">
    <path
       inkscape:connector-curvature="0"
       id="path4162"
       d="m 89.807007,51.009023 a 18.209595,18.209595 0 0 1 -18.209594,18.20959 18.209595,18.209595 0 0 1 -18.209595,-18.20959 18.209595,18.209595 0 0 1 18.209595,-18.2096 18.209595,18.209595 0 0 1 18.209594,18.2096 z"
       style="opacity:1;fill:none;stroke:#000000;stroke-width:1.02081013;stroke-miterlimit:4;stroke-dasharray:none" />
    <path
       inkscape:connector-curvature="0"
       id="rect4164"
       d="m 119.30306,36.204023 71.28,0 0,29.61001 -71.28,0 z"
       style="opacity:1;fill:none;stroke:#000000;stroke-width:0.99000001;stroke-miterlimit:4;stroke-dasharray:none" />
  </g>
  <rect
     style="opacity:1;fill:none;stroke:#000000;stroke-width:0.99000001;stroke-miterlimit:4;stroke-dasharray:none"
     id="rect4188"
     width="189"
     height="234"
     x="577.19995"
     y="181.61998" />
</svg>
