<?xml version="1.0" encoding="UTF-8" standalone="no"?>
<svg
   xmlns:dc="http://purl.org/dc/elements/1.1/"
   xmlns:cc="http://creativecommons.org/ns#"
   xmlns:rdf="http://www.w3.org/1999/02/22-rdf-syntax-ns#"
   xmlns:svg="http://www.w3.org/2000/svg"
   xmlns="http://www.w3.org/2000/svg"
   xmlns:sodipodi="http://sodipodi.sourceforge.net/DTD/sodipodi-0.dtd"
   xmlns:inkscape="http://www.inkscape.org/namespaces/inkscape"
   version="1.1"
   width="14.207999999999998in"
   height="7.282in"
   viewBox=" 0 0 1278.7199999999998 655.38"
   id="svg2"
   inkscape:version="0.91 r13725"
   sodipodi:docname="caseplans.svg">
  <metadata
     id="metadata32">
    <rdf:RDF>
      <cc:Work
         rdf:about="">
        <dc:format>image/svg+xml</dc:format>
        <dc:type
           rdf:resource="http://purl.org/dc/dcmitype/StillImage" />
        <dc:title></dc:title>
      </cc:Work>
    </rdf:RDF>
  </metadata>
  <defs
     id="defs30" />
  <sodipodi:namedview
     pagecolor="#ffffff"
     bordercolor="#666666"
     borderopacity="1"
     objecttolerance="10"
     gridtolerance="10"
     guidetolerance="10"
     inkscape:pageopacity="0"
     inkscape:pageshadow="2"
     inkscape:window-width="1920"
     inkscape:window-height="1017"
     id="namedview28"
     showgrid="false"
     inkscape:zoom="0.90090089"
     inkscape:cx="517.71914"
     inkscape:cy="543.42202"
     inkscape:window-x="-8"
     inkscape:window-y="-8"
     inkscape:window-maximized="1"
     inkscape:current-layer="svg2"
     inkscape:document-units="in" />
  <!-- Front-->
  <path
     transform="translate(4.5,22.5)"
     style="fill:none;stroke:#000000;stroke-width:0.89999998"
     d="m 177.12,10.62 0,-10.62 27,0 0,10.62 27,0 0,-10.62 27,0 0,10.62 27,0 0,-10.62 27,0 0,10.62 34.56,0 0,-10.62 34.56,0 0,27.828 -10.62,0 0,27.828 10.62,0 0,27.828 -10.62,0 0,27.828 10.62,0 0,27.828 -34.56,0 0,-10.62 -34.56,0 0,10.62 -27,0 0,-10.62 -27,0 0,10.62 -27,0 0,-10.62 -27,0 0,10.62 -27,0 0,-10.62 -27,0 0,10.62 -27,0 0,-10.62 -27,0 0,10.62 -27,0 0,-10.62 -34.56,0 0,10.62 -34.56,0 0,-27.828 10.62,0 0,-27.828 -10.62,0 0,-27.828 10.62,0 0,-27.828 L 0,27.828 0,0 l 34.56,0 0,10.62 34.56,0 0,-10.62 27,0 0,10.62 27,0 0,-10.62 27,0 0,10.62 z"
     id="polygon6" />
  <!-- Back-->
  <path
     transform="translate(385.74,22.5)"
     style="fill:none;stroke:#000000;stroke-width:0.89999998"
     d="m 177.12,10.62 0,-10.62 27,0 0,10.62 27,0 0,-10.62 27,0 0,10.62 27,0 0,-10.62 27,0 0,10.62 34.56,0 0,-10.62 34.56,0 0,27.828 -10.62,0 0,27.828 10.62,0 0,27.828 -10.62,0 0,27.828 10.62,0 0,27.828 -34.56,0 0,-10.62 -34.56,0 0,10.62 -27,0 0,-10.62 -27,0 0,10.62 -27,0 0,-10.62 -27,0 0,10.62 -27,0 0,-10.62 -27,0 0,10.62 -27,0 0,-10.62 -27,0 0,10.62 -27,0 0,-10.62 -34.56,0 0,10.62 -34.56,0 0,-27.828 10.62,0 0,-27.828 -10.62,0 0,-27.828 10.62,0 0,-27.828 L 0,27.828 0,0 l 34.56,0 0,10.62 34.56,0 0,-10.62 27,0 0,10.62 27,0 0,-10.62 27,0 0,10.62 z"
     id="polygon10" />
  <!-- Left-->
  <path
     transform="translate(766.98,22.5)"
     style="fill:none;stroke:#000000;stroke-width:0.89999998"
     d="m 195.12,10.62 0,-10.62 27,0 0,10.62 27,0 0,-10.62 27,0 0,10.62 27,0 0,-10.62 27,0 0,10.62 27,0 0,-10.62 27,0 0,10.62 43.56,0 0,-10.62 32.94,0 0,27.828 10.62,0 0,27.828 -10.62,0 0,27.828 10.62,0 0,27.828 -10.62,0 0,27.828 -32.94,0 0,-10.62 -43.56,0 0,10.62 -27,0 0,-10.62 -27,0 0,10.62 -27,0 0,-10.62 -27,0 0,10.62 -27,0 0,-10.62 -27,0 0,10.62 -27,0 0,-10.62 -27,0 0,10.62 -27,0 0,-10.62 -27,0 0,10.62 -27,0 0,-10.62 -43.56,0 0,10.62 -32.94,0 0,-27.828 -10.62,0 0,-27.828 10.62,0 0,-27.828 -10.62,0 0,-27.828 10.62,0 0,-27.828 32.94,0 0,10.62 43.56,0 0,-10.62 27,0 0,10.62 27,0 0,-10.62 27,0 0,10.62 z"
     id="polygon14" />
  <!-- Right-->
  <path
     transform="translate(766.98,161.64)"
     style="fill:none;stroke:#000000;stroke-width:0.89999998;stroke-miterlimit:4;stroke-dasharray:none"
     d="m 195.12,10.62 0,-10.62 27,0 0,10.62 27,0 0,-10.62 27,0 0,10.62 27,0 0,-10.62 27,0 0,10.62 27,0 0,-10.62 27,0 0,10.62 43.56,0 0,-10.62 32.94,0 0,27.828 10.62,0 0,27.828 -10.62,0 0,27.828 10.62,0 0,27.828 -10.62,0 0,27.828 -32.94,0 0,-10.62 -43.56,0 0,10.62 -27,0 0,-10.62 -27,0 0,10.62 -27,0 0,-10.62 -27,0 0,10.62 -27,0 0,-10.62 -27,0 0,10.62 -27,0 0,-10.62 -27,0 0,10.62 -27,0 0,-10.62 -27,0 0,10.62 -27,0 0,-10.62 -43.56,0 0,10.62 -32.94,0 0,-27.828 -10.62,0 0,-27.828 10.62,0 0,-27.828 -10.62,0 0,-27.828 10.62,0 0,-27.828 32.94,0 0,10.62 43.56,0 0,-10.62 27,0 0,10.62 27,0 0,-10.62 27,0 0,10.62 z"
     id="polygon18" />
  <!-- Top-->
  <path
     transform="translate(4.5,161.64)"
     style="fill:none;stroke:#000000;stroke-width:0.89999998"
     d="m 177.12,0 0,10.62 27,0 0,-10.62 27,0 0,10.62 27,0 0,-10.62 27,0 0,10.62 27,0 0,-10.62 34.56,0 0,10.62 23.94,0 0,32.94 10.62,0 0,43.56 -10.62,0 0,27 10.62,0 0,27 -10.62,0 0,27 10.62,0 0,27 -10.62,0 0,27 10.62,0 0,27 -10.62,0 0,27 10.62,0 0,27 -10.62,0 0,27 10.62,0 0,27 -10.62,0 0,27 10.62,0 0,43.56 -10.62,0 0,32.94 -23.94,0 0,10.62 -34.56,0 0,-10.62 -27,0 0,10.62 -27,0 0,-10.62 -27,0 0,10.62 -27,0 0,-10.62 -27,0 0,10.62 -27,0 0,-10.62 -27,0 0,10.62 -27,0 0,-10.62 -27,0 0,10.62 -34.56,0 0,-10.62 -23.94,0 0,-32.94 -10.62,0 0,-43.56 10.62,0 0,-27 -10.62,0 0,-27 10.62,0 0,-27 -10.62,0 0,-27 10.62,0 0,-27 -10.62,0 0,-27 10.62,0 0,-27 -10.62,0 0,-27 10.62,0 0,-27 -10.62,0 0,-27 10.62,0 0,-27 -10.62,0 0,-43.56 10.62,0 0,-32.94 23.94,0 0,-10.62 34.56,0 0,10.62 27,0 0,-10.62 27,0 0,10.62 27,0 0,-10.62 z"
     id="polygon22" />
  <!-- Bottom-->
  <path
     transform="translate(385.74,161.64)"
     style="fill:none;stroke:#000000;stroke-width:0.89999998"
     d="m 177.12,0 0,10.62 27,0 0,-10.62 27,0 0,10.62 27,0 0,-10.62 27,0 0,10.62 27,0 0,-10.62 34.56,0 0,10.62 23.94,0 0,32.94 10.62,0 0,43.56 -10.62,0 0,27 10.62,0 0,27 -10.62,0 0,27 10.62,0 0,27 -10.62,0 0,27 10.62,0 0,27 -10.62,0 0,27 10.62,0 0,27 -10.62,0 0,27 10.62,0 0,27 -10.62,0 0,27 10.62,0 0,43.56 -10.62,0 0,32.94 -23.94,0 0,10.62 -34.56,0 0,-10.62 -27,0 0,10.62 -27,0 0,-10.62 -27,0 0,10.62 -27,0 0,-10.62 -27,0 0,10.62 -27,0 0,-10.62 -27,0 0,10.62 -27,0 0,-10.62 -27,0 0,10.62 -34.56,0 0,-10.62 -23.94,0 0,-32.94 -10.62,0 0,-43.56 10.62,0 0,-27 -10.62,0 0,-27 10.62,0 0,-27 -10.62,0 0,-27 10.62,0 0,-27 -10.62,0 0,-27 10.62,0 0,-27 -10.62,0 0,-27 10.62,0 0,-27 -10.62,0 0,-27 10.62,0 0,-27 -10.62,0 0,-43.56 10.62,0 0,-32.94 23.94,0 0,-10.62 34.56,0 0,10.62 27,0 0,-10.62 27,0 0,10.62 27,0 0,-10.62 z"
     id="polygon26" />
  <rect
     style="opacity:1;fill:none;stroke:#000000;stroke-width:0.83544099;stroke-miterlimit:4;stroke-dasharray:none"
     id="rect4176"
     width="44.164558"
     height="39.664558"
     x="290.23273"
     y="89.885231"
     rx="0.56854117" />
  <circle
     style="opacity:1;fill:none;stroke:#000000;stroke-width:0.91758704;stroke-miterlimit:4;stroke-dasharray:none"
     id="path4178"
     cx="80.820007"
     cy="102.81001"
     r="17.541206" />
</svg>
