<svg xmlns="http://www.w3.org/2000/svg" version="1.1" width="320.7mm" height="234.7mm" viewBox = " 0 0 1136.339517 831.6148569999999" >
<!-- Front--> 
<g transform="translate(22.5000185, 22.5000185) " > 
<polygon style="stroke:#000000; fill:none; stroke-width:0.90000074" points="0, 0 53.14965, 0 53.14965, 10.62993 106.2993, 10.62993 106.2993, 0 145.27571, 0 145.27571, 10.62993 198.42536, 10.62993 198.42536, 0 251.57501, 0 251.57501, 39.685072 240.94508, 39.685072 240.94508, 79.370144 251.57501, 79.370144 251.57501, 119.055216 240.94508, 119.055216 240.94508, 158.740288 251.57501, 158.740288 251.57501000000002, 198.42536 198.42536, 198.42536 198.42536, 187.79543 145.27571, 187.79543 145.27571, 198.42536 106.2993, 198.42536 106.2993, 187.79543 53.14965, 187.79543 53.14965, 198.42536 0, 198.42535999999998 0, 158.740288 10.62993, 158.740288 10.62993, 119.055216 0, 119.055216 0, 79.370144 10.62993, 79.370144 10.62993, 39.685072 0, 39.685072 "/> 
</g>
<!-- Back--> 
<g transform="translate(274.0750285, 22.5000185) " > 
<polygon style="stroke:#000000; fill:none; stroke-width:0.90000074" points="0, 0 53.14965, 0 53.14965, 10.62993 106.2993, 10.62993 106.2993, 0 145.27571, 0 145.27571, 10.62993 198.42536, 10.62993 198.42536, 0 251.57501, 0 251.57501, 39.685072 240.94508, 39.685072 240.94508, 79.370144 251.57501, 79.370144 251.57501, 119.055216 240.94508, 119.055216 240.94508, 158.740288 251.57501, 158.740288 251.57501000000002, 198.42536 198.42536, 198.42536 198.42536, 187.79543 145.27571, 187.79543 145.27571, 198.42536 106.2993, 198.42536 106.2993, 187.79543 53.14965, 187.79543 53.14965, 198.42536 0, 198.42535999999998 0, 158.740288 10.62993, 158.740288 10.62993, 119.055216 0, 119.055216 0, 79.370144 10.62993, 79.370144 10.62993, 39.685072 0, 39.685072 "/> 
</g>
<!-- Left--> 
<g transform="translate(525.6500384999999, 22.5000185) " > 
<polygon style="stroke:#000000; fill:none; stroke-width:0.90000074" points="10.62993, 0 59.3504425, 0 59.3504425, 10.62993 118.700885, 10.62993 118.700885, 0 157.67729500000002, 0 157.67729500000002, 10.62993 196.653705, 10.62993 196.653705, 0 235.630115, 0 235.630115, 10.62993 274.60652500000003, 10.62993 274.60652500000003, 0 313.582935, 0 313.582935, 10.62993 352.559345, 10.62993 352.559345, 0 391.535755, 0 391.535755, 10.62993 430.512165, 10.62993 430.512165, 0 469.48857499999997, 0 469.48857499999997, 10.62993 528.8390175, 10.62993 528.8390175, 0 577.55953, 0 577.55953, 39.685072 588.1894599999999, 39.685072 588.1894599999999, 79.370144 577.55953, 79.370144 577.55953, 119.055216 588.1894599999999, 119.055216 588.1894599999999, 158.740288 577.55953, 158.740288 577.5595300000001, 198.42536 528.8390175, 198.42536 528.8390175, 187.79543 469.48857499999997, 187.79543 469.48857499999997, 198.42536 430.512165, 198.42536 430.512165, 187.79543 391.535755, 187.79543 391.535755, 198.42536 352.559345, 198.42536 352.559345, 187.79543 313.582935, 187.79543 313.582935, 198.42536 274.60652500000003, 198.42536 274.60652500000003, 187.79543 235.630115, 187.79543 235.630115, 198.42536 196.653705, 198.42536 196.653705, 187.79543 157.67729500000002, 187.79543 157.67729500000002, 198.42536 118.700885, 198.42536 118.700885, 187.79543 59.3504425, 187.79543 59.3504425, 198.42536 10.62993, 198.42535999999998 10.62993, 158.740288 0, 158.740288 0, 119.055216 10.62993, 119.055216 10.62993, 79.370144 0, 79.370144 0, 39.685072 10.62993, 39.685072 "/> 
</g>
<!-- Right--> 
<g transform="translate(525.6500384999999, 220.9253785) " > 
<polygon style="stroke:#000000; fill:none; stroke-width:0.90000074" points="10.62993, 0 59.3504425, 0 59.3504425, 10.62993 118.700885, 10.62993 118.700885, 0 157.67729500000002, 0 157.67729500000002, 10.62993 196.653705, 10.62993 196.653705, 0 235.630115, 0 235.630115, 10.62993 274.60652500000003, 10.62993 274.60652500000003, 0 313.582935, 0 313.582935, 10.62993 352.559345, 10.62993 352.559345, 0 391.535755, 0 391.535755, 10.62993 430.512165, 10.62993 430.512165, 0 469.48857499999997, 0 469.48857499999997, 10.62993 528.8390175, 10.62993 528.8390175, 0 577.55953, 0 577.55953, 39.685072 588.1894599999999, 39.685072 588.1894599999999, 79.370144 577.55953, 79.370144 577.55953, 119.055216 588.1894599999999, 119.055216 588.1894599999999, 158.740288 577.55953, 158.740288 577.5595300000001, 198.42536 528.8390175, 198.42536 528.8390175, 187.79543 469.48857499999997, 187.79543 469.48857499999997, 198.42536 430.512165, 198.42536 430.512165, 187.79543 391.535755, 187.79543 391.535755, 198.42536 352.559345, 198.42536 352.559345, 187.79543 313.582935, 187.79543 313.582935, 198.42536 274.60652500000003, 198.42536 274.60652500000003, 187.79543 235.630115, 187.79543 235.630115, 198.42536 196.653705, 198.42536 196.653705, 187.79543 157.67729500000002, 187.79543 157.67729500000002, 198.42536 118.700885, 198.42536 118.700885, 187.79543 59.3504425, 187.79543 59.3504425, 198.42536 10.62993, 198.42535999999998 10.62993, 158.740288 0, 158.740288 0, 119.055216 10.62993, 119.055216 10.62993, 79.370144 0, 79.370144 0, 39.685072 10.62993, 39.685072 "/> 
</g>
<!-- Top--> 
<g transform="translate(22.5000185, 220.9253785) " > 
<polygon style="stroke:#000000; fill:none; stroke-width:0.90000074" points="10.62993, 10.62993 53.14965, 10.62993 53.14965, 0 106.2993, 0 106.2993, 10.62993 145.27571, 10.62993 145.27571, 0 198.42536, 0 198.42536, 10.62993 240.94508, 10.62993 240.94508, 59.3504425 251.57501, 59.3504425 251.57501, 118.700885 240.94508, 118.700885 240.94508, 157.67729500000002 251.57501, 157.67729500000002 251.57501, 196.653705 240.94508, 196.653705 240.94508, 235.630115 251.57501, 235.630115 251.57501, 274.60652500000003 240.94508, 274.60652500000003 240.94508, 313.582935 251.57501, 313.582935 251.57501, 352.559345 240.94508, 352.559345 240.94508, 391.535755 251.57501, 391.535755 251.57501, 430.512165 240.94508, 430.512165 240.94508, 469.48857499999997 251.57501, 469.48857499999997 251.57501, 528.8390175 240.94508, 528.8390175 240.94508000000002, 577.55953 198.42536, 577.55953 198.42536, 588.1894599999999 145.27571, 588.1894599999999 145.27571, 577.55953 106.2993, 577.55953 106.2993, 588.1894599999999 53.14965, 588.1894599999999 53.14965, 577.55953 10.62993, 577.5595300000001 10.62993, 528.8390175 0, 528.8390175 0, 469.48857499999997 10.62993, 469.48857499999997 10.62993, 430.512165 0, 430.512165 0, 391.535755 10.62993, 391.535755 10.62993, 352.559345 0, 352.559345 0, 313.582935 10.62993, 313.582935 10.62993, 274.60652500000003 0, 274.60652500000003 0, 235.630115 10.62993, 235.630115 10.62993, 196.653705 0, 196.653705 0, 157.67729500000002 10.62993, 157.67729500000002 10.62993, 118.700885 0, 118.700885 0, 59.3504425 10.62993, 59.3504425 "/> 
</g>
<!-- Bottom--> 
<g transform="translate(274.0750285, 220.9253785) " > 
<polygon style="stroke:#000000; fill:none; stroke-width:0.90000074" points="10.62993, 10.62993 53.14965, 10.62993 53.14965, 0 106.2993, 0 106.2993, 10.62993 145.27571, 10.62993 145.27571, 0 198.42536, 0 198.42536, 10.62993 240.94508, 10.62993 240.94508, 59.3504425 251.57501, 59.3504425 251.57501, 118.700885 240.94508, 118.700885 240.94508, 157.67729500000002 251.57501, 157.67729500000002 251.57501, 196.653705 240.94508, 196.653705 240.94508, 235.630115 251.57501, 235.630115 251.57501, 274.60652500000003 240.94508, 274.60652500000003 240.94508, 313.582935 251.57501, 313.582935 251.57501, 352.559345 240.94508, 352.559345 240.94508, 391.535755 251.57501, 391.535755 251.57501, 430.512165 240.94508, 430.512165 240.94508, 469.48857499999997 251.57501, 469.48857499999997 251.57501, 528.8390175 240.94508, 528.8390175 240.94508000000002, 577.55953 198.42536, 577.55953 198.42536, 588.1894599999999 145.27571, 588.1894599999999 145.27571, 577.55953 106.2993, 577.55953 106.2993, 588.1894599999999 53.14965, 588.1894599999999 53.14965, 577.55953 10.62993, 577.5595300000001 10.62993, 528.8390175 0, 528.8390175 0, 469.48857499999997 10.62993, 469.48857499999997 10.62993, 430.512165 0, 430.512165 0, 391.535755 10.62993, 391.535755 10.62993, 352.559345 0, 352.559345 0, 313.582935 10.62993, 313.582935 10.62993, 274.60652500000003 0, 274.60652500000003 0, 235.630115 10.62993, 235.630115 10.62993, 196.653705 0, 196.653705 0, 157.67729500000002 10.62993, 157.67729500000002 10.62993, 118.700885 0, 118.700885 0, 59.3504425 10.62993, 59.3504425 "/> 
</g></svg>