<?xml version="1.0" encoding="UTF-8" standalone="no"?>
<svg
   xmlns:dc="http://purl.org/dc/elements/1.1/"
   xmlns:cc="http://creativecommons.org/ns#"
   xmlns:rdf="http://www.w3.org/1999/02/22-rdf-syntax-ns#"
   xmlns:svg="http://www.w3.org/2000/svg"
   xmlns="http://www.w3.org/2000/svg"
   xmlns:sodipodi="http://sodipodi.sourceforge.net/DTD/sodipodi-0.dtd"
   xmlns:inkscape="http://www.inkscape.org/namespaces/inkscape"
   version="1.1"
   width="14.207999999999998in"
   height="7.272in"
   viewBox=" 0 0 1278.7199999999998 654.48"
   id="svg2"
   inkscape:version="0.91 r13725"
   sodipodi:docname="caseplans.svg">
  <metadata
     id="metadata32">
    <rdf:RDF>
      <cc:Work
         rdf:about="">
        <dc:format>image/svg+xml</dc:format>
        <dc:type
           rdf:resource="http://purl.org/dc/dcmitype/StillImage" />
        <dc:title></dc:title>
      </cc:Work>
    </rdf:RDF>
  </metadata>
  <defs
     id="defs30" />
  <sodipodi:namedview
     pagecolor="#ffffff"
     bordercolor="#666666"
     borderopacity="1"
     objecttolerance="10"
     gridtolerance="10"
     guidetolerance="10"
     inkscape:pageopacity="0"
     inkscape:pageshadow="2"
     inkscape:window-width="1920"
     inkscape:window-height="1017"
     id="namedview28"
     showgrid="false"
     inkscape:document-units="in"
     inkscape:zoom="1.2740663"
     inkscape:cx="527.68734"
     inkscape:cy="342.44224"
     inkscape:window-x="-8"
     inkscape:window-y="-8"
     inkscape:window-maximized="1"
     inkscape:current-layer="svg2" />
  <!-- Front-->
  <g
     transform="translate(22.5, 22.5) "
     id="g4">
    <polygon
       style="stroke:#000000; fill:none; stroke-width:0.9"
       points="0, 0 33.434999999999995, 0 33.434999999999995, 10.62 66.86999999999999, 10.62 66.86999999999999, 0 89.36999999999999, 0 89.36999999999999, 10.62 111.86999999999999, 10.62 111.86999999999999, 0 134.37, 0 134.37, 10.62 156.87, 10.62 156.87, 0 179.37, 0 179.37, 10.62 201.87, 10.62 201.87, 0 224.37, 0 224.37, 10.62 246.87, 10.62 246.87, 0 269.37, 0 269.37, 10.62 291.87, 10.62 291.87, 0 314.37, 0 314.37, 10.62 347.80499999999995, 10.62 347.80499999999995, 0 381.23999999999995, 0 381.23999999999995, 28.935000000000002 370.61999999999995, 28.935000000000002 370.61999999999995, 57.870000000000005 381.23999999999995, 57.870000000000005 381.23999999999995, 80.37 370.61999999999995, 80.37 370.61999999999995, 109.305 381.23999999999995, 109.305 381.24, 138.24 347.80499999999995, 138.24 347.80499999999995, 127.62 314.37, 127.62 314.37, 138.24 291.87, 138.24 291.87, 127.62 269.37, 127.62 269.37, 138.24 246.87, 138.24 246.87, 127.62 224.37, 127.62 224.37, 138.24 201.87, 138.24 201.87, 127.62 179.37, 127.62 179.37, 138.24 156.87, 138.24 156.87, 127.62 134.37, 127.62 134.37, 138.24 111.86999999999999, 138.24 111.86999999999999, 127.62 89.36999999999999, 127.62 89.36999999999999, 138.24 66.86999999999999, 138.24 66.86999999999999, 127.62 33.434999999999995, 127.62 33.434999999999995, 138.24 0, 138.24 0, 109.305 10.62, 109.305 10.62, 80.37 0, 80.37 0, 57.870000000000005 10.62, 57.870000000000005 10.62, 28.935000000000002 0, 28.935000000000002 "
       id="polygon6" />
  </g>
  <!-- Back-->
  <g
     transform="translate(403.73999999999995, 22.5) "
     id="g8">
    <polygon
       style="stroke:#000000; fill:none; stroke-width:0.9"
       points="0, 0 33.434999999999995, 0 33.434999999999995, 10.62 66.86999999999999, 10.62 66.86999999999999, 0 89.36999999999999, 0 89.36999999999999, 10.62 111.86999999999999, 10.62 111.86999999999999, 0 134.37, 0 134.37, 10.62 156.87, 10.62 156.87, 0 179.37, 0 179.37, 10.62 201.87, 10.62 201.87, 0 224.37, 0 224.37, 10.62 246.87, 10.62 246.87, 0 269.37, 0 269.37, 10.62 291.87, 10.62 291.87, 0 314.37, 0 314.37, 10.62 347.80499999999995, 10.62 347.80499999999995, 0 381.23999999999995, 0 381.23999999999995, 28.935000000000002 370.61999999999995, 28.935000000000002 370.61999999999995, 57.870000000000005 381.23999999999995, 57.870000000000005 381.23999999999995, 80.37 370.61999999999995, 80.37 370.61999999999995, 109.305 381.23999999999995, 109.305 381.24, 138.24 347.80499999999995, 138.24 347.80499999999995, 127.62 314.37, 127.62 314.37, 138.24 291.87, 138.24 291.87, 127.62 269.37, 127.62 269.37, 138.24 246.87, 138.24 246.87, 127.62 224.37, 127.62 224.37, 138.24 201.87, 138.24 201.87, 127.62 179.37, 127.62 179.37, 138.24 156.87, 138.24 156.87, 127.62 134.37, 127.62 134.37, 138.24 111.86999999999999, 138.24 111.86999999999999, 127.62 89.36999999999999, 127.62 89.36999999999999, 138.24 66.86999999999999, 138.24 66.86999999999999, 127.62 33.434999999999995, 127.62 33.434999999999995, 138.24 0, 138.24 0, 109.305 10.62, 109.305 10.62, 80.37 0, 80.37 0, 57.870000000000005 10.62, 57.870000000000005 10.62, 28.935000000000002 0, 28.935000000000002 "
       id="polygon10" />
  </g>
  <!-- Left-->
  <g
     transform="translate(784.9799999999999, 22.5) "
     id="g12">
    <polygon
       style="stroke:#000000; fill:none; stroke-width:0.9"
       points="10.62, 0 33.434999999999995, 0 33.434999999999995, 10.62 66.86999999999999, 10.62 66.86999999999999, 0 89.36999999999999, 0 89.36999999999999, 10.62 111.86999999999999, 10.62 111.86999999999999, 0 134.37, 0 134.37, 10.62 156.87, 10.62 156.87, 0 179.37, 0 179.37, 10.62 201.87, 10.62 201.87, 0 224.37, 0 224.37, 10.62 246.87, 10.62 246.87, 0 269.37, 0 269.37, 10.62 291.87, 10.62 291.87, 0 314.37, 0 314.37, 10.62 336.87, 10.62 336.87, 0 359.37, 0 359.37, 10.62 381.87, 10.62 381.87, 0 404.37, 0 404.37, 10.62 437.80499999999995, 10.62 437.80499999999995, 0 460.61999999999995, 0 460.61999999999995, 28.935000000000002 471.23999999999995, 28.935000000000002 471.23999999999995, 57.870000000000005 460.61999999999995, 57.870000000000005 460.61999999999995, 80.37 471.23999999999995, 80.37 471.23999999999995, 109.305 460.61999999999995, 109.305 460.62, 138.24 437.80499999999995, 138.24 437.80499999999995, 127.62 404.37, 127.62 404.37, 138.24 381.87, 138.24 381.87, 127.62 359.37, 127.62 359.37, 138.24 336.87, 138.24 336.87, 127.62 314.37, 127.62 314.37, 138.24 291.87, 138.24 291.87, 127.62 269.37, 127.62 269.37, 138.24 246.87, 138.24 246.87, 127.62 224.37, 127.62 224.37, 138.24 201.87, 138.24 201.87, 127.62 179.37, 127.62 179.37, 138.24 156.87, 138.24 156.87, 127.62 134.37, 127.62 134.37, 138.24 111.86999999999999, 138.24 111.86999999999999, 127.62 89.36999999999999, 127.62 89.36999999999999, 138.24 66.86999999999999, 138.24 66.86999999999999, 127.62 33.434999999999995, 127.62 33.434999999999995, 138.24 10.62, 138.24 10.62, 109.305 0, 109.305 0, 80.37 10.62, 80.37 10.62, 57.870000000000005 0, 57.870000000000005 0, 28.935000000000002 10.62, 28.935000000000002 "
       id="polygon14" />
  </g>
  <!-- Right-->
  <g
     transform="translate(784.9799999999999, 160.74) "
     id="g16">
    <polygon
       style="stroke:#000000; fill:none; stroke-width:0.9"
       points="10.62, 0 33.434999999999995, 0 33.434999999999995, 10.62 66.86999999999999, 10.62 66.86999999999999, 0 89.36999999999999, 0 89.36999999999999, 10.62 111.86999999999999, 10.62 111.86999999999999, 0 134.37, 0 134.37, 10.62 156.87, 10.62 156.87, 0 179.37, 0 179.37, 10.62 201.87, 10.62 201.87, 0 224.37, 0 224.37, 10.62 246.87, 10.62 246.87, 0 269.37, 0 269.37, 10.62 291.87, 10.62 291.87, 0 314.37, 0 314.37, 10.62 336.87, 10.62 336.87, 0 359.37, 0 359.37, 10.62 381.87, 10.62 381.87, 0 404.37, 0 404.37, 10.62 437.80499999999995, 10.62 437.80499999999995, 0 460.61999999999995, 0 460.61999999999995, 28.935000000000002 471.23999999999995, 28.935000000000002 471.23999999999995, 57.870000000000005 460.61999999999995, 57.870000000000005 460.61999999999995, 80.37 471.23999999999995, 80.37 471.23999999999995, 109.305 460.61999999999995, 109.305 460.62, 138.24 437.80499999999995, 138.24 437.80499999999995, 127.62 404.37, 127.62 404.37, 138.24 381.87, 138.24 381.87, 127.62 359.37, 127.62 359.37, 138.24 336.87, 138.24 336.87, 127.62 314.37, 127.62 314.37, 138.24 291.87, 138.24 291.87, 127.62 269.37, 127.62 269.37, 138.24 246.87, 138.24 246.87, 127.62 224.37, 127.62 224.37, 138.24 201.87, 138.24 201.87, 127.62 179.37, 127.62 179.37, 138.24 156.87, 138.24 156.87, 127.62 134.37, 127.62 134.37, 138.24 111.86999999999999, 138.24 111.86999999999999, 127.62 89.36999999999999, 127.62 89.36999999999999, 138.24 66.86999999999999, 138.24 66.86999999999999, 127.62 33.434999999999995, 127.62 33.434999999999995, 138.24 10.62, 138.24 10.62, 109.305 0, 109.305 0, 80.37 10.62, 80.37 10.62, 57.870000000000005 0, 57.870000000000005 0, 28.935000000000002 10.62, 28.935000000000002 "
       id="polygon18" />
  </g>
  <!-- Top-->
  <g
     transform="translate(22.5, 160.74) "
     id="g20">
    <polygon
       style="stroke:#000000; fill:none; stroke-width:0.9"
       points="10.62, 10.62 33.434999999999995, 10.62 33.434999999999995, 0 66.86999999999999, 0 66.86999999999999, 10.62 89.36999999999999, 10.62 89.36999999999999, 0 111.86999999999999, 0 111.86999999999999, 10.62 134.37, 10.62 134.37, 0 156.87, 0 156.87, 10.62 179.37, 10.62 179.37, 0 201.87, 0 201.87, 10.62 224.37, 10.62 224.37, 0 246.87, 0 246.87, 10.62 269.37, 10.62 269.37, 0 291.87, 0 291.87, 10.62 314.37, 10.62 314.37, 0 347.80499999999995, 0 347.80499999999995, 10.62 370.61999999999995, 10.62 370.61999999999995, 33.434999999999995 381.23999999999995, 33.434999999999995 381.23999999999995, 66.86999999999999 370.61999999999995, 66.86999999999999 370.61999999999995, 89.36999999999999 381.23999999999995, 89.36999999999999 381.23999999999995, 111.86999999999999 370.61999999999995, 111.86999999999999 370.61999999999995, 134.37 381.23999999999995, 134.37 381.23999999999995, 156.87 370.61999999999995, 156.87 370.61999999999995, 179.37 381.23999999999995, 179.37 381.23999999999995, 201.87 370.61999999999995, 201.87 370.61999999999995, 224.37 381.23999999999995, 224.37 381.23999999999995, 246.87 370.61999999999995, 246.87 370.61999999999995, 269.37 381.23999999999995, 269.37 381.23999999999995, 291.87 370.61999999999995, 291.87 370.61999999999995, 314.37 381.23999999999995, 314.37 381.23999999999995, 336.87 370.61999999999995, 336.87 370.61999999999995, 359.37 381.23999999999995, 359.37 381.23999999999995, 381.87 370.61999999999995, 381.87 370.61999999999995, 404.37 381.23999999999995, 404.37 381.23999999999995, 437.80499999999995 370.61999999999995, 437.80499999999995 370.62, 460.61999999999995 347.80499999999995, 460.61999999999995 347.80499999999995, 471.23999999999995 314.37, 471.23999999999995 314.37, 460.61999999999995 291.87, 460.61999999999995 291.87, 471.23999999999995 269.37, 471.23999999999995 269.37, 460.61999999999995 246.87, 460.61999999999995 246.87, 471.23999999999995 224.37, 471.23999999999995 224.37, 460.61999999999995 201.87, 460.61999999999995 201.87, 471.23999999999995 179.37, 471.23999999999995 179.37, 460.61999999999995 156.87, 460.61999999999995 156.87, 471.23999999999995 134.37, 471.23999999999995 134.37, 460.61999999999995 111.86999999999999, 460.61999999999995 111.86999999999999, 471.23999999999995 89.36999999999999, 471.23999999999995 89.36999999999999, 460.61999999999995 66.86999999999999, 460.61999999999995 66.86999999999999, 471.23999999999995 33.434999999999995, 471.23999999999995 33.434999999999995, 460.61999999999995 10.62, 460.62 10.62, 437.80499999999995 0, 437.80499999999995 0, 404.37 10.62, 404.37 10.62, 381.87 0, 381.87 0, 359.37 10.62, 359.37 10.62, 336.87 0, 336.87 0, 314.37 10.62, 314.37 10.62, 291.87 0, 291.87 0, 269.37 10.62, 269.37 10.62, 246.87 0, 246.87 0, 224.37 10.62, 224.37 10.62, 201.87 0, 201.87 0, 179.37 10.62, 179.37 10.62, 156.87 0, 156.87 0, 134.37 10.62, 134.37 10.62, 111.86999999999999 0, 111.86999999999999 0, 89.36999999999999 10.62, 89.36999999999999 10.62, 66.86999999999999 0, 66.86999999999999 0, 33.434999999999995 10.62, 33.434999999999995 "
       id="polygon22" />
  </g>
  <!-- Bottom-->
  <g
     transform="translate(403.73999999999995, 160.74) "
     id="g24">
    <polygon
       style="stroke:#000000; fill:none; stroke-width:0.9"
       points="10.62, 10.62 33.434999999999995, 10.62 33.434999999999995, 0 66.86999999999999, 0 66.86999999999999, 10.62 89.36999999999999, 10.62 89.36999999999999, 0 111.86999999999999, 0 111.86999999999999, 10.62 134.37, 10.62 134.37, 0 156.87, 0 156.87, 10.62 179.37, 10.62 179.37, 0 201.87, 0 201.87, 10.62 224.37, 10.62 224.37, 0 246.87, 0 246.87, 10.62 269.37, 10.62 269.37, 0 291.87, 0 291.87, 10.62 314.37, 10.62 314.37, 0 347.80499999999995, 0 347.80499999999995, 10.62 370.61999999999995, 10.62 370.61999999999995, 33.434999999999995 381.23999999999995, 33.434999999999995 381.23999999999995, 66.86999999999999 370.61999999999995, 66.86999999999999 370.61999999999995, 89.36999999999999 381.23999999999995, 89.36999999999999 381.23999999999995, 111.86999999999999 370.61999999999995, 111.86999999999999 370.61999999999995, 134.37 381.23999999999995, 134.37 381.23999999999995, 156.87 370.61999999999995, 156.87 370.61999999999995, 179.37 381.23999999999995, 179.37 381.23999999999995, 201.87 370.61999999999995, 201.87 370.61999999999995, 224.37 381.23999999999995, 224.37 381.23999999999995, 246.87 370.61999999999995, 246.87 370.61999999999995, 269.37 381.23999999999995, 269.37 381.23999999999995, 291.87 370.61999999999995, 291.87 370.61999999999995, 314.37 381.23999999999995, 314.37 381.23999999999995, 336.87 370.61999999999995, 336.87 370.61999999999995, 359.37 381.23999999999995, 359.37 381.23999999999995, 381.87 370.61999999999995, 381.87 370.61999999999995, 404.37 381.23999999999995, 404.37 381.23999999999995, 437.80499999999995 370.61999999999995, 437.80499999999995 370.62, 460.61999999999995 347.80499999999995, 460.61999999999995 347.80499999999995, 471.23999999999995 314.37, 471.23999999999995 314.37, 460.61999999999995 291.87, 460.61999999999995 291.87, 471.23999999999995 269.37, 471.23999999999995 269.37, 460.61999999999995 246.87, 460.61999999999995 246.87, 471.23999999999995 224.37, 471.23999999999995 224.37, 460.61999999999995 201.87, 460.61999999999995 201.87, 471.23999999999995 179.37, 471.23999999999995 179.37, 460.61999999999995 156.87, 460.61999999999995 156.87, 471.23999999999995 134.37, 471.23999999999995 134.37, 460.61999999999995 111.86999999999999, 460.61999999999995 111.86999999999999, 471.23999999999995 89.36999999999999, 471.23999999999995 89.36999999999999, 460.61999999999995 66.86999999999999, 460.61999999999995 66.86999999999999, 471.23999999999995 33.434999999999995, 471.23999999999995 33.434999999999995, 460.61999999999995 10.62, 460.62 10.62, 437.80499999999995 0, 437.80499999999995 0, 404.37 10.62, 404.37 10.62, 381.87 0, 381.87 0, 359.37 10.62, 359.37 10.62, 336.87 0, 336.87 0, 314.37 10.62, 314.37 10.62, 291.87 0, 291.87 0, 269.37 10.62, 269.37 10.62, 246.87 0, 246.87 0, 224.37 10.62, 224.37 10.62, 201.87 0, 201.87 0, 179.37 10.62, 179.37 10.62, 156.87 0, 156.87 0, 134.37 10.62, 134.37 10.62, 111.86999999999999 0, 111.86999999999999 0, 89.36999999999999 10.62, 89.36999999999999 10.62, 66.86999999999999 0, 66.86999999999999 0, 33.434999999999995 10.62, 33.434999999999995 "
       id="polygon26" />
  </g>
  <rect
     style="opacity:1;fill:none;stroke:#000000;stroke-width:0.99000001;stroke-miterlimit:4;stroke-dasharray:none"
     id="rect4160"
     width="45"
     height="42.299999"
     x="332.34418"
     y="96.465515" />
  <circle
     style="opacity:1;fill:none;stroke:#000000;stroke-width:1.02081013;stroke-miterlimit:4;stroke-dasharray:none"
     id="path4162"
     cx="64.533417"
     cy="62.501469"
     r="18.209595" />
  <rect
     style="opacity:1;fill:none;stroke:#000000;stroke-width:0.99000001;stroke-miterlimit:4;stroke-dasharray:none"
     id="rect4164"
     width="71.279999"
     height="29.610001"
     x="112.23907"
     y="47.696468" />
</svg>
