<svg xmlns="http://www.w3.org/2000/svg" version="1.1" width="14.207999999999998in" height="7.282in" viewBox = " 0 0 1278.7199999999998 655.38" >
<!-- Front--> 
<g transform="translate(22.5, 22.5) " > 
<polygon style="stroke:#000000; fill:none; stroke-width:0.9" points="0, 0 34.55999999999999, 0 34.55999999999999, 10.62 69.11999999999998, 10.62 69.11999999999998, 0 96.11999999999998, 0 96.11999999999998, 10.62 123.11999999999998, 10.62 123.11999999999998, 0 150.11999999999998, 0 150.11999999999998, 10.62 177.11999999999998, 10.62 177.11999999999998, 0 204.11999999999998, 0 204.11999999999998, 10.62 231.11999999999998, 10.62 231.11999999999998, 0 258.12, 0 258.12, 10.62 285.12, 10.62 285.12, 0 312.12, 0 312.12, 10.62 346.67999999999995, 10.62 346.67999999999995, 0 381.23999999999995, 0 381.23999999999995, 27.828000000000003 370.61999999999995, 27.828000000000003 370.61999999999995, 55.656000000000006 381.23999999999995, 55.656000000000006 381.23999999999995, 83.48400000000001 370.61999999999995, 83.48400000000001 370.61999999999995, 111.31200000000001 381.23999999999995, 111.31200000000001 381.23999999999995, 139.14000000000001 346.67999999999995, 139.14000000000001 346.67999999999995, 128.52 312.12, 128.52 312.12, 139.14000000000001 285.12, 139.14000000000001 285.12, 128.52 258.12, 128.52 258.12, 139.14000000000001 231.11999999999998, 139.14000000000001 231.11999999999998, 128.52 204.11999999999998, 128.52 204.11999999999998, 139.14000000000001 177.11999999999998, 139.14000000000001 177.11999999999998, 128.52 150.11999999999998, 128.52 150.11999999999998, 139.14000000000001 123.11999999999998, 139.14000000000001 123.11999999999998, 128.52 96.11999999999998, 128.52 96.11999999999998, 139.14000000000001 69.11999999999998, 139.14000000000001 69.11999999999998, 128.52 34.55999999999999, 128.52 34.55999999999999, 139.14000000000001 0, 139.14000000000001 0, 111.31200000000001 10.62, 111.31200000000001 10.62, 83.48400000000001 0, 83.48400000000001 0, 55.656000000000006 10.62, 55.656000000000006 10.62, 27.828000000000003 0, 27.828000000000003 "/> 
</g>
<!-- Back--> 
<g transform="translate(403.73999999999995, 22.5) " > 
<polygon style="stroke:#000000; fill:none; stroke-width:0.9" points="0, 0 34.55999999999999, 0 34.55999999999999, 10.62 69.11999999999998, 10.62 69.11999999999998, 0 96.11999999999998, 0 96.11999999999998, 10.62 123.11999999999998, 10.62 123.11999999999998, 0 150.11999999999998, 0 150.11999999999998, 10.62 177.11999999999998, 10.62 177.11999999999998, 0 204.11999999999998, 0 204.11999999999998, 10.62 231.11999999999998, 10.62 231.11999999999998, 0 258.12, 0 258.12, 10.62 285.12, 10.62 285.12, 0 312.12, 0 312.12, 10.62 346.67999999999995, 10.62 346.67999999999995, 0 381.23999999999995, 0 381.23999999999995, 27.828000000000003 370.61999999999995, 27.828000000000003 370.61999999999995, 55.656000000000006 381.23999999999995, 55.656000000000006 381.23999999999995, 83.48400000000001 370.61999999999995, 83.48400000000001 370.61999999999995, 111.31200000000001 381.23999999999995, 111.31200000000001 381.23999999999995, 139.14000000000001 346.67999999999995, 139.14000000000001 346.67999999999995, 128.52 312.12, 128.52 312.12, 139.14000000000001 285.12, 139.14000000000001 285.12, 128.52 258.12, 128.52 258.12, 139.14000000000001 231.11999999999998, 139.14000000000001 231.11999999999998, 128.52 204.11999999999998, 128.52 204.11999999999998, 139.14000000000001 177.11999999999998, 139.14000000000001 177.11999999999998, 128.52 150.11999999999998, 128.52 150.11999999999998, 139.14000000000001 123.11999999999998, 139.14000000000001 123.11999999999998, 128.52 96.11999999999998, 128.52 96.11999999999998, 139.14000000000001 69.11999999999998, 139.14000000000001 69.11999999999998, 128.52 34.55999999999999, 128.52 34.55999999999999, 139.14000000000001 0, 139.14000000000001 0, 111.31200000000001 10.62, 111.31200000000001 10.62, 83.48400000000001 0, 83.48400000000001 0, 55.656000000000006 10.62, 55.656000000000006 10.62, 27.828000000000003 0, 27.828000000000003 "/> 
</g>
<!-- Left--> 
<g transform="translate(784.9799999999999, 22.5) " > 
<polygon style="stroke:#000000; fill:none; stroke-width:0.9" points="10.62, 0 43.56, 0 43.56, 10.62 87.12, 10.62 87.12, 0 114.12, 0 114.12, 10.62 141.12, 10.62 141.12, 0 168.12, 0 168.12, 10.62 195.12, 10.62 195.12, 0 222.12, 0 222.12, 10.62 249.12, 10.62 249.12, 0 276.12, 0 276.12, 10.62 303.12, 10.62 303.12, 0 330.12, 0 330.12, 10.62 357.12, 10.62 357.12, 0 384.12, 0 384.12, 10.62 427.68, 10.62 427.68, 0 460.61999999999995, 0 460.61999999999995, 27.828000000000003 471.23999999999995, 27.828000000000003 471.23999999999995, 55.656000000000006 460.61999999999995, 55.656000000000006 460.61999999999995, 83.48400000000001 471.23999999999995, 83.48400000000001 471.23999999999995, 111.31200000000001 460.61999999999995, 111.31200000000001 460.62, 139.14000000000001 427.68, 139.14000000000001 427.68, 128.52 384.12, 128.52 384.12, 139.14000000000001 357.12, 139.14000000000001 357.12, 128.52 330.12, 128.52 330.12, 139.14000000000001 303.12, 139.14000000000001 303.12, 128.52 276.12, 128.52 276.12, 139.14000000000001 249.12, 139.14000000000001 249.12, 128.52 222.12, 128.52 222.12, 139.14000000000001 195.12, 139.14000000000001 195.12, 128.52 168.12, 128.52 168.12, 139.14000000000001 141.12, 139.14000000000001 141.12, 128.52 114.12, 128.52 114.12, 139.14000000000001 87.12, 139.14000000000001 87.12, 128.52 43.56, 128.52 43.56, 139.14000000000001 10.62, 139.14000000000001 10.62, 111.31200000000001 0, 111.31200000000001 0, 83.48400000000001 10.62, 83.48400000000001 10.62, 55.656000000000006 0, 55.656000000000006 0, 27.828000000000003 10.62, 27.828000000000003 "/> 
</g>
<!-- Right--> 
<g transform="translate(784.9799999999999, 161.64000000000001) " > 
<polygon style="stroke:#000000; fill:none; stroke-width:0.9" points="10.62, 0 43.56, 0 43.56, 10.62 87.12, 10.62 87.12, 0 114.12, 0 114.12, 10.62 141.12, 10.62 141.12, 0 168.12, 0 168.12, 10.62 195.12, 10.62 195.12, 0 222.12, 0 222.12, 10.62 249.12, 10.62 249.12, 0 276.12, 0 276.12, 10.62 303.12, 10.62 303.12, 0 330.12, 0 330.12, 10.62 357.12, 10.62 357.12, 0 384.12, 0 384.12, 10.62 427.68, 10.62 427.68, 0 460.61999999999995, 0 460.61999999999995, 27.828000000000003 471.23999999999995, 27.828000000000003 471.23999999999995, 55.656000000000006 460.61999999999995, 55.656000000000006 460.61999999999995, 83.48400000000001 471.23999999999995, 83.48400000000001 471.23999999999995, 111.31200000000001 460.61999999999995, 111.31200000000001 460.62, 139.14000000000001 427.68, 139.14000000000001 427.68, 128.52 384.12, 128.52 384.12, 139.14000000000001 357.12, 139.14000000000001 357.12, 128.52 330.12, 128.52 330.12, 139.14000000000001 303.12, 139.14000000000001 303.12, 128.52 276.12, 128.52 276.12, 139.14000000000001 249.12, 139.14000000000001 249.12, 128.52 222.12, 128.52 222.12, 139.14000000000001 195.12, 139.14000000000001 195.12, 128.52 168.12, 128.52 168.12, 139.14000000000001 141.12, 139.14000000000001 141.12, 128.52 114.12, 128.52 114.12, 139.14000000000001 87.12, 139.14000000000001 87.12, 128.52 43.56, 128.52 43.56, 139.14000000000001 10.62, 139.14000000000001 10.62, 111.31200000000001 0, 111.31200000000001 0, 83.48400000000001 10.62, 83.48400000000001 10.62, 55.656000000000006 0, 55.656000000000006 0, 27.828000000000003 10.62, 27.828000000000003 "/> 
</g>
<!-- Top--> 
<g transform="translate(22.5, 161.64000000000001) " > 
<polygon style="stroke:#000000; fill:none; stroke-width:0.9" points="10.62, 10.62 34.55999999999999, 10.62 34.55999999999999, 0 69.11999999999998, 0 69.11999999999998, 10.62 96.11999999999998, 10.62 96.11999999999998, 0 123.11999999999998, 0 123.11999999999998, 10.62 150.11999999999998, 10.62 150.11999999999998, 0 177.11999999999998, 0 177.11999999999998, 10.62 204.11999999999998, 10.62 204.11999999999998, 0 231.11999999999998, 0 231.11999999999998, 10.62 258.12, 10.62 258.12, 0 285.12, 0 285.12, 10.62 312.12, 10.62 312.12, 0 346.67999999999995, 0 346.67999999999995, 10.62 370.61999999999995, 10.62 370.61999999999995, 43.56 381.23999999999995, 43.56 381.23999999999995, 87.12 370.61999999999995, 87.12 370.61999999999995, 114.12 381.23999999999995, 114.12 381.23999999999995, 141.12 370.61999999999995, 141.12 370.61999999999995, 168.12 381.23999999999995, 168.12 381.23999999999995, 195.12 370.61999999999995, 195.12 370.61999999999995, 222.12 381.23999999999995, 222.12 381.23999999999995, 249.12 370.61999999999995, 249.12 370.61999999999995, 276.12 381.23999999999995, 276.12 381.23999999999995, 303.12 370.61999999999995, 303.12 370.61999999999995, 330.12 381.23999999999995, 330.12 381.23999999999995, 357.12 370.61999999999995, 357.12 370.61999999999995, 384.12 381.23999999999995, 384.12 381.23999999999995, 427.68 370.61999999999995, 427.68 370.61999999999995, 460.61999999999995 346.67999999999995, 460.61999999999995 346.67999999999995, 471.23999999999995 312.12, 471.23999999999995 312.12, 460.61999999999995 285.12, 460.61999999999995 285.12, 471.23999999999995 258.12, 471.23999999999995 258.12, 460.61999999999995 231.11999999999998, 460.61999999999995 231.11999999999998, 471.23999999999995 204.11999999999998, 471.23999999999995 204.11999999999998, 460.61999999999995 177.11999999999998, 460.61999999999995 177.11999999999998, 471.23999999999995 150.11999999999998, 471.23999999999995 150.11999999999998, 460.61999999999995 123.11999999999998, 460.61999999999995 123.11999999999998, 471.23999999999995 96.11999999999998, 471.23999999999995 96.11999999999998, 460.61999999999995 69.11999999999998, 460.61999999999995 69.11999999999998, 471.23999999999995 34.55999999999999, 471.23999999999995 34.55999999999999, 460.61999999999995 10.62, 460.62 10.62, 427.68 0, 427.68 0, 384.12 10.62, 384.12 10.62, 357.12 0, 357.12 0, 330.12 10.62, 330.12 10.62, 303.12 0, 303.12 0, 276.12 10.62, 276.12 10.62, 249.12 0, 249.12 0, 222.12 10.62, 222.12 10.62, 195.12 0, 195.12 0, 168.12 10.62, 168.12 10.62, 141.12 0, 141.12 0, 114.12 10.62, 114.12 10.62, 87.12 0, 87.12 0, 43.56 10.62, 43.56 "/> 
</g>
<!-- Bottom--> 
<g transform="translate(403.73999999999995, 161.64000000000001) " > 
<polygon style="stroke:#000000; fill:none; stroke-width:0.9" points="10.62, 10.62 34.55999999999999, 10.62 34.55999999999999, 0 69.11999999999998, 0 69.11999999999998, 10.62 96.11999999999998, 10.62 96.11999999999998, 0 123.11999999999998, 0 123.11999999999998, 10.62 150.11999999999998, 10.62 150.11999999999998, 0 177.11999999999998, 0 177.11999999999998, 10.62 204.11999999999998, 10.62 204.11999999999998, 0 231.11999999999998, 0 231.11999999999998, 10.62 258.12, 10.62 258.12, 0 285.12, 0 285.12, 10.62 312.12, 10.62 312.12, 0 346.67999999999995, 0 346.67999999999995, 10.62 370.61999999999995, 10.62 370.61999999999995, 43.56 381.23999999999995, 43.56 381.23999999999995, 87.12 370.61999999999995, 87.12 370.61999999999995, 114.12 381.23999999999995, 114.12 381.23999999999995, 141.12 370.61999999999995, 141.12 370.61999999999995, 168.12 381.23999999999995, 168.12 381.23999999999995, 195.12 370.61999999999995, 195.12 370.61999999999995, 222.12 381.23999999999995, 222.12 381.23999999999995, 249.12 370.61999999999995, 249.12 370.61999999999995, 276.12 381.23999999999995, 276.12 381.23999999999995, 303.12 370.61999999999995, 303.12 370.61999999999995, 330.12 381.23999999999995, 330.12 381.23999999999995, 357.12 370.61999999999995, 357.12 370.61999999999995, 384.12 381.23999999999995, 384.12 381.23999999999995, 427.68 370.61999999999995, 427.68 370.61999999999995, 460.61999999999995 346.67999999999995, 460.61999999999995 346.67999999999995, 471.23999999999995 312.12, 471.23999999999995 312.12, 460.61999999999995 285.12, 460.61999999999995 285.12, 471.23999999999995 258.12, 471.23999999999995 258.12, 460.61999999999995 231.11999999999998, 460.61999999999995 231.11999999999998, 471.23999999999995 204.11999999999998, 471.23999999999995 204.11999999999998, 460.61999999999995 177.11999999999998, 460.61999999999995 177.11999999999998, 471.23999999999995 150.11999999999998, 471.23999999999995 150.11999999999998, 460.61999999999995 123.11999999999998, 460.61999999999995 123.11999999999998, 471.23999999999995 96.11999999999998, 471.23999999999995 96.11999999999998, 460.61999999999995 69.11999999999998, 460.61999999999995 69.11999999999998, 471.23999999999995 34.55999999999999, 471.23999999999995 34.55999999999999, 460.61999999999995 10.62, 460.62 10.62, 427.68 0, 427.68 0, 384.12 10.62, 384.12 10.62, 357.12 0, 357.12 0, 330.12 10.62, 330.12 10.62, 303.12 0, 303.12 0, 276.12 10.62, 276.12 10.62, 249.12 0, 249.12 0, 222.12 10.62, 222.12 10.62, 195.12 0, 195.12 0, 168.12 10.62, 168.12 10.62, 141.12 0, 141.12 0, 114.12 10.62, 114.12 10.62, 87.12 0, 87.12 0, 43.56 10.62, 43.56 "/> 
</g></svg>