<?xml version="1.0" encoding="UTF-8" standalone="no"?>
<svg
   xmlns:dc="http://purl.org/dc/elements/1.1/"
   xmlns:cc="http://creativecommons.org/ns#"
   xmlns:rdf="http://www.w3.org/1999/02/22-rdf-syntax-ns#"
   xmlns:svg="http://www.w3.org/2000/svg"
   xmlns="http://www.w3.org/2000/svg"
   xmlns:sodipodi="http://sodipodi.sourceforge.net/DTD/sodipodi-0.dtd"
   xmlns:inkscape="http://www.inkscape.org/namespaces/inkscape"
   version="1.1"
   width="322.7mm"
   height="242.7mm"
   viewBox=" 0 0 1143.426137 859.961337"
   id="svg2"
   inkscape:version="0.91 r13725"
   sodipodi:docname="caseplans.svg">
  <metadata
     id="metadata32">
    <rdf:RDF>
      <cc:Work
         rdf:about="">
        <dc:format>image/svg+xml</dc:format>
        <dc:type
           rdf:resource="http://purl.org/dc/dcmitype/StillImage" />
        <dc:title></dc:title>
      </cc:Work>
    </rdf:RDF>
  </metadata>
  <defs
     id="defs30" />
  <sodipodi:namedview
     pagecolor="#ffffff"
     bordercolor="#666666"
     borderopacity="1"
     objecttolerance="10"
     gridtolerance="10"
     guidetolerance="10"
     inkscape:pageopacity="0"
     inkscape:pageshadow="2"
     inkscape:window-width="1536"
     inkscape:window-height="801"
     id="namedview28"
     showgrid="false"
     inkscape:zoom="0.71240951"
     inkscape:cx="514.02118"
     inkscape:cy="473.69157"
     inkscape:window-x="-8"
     inkscape:window-y="-8"
     inkscape:window-maximized="1"
     inkscape:current-layer="svg2" />
  <!-- Front-->
  <!-- Back-->
  <g
     transform="translate(235.0986185, 22.5000185) "
     id="g8">
    <polygon
       style="stroke:#000000; fill:none; stroke-width:0.90000074"
       points="0, 0 26.574825, 0 26.574825, 10.62993 53.14965, 10.62993 53.14965, 0 74.40951, 0 74.40951, 10.62993 95.66937, 10.62993 95.66937, 0 116.92922999999999, 0 116.92922999999999, 10.62993 138.18909, 10.62993 138.18909, 0 159.44895, 0 159.44895, 10.62993 186.023775, 10.62993 186.023775, 0 212.5986, 0 212.5986, 30.118135 201.96867, 30.118135 201.96867, 60.23627 212.5986, 60.23627 212.5986, 81.49613 201.96867, 81.49613 201.96867, 111.614265 212.5986, 111.614265 212.5986, 141.73239999999998 186.023775, 141.73239999999998 186.023775, 131.10246999999998 159.44895, 131.10246999999998 159.44895, 141.73239999999998 138.18909, 141.73239999999998 138.18909, 131.10246999999998 116.92922999999999, 131.10246999999998 116.92922999999999, 141.73239999999998 95.66937, 141.73239999999998 95.66937, 131.10246999999998 74.40951, 131.10246999999998 74.40951, 141.73239999999998 53.14965, 141.73239999999998 53.14965, 131.10246999999998 26.574825, 131.10246999999998 26.574825, 141.73239999999998 0, 141.73239999999998 0, 111.614265 10.62993, 111.614265 10.62993, 81.49613 0, 81.49613 0, 60.23627 10.62993, 60.23627 10.62993, 30.118135 0, 30.118135 "
       id="polygon10" />
  </g>
  <!-- Left-->
  <g
     transform="translate(447.69721849999996, 22.5000185) "
     id="g12">
    <polygon
       style="stroke:#000000; fill:none; stroke-width:0.90000074"
       points="10.62993, 0 35.433099999999996, 0 35.433099999999996, 10.62993 70.86619999999999, 10.62993 70.86619999999999, 0 92.12606, 0 92.12606, 10.62993 113.38592, 10.62993 113.38592, 0 134.64578, 0 134.64578, 10.62993 155.90564, 10.62993 155.90564, 0 177.1655, 0 177.1655, 10.62993 198.42535999999998, 10.62993 198.42535999999998, 0 219.68522, 0 219.68522, 10.62993 240.94508, 10.62993 240.94508, 0 262.20493999999997, 0 262.20493999999997, 10.62993 283.46479999999997, 10.62993 283.46479999999997, 0 304.72466, 0 304.72466, 10.62993 325.98452, 10.62993 325.98452, 0 347.24438, 0 347.24438, 10.62993 368.50424, 10.62993 368.50424, 0 389.7641, 0 389.7641, 10.62993 411.02396, 10.62993 411.02396, 0 432.28382, 0 432.28382, 10.62993 453.54368, 10.62993 453.54368, 0 474.80354, 0 474.80354, 10.62993 496.0634, 10.62993 496.0634, 0 517.32326, 0 517.32326, 10.62993 538.58312, 10.62993 538.58312, 0 559.84298, 0 559.84298, 10.62993 581.10284, 10.62993 581.10284, 0 602.3626999999999, 0 602.3626999999999, 10.62993 637.7958, 10.62993 637.7958, 0 662.59897, 0 662.59897, 30.118135 673.2289, 30.118135 673.2289, 60.23627 662.59897, 60.23627 662.59897, 81.49613 673.2289, 81.49613 673.2289, 111.614265 662.59897, 111.614265 662.59897, 141.73239999999998 637.7958, 141.73239999999998 637.7958, 131.10246999999998 602.3626999999999, 131.10246999999998 602.3626999999999, 141.73239999999998 581.10284, 141.73239999999998 581.10284, 131.10246999999998 559.84298, 131.10246999999998 559.84298, 141.73239999999998 538.58312, 141.73239999999998 538.58312, 131.10246999999998 517.32326, 131.10246999999998 517.32326, 141.73239999999998 496.0634, 141.73239999999998 496.0634, 131.10246999999998 474.80354, 131.10246999999998 474.80354, 141.73239999999998 453.54368, 141.73239999999998 453.54368, 131.10246999999998 432.28382, 131.10246999999998 432.28382, 141.73239999999998 411.02396, 141.73239999999998 411.02396, 131.10246999999998 389.7641, 131.10246999999998 389.7641, 141.73239999999998 368.50424, 141.73239999999998 368.50424, 131.10246999999998 347.24438, 131.10246999999998 347.24438, 141.73239999999998 325.98452, 141.73239999999998 325.98452, 131.10246999999998 304.72466, 131.10246999999998 304.72466, 141.73239999999998 283.46479999999997, 141.73239999999998 283.46479999999997, 131.10246999999998 262.20493999999997, 131.10246999999998 262.20493999999997, 141.73239999999998 240.94508, 141.73239999999998 240.94508, 131.10246999999998 219.68522, 131.10246999999998 219.68522, 141.73239999999998 198.42535999999998, 141.73239999999998 198.42535999999998, 131.10246999999998 177.1655, 131.10246999999998 177.1655, 141.73239999999998 155.90564, 141.73239999999998 155.90564, 131.10246999999998 134.64578, 131.10246999999998 134.64578, 141.73239999999998 113.38592, 141.73239999999998 113.38592, 131.10246999999998 92.12606, 131.10246999999998 92.12606, 141.73239999999998 70.86619999999999, 141.73239999999998 70.86619999999999, 131.10246999999998 35.433099999999996, 131.10246999999998 35.433099999999996, 141.73239999999998 10.62993, 141.73239999999998 10.62993, 111.614265 0, 111.614265 0, 81.49613 10.62993, 81.49613 10.62993, 60.23627 0, 60.23627 0, 30.118135 10.62993, 30.118135 "
       id="polygon14" />
  </g>
  <!-- Right-->
  <g
     transform="translate(447.69721849999996, 164.2324185) "
     id="g16">
    <polygon
       style="stroke:#000000; fill:none; stroke-width:0.90000074"
       points="10.62993, 0 35.433099999999996, 0 35.433099999999996, 10.62993 70.86619999999999, 10.62993 70.86619999999999, 0 92.12606, 0 92.12606, 10.62993 113.38592, 10.62993 113.38592, 0 134.64578, 0 134.64578, 10.62993 155.90564, 10.62993 155.90564, 0 177.1655, 0 177.1655, 10.62993 198.42535999999998, 10.62993 198.42535999999998, 0 219.68522, 0 219.68522, 10.62993 240.94508, 10.62993 240.94508, 0 262.20493999999997, 0 262.20493999999997, 10.62993 283.46479999999997, 10.62993 283.46479999999997, 0 304.72466, 0 304.72466, 10.62993 325.98452, 10.62993 325.98452, 0 347.24438, 0 347.24438, 10.62993 368.50424, 10.62993 368.50424, 0 389.7641, 0 389.7641, 10.62993 411.02396, 10.62993 411.02396, 0 432.28382, 0 432.28382, 10.62993 453.54368, 10.62993 453.54368, 0 474.80354, 0 474.80354, 10.62993 496.0634, 10.62993 496.0634, 0 517.32326, 0 517.32326, 10.62993 538.58312, 10.62993 538.58312, 0 559.84298, 0 559.84298, 10.62993 581.10284, 10.62993 581.10284, 0 602.3626999999999, 0 602.3626999999999, 10.62993 637.7958, 10.62993 637.7958, 0 662.59897, 0 662.59897, 30.118135 673.2289, 30.118135 673.2289, 60.23627 662.59897, 60.23627 662.59897, 81.49613 673.2289, 81.49613 673.2289, 111.614265 662.59897, 111.614265 662.59897, 141.73239999999998 637.7958, 141.73239999999998 637.7958, 131.10246999999998 602.3626999999999, 131.10246999999998 602.3626999999999, 141.73239999999998 581.10284, 141.73239999999998 581.10284, 131.10246999999998 559.84298, 131.10246999999998 559.84298, 141.73239999999998 538.58312, 141.73239999999998 538.58312, 131.10246999999998 517.32326, 131.10246999999998 517.32326, 141.73239999999998 496.0634, 141.73239999999998 496.0634, 131.10246999999998 474.80354, 131.10246999999998 474.80354, 141.73239999999998 453.54368, 141.73239999999998 453.54368, 131.10246999999998 432.28382, 131.10246999999998 432.28382, 141.73239999999998 411.02396, 141.73239999999998 411.02396, 131.10246999999998 389.7641, 131.10246999999998 389.7641, 141.73239999999998 368.50424, 141.73239999999998 368.50424, 131.10246999999998 347.24438, 131.10246999999998 347.24438, 141.73239999999998 325.98452, 141.73239999999998 325.98452, 131.10246999999998 304.72466, 131.10246999999998 304.72466, 141.73239999999998 283.46479999999997, 141.73239999999998 283.46479999999997, 131.10246999999998 262.20493999999997, 131.10246999999998 262.20493999999997, 141.73239999999998 240.94508, 141.73239999999998 240.94508, 131.10246999999998 219.68522, 131.10246999999998 219.68522, 141.73239999999998 198.42535999999998, 141.73239999999998 198.42535999999998, 131.10246999999998 177.1655, 131.10246999999998 177.1655, 141.73239999999998 155.90564, 141.73239999999998 155.90564, 131.10246999999998 134.64578, 131.10246999999998 134.64578, 141.73239999999998 113.38592, 141.73239999999998 113.38592, 131.10246999999998 92.12606, 131.10246999999998 92.12606, 141.73239999999998 70.86619999999999, 141.73239999999998 70.86619999999999, 131.10246999999998 35.433099999999996, 131.10246999999998 35.433099999999996, 141.73239999999998 10.62993, 141.73239999999998 10.62993, 111.614265 0, 111.614265 0, 81.49613 10.62993, 81.49613 10.62993, 60.23627 0, 60.23627 0, 30.118135 10.62993, 30.118135 "
       id="polygon18" />
  </g>
  <!-- Top-->
  <!-- Bottom-->
  <g
     transform="translate(235.0986185, 164.2324185) "
     id="g24">
    <polygon
       style="stroke:#000000; fill:none; stroke-width:0.90000074"
       points="10.62993, 10.62993 26.574825, 10.62993 26.574825, 0 53.14965, 0 53.14965, 10.62993 74.40951, 10.62993 74.40951, 0 95.66937, 0 95.66937, 10.62993 116.92922999999999, 10.62993 116.92922999999999, 0 138.18909, 0 138.18909, 10.62993 159.44895, 10.62993 159.44895, 0 186.023775, 0 186.023775, 10.62993 201.96867, 10.62993 201.96867, 35.433099999999996 212.5986, 35.433099999999996 212.5986, 70.86619999999999 201.96867, 70.86619999999999 201.96867, 92.12606 212.5986, 92.12606 212.5986, 113.38592 201.96867, 113.38592 201.96867, 134.64578 212.5986, 134.64578 212.5986, 155.90564 201.96867, 155.90564 201.96867, 177.1655 212.5986, 177.1655 212.5986, 198.42535999999998 201.96867, 198.42535999999998 201.96867, 219.68522 212.5986, 219.68522 212.5986, 240.94508 201.96867, 240.94508 201.96867, 262.20493999999997 212.5986, 262.20493999999997 212.5986, 283.46479999999997 201.96867, 283.46479999999997 201.96867, 304.72466 212.5986, 304.72466 212.5986, 325.98452 201.96867, 325.98452 201.96867, 347.24438 212.5986, 347.24438 212.5986, 368.50424 201.96867, 368.50424 201.96867, 389.7641 212.5986, 389.7641 212.5986, 411.02396 201.96867, 411.02396 201.96867, 432.28382 212.5986, 432.28382 212.5986, 453.54368 201.96867, 453.54368 201.96867, 474.80354 212.5986, 474.80354 212.5986, 496.0634 201.96867, 496.0634 201.96867, 517.32326 212.5986, 517.32326 212.5986, 538.58312 201.96867, 538.58312 201.96867, 559.84298 212.5986, 559.84298 212.5986, 581.10284 201.96867, 581.10284 201.96867, 602.3626999999999 212.5986, 602.3626999999999 212.5986, 637.7958 201.96867, 637.7958 201.96867, 662.59897 186.023775, 662.59897 186.023775, 673.2289 159.44895, 673.2289 159.44895, 662.59897 138.18909, 662.59897 138.18909, 673.2289 116.92922999999999, 673.2289 116.92922999999999, 662.59897 95.66937, 662.59897 95.66937, 673.2289 74.40951, 673.2289 74.40951, 662.59897 53.14965, 662.59897 53.14965, 673.2289 26.574825, 673.2289 26.574825, 662.59897 10.62993, 662.59897 10.62993, 637.7958 0, 637.7958 0, 602.3626999999999 10.62993, 602.3626999999999 10.62993, 581.10284 0, 581.10284 0, 559.84298 10.62993, 559.84298 10.62993, 538.58312 0, 538.58312 0, 517.32326 10.62993, 517.32326 10.62993, 496.0634 0, 496.0634 0, 474.80354 10.62993, 474.80354 10.62993, 453.54368 0, 453.54368 0, 432.28382 10.62993, 432.28382 10.62993, 411.02396 0, 411.02396 0, 389.7641 10.62993, 389.7641 10.62993, 368.50424 0, 368.50424 0, 347.24438 10.62993, 347.24438 10.62993, 325.98452 0, 325.98452 0, 304.72466 10.62993, 304.72466 10.62993, 283.46479999999997 0, 283.46479999999997 0, 262.20493999999997 10.62993, 262.20493999999997 10.62993, 240.94508 0, 240.94508 0, 219.68522 10.62993, 219.68522 10.62993, 198.42535999999998 0, 198.42535999999998 0, 177.1655 10.62993, 177.1655 10.62993, 155.90564 0, 155.90564 0, 134.64578 10.62993, 134.64578 10.62993, 113.38592 0, 113.38592 0, 92.12606 10.62993, 92.12606 10.62993, 70.86619999999999 0, 70.86619999999999 0, 35.433099999999996 10.62993, 35.433099999999996 "
       id="polygon26" />
  </g>
  <g
     id="g3383">
    <g
       id="g20"
       transform="translate(22.5000185, 164.2324185) ">
      <polygon
         id="polygon22"
         points="10.62993, 10.62993 26.574825, 10.62993 26.574825, 0 53.14965, 0 53.14965, 10.62993 74.40951, 10.62993 74.40951, 0 95.66937, 0 95.66937, 10.62993 116.92922999999999, 10.62993 116.92922999999999, 0 138.18909, 0 138.18909, 10.62993 159.44895, 10.62993 159.44895, 0 186.023775, 0 186.023775, 10.62993 201.96867, 10.62993 201.96867, 35.433099999999996 212.5986, 35.433099999999996 212.5986, 70.86619999999999 201.96867, 70.86619999999999 201.96867, 92.12606 212.5986, 92.12606 212.5986, 113.38592 201.96867, 113.38592 201.96867, 134.64578 212.5986, 134.64578 212.5986, 155.90564 201.96867, 155.90564 201.96867, 177.1655 212.5986, 177.1655 212.5986, 198.42535999999998 201.96867, 198.42535999999998 201.96867, 219.68522 212.5986, 219.68522 212.5986, 240.94508 201.96867, 240.94508 201.96867, 262.20493999999997 212.5986, 262.20493999999997 212.5986, 283.46479999999997 201.96867, 283.46479999999997 201.96867, 304.72466 212.5986, 304.72466 212.5986, 325.98452 201.96867, 325.98452 201.96867, 347.24438 212.5986, 347.24438 212.5986, 368.50424 201.96867, 368.50424 201.96867, 389.7641 212.5986, 389.7641 212.5986, 411.02396 201.96867, 411.02396 201.96867, 432.28382 212.5986, 432.28382 212.5986, 453.54368 201.96867, 453.54368 201.96867, 474.80354 212.5986, 474.80354 212.5986, 496.0634 201.96867, 496.0634 201.96867, 517.32326 212.5986, 517.32326 212.5986, 538.58312 201.96867, 538.58312 201.96867, 559.84298 212.5986, 559.84298 212.5986, 581.10284 201.96867, 581.10284 201.96867, 602.3626999999999 212.5986, 602.3626999999999 212.5986, 637.7958 201.96867, 637.7958 201.96867, 662.59897 186.023775, 662.59897 186.023775, 673.2289 159.44895, 673.2289 159.44895, 662.59897 138.18909, 662.59897 138.18909, 673.2289 116.92922999999999, 673.2289 116.92922999999999, 662.59897 95.66937, 662.59897 95.66937, 673.2289 74.40951, 673.2289 74.40951, 662.59897 53.14965, 662.59897 53.14965, 673.2289 26.574825, 673.2289 26.574825, 662.59897 10.62993, 662.59897 10.62993, 637.7958 0, 637.7958 0, 602.3626999999999 10.62993, 602.3626999999999 10.62993, 581.10284 0, 581.10284 0, 559.84298 10.62993, 559.84298 10.62993, 538.58312 0, 538.58312 0, 517.32326 10.62993, 517.32326 10.62993, 496.0634 0, 496.0634 0, 474.80354 10.62993, 474.80354 10.62993, 453.54368 0, 453.54368 0, 432.28382 10.62993, 432.28382 10.62993, 411.02396 0, 411.02396 0, 389.7641 10.62993, 389.7641 10.62993, 368.50424 0, 368.50424 0, 347.24438 10.62993, 347.24438 10.62993, 325.98452 0, 325.98452 0, 304.72466 10.62993, 304.72466 10.62993, 283.46479999999997 0, 283.46479999999997 0, 262.20493999999997 10.62993, 262.20493999999997 10.62993, 240.94508 0, 240.94508 0, 219.68522 10.62993, 219.68522 10.62993, 198.42535999999998 0, 198.42535999999998 0, 177.1655 10.62993, 177.1655 10.62993, 155.90564 0, 155.90564 0, 134.64578 10.62993, 134.64578 10.62993, 113.38592 0, 113.38592 0, 92.12606 10.62993, 92.12606 10.62993, 70.86619999999999 0, 70.86619999999999 0, 35.433099999999996 10.62993, 35.433099999999996 "
         style="stroke:#000000; fill:none; stroke-width:0.90000074" />
    </g>
    <g
       id="g3379">
      <circle
         style="opacity:1;fill:none;stroke:#000000;stroke-width:1.01109564;stroke-miterlimit:4;stroke-dasharray:none"
         id="path3362"
         cx="191.02571"
         cy="212.85085"
         r="5.1432948" />
      <rect
         style="opacity:1;fill:none;stroke:#000000;stroke-width:1.09684157;stroke-miterlimit:4;stroke-dasharray:none"
         id="rect3370"
         width="129.92807"
         height="165.5116"
         x="63.572174"
         y="628.74347" />
    </g>
  </g>
  <g
     id="g3374">
    <g
       id="g4"
       transform="translate(22.5000185, 22.5000185) ">
      <polygon
         id="polygon6"
         points="0, 0 26.574825, 0 26.574825, 10.62993 53.14965, 10.62993 53.14965, 0 74.40951, 0 74.40951, 10.62993 95.66937, 10.62993 95.66937, 0 116.92922999999999, 0 116.92922999999999, 10.62993 138.18909, 10.62993 138.18909, 0 159.44895, 0 159.44895, 10.62993 186.023775, 10.62993 186.023775, 0 212.5986, 0 212.5986, 30.118135 201.96867, 30.118135 201.96867, 60.23627 212.5986, 60.23627 212.5986, 81.49613 201.96867, 81.49613 201.96867, 111.614265 212.5986, 111.614265 212.5986, 141.73239999999998 186.023775, 141.73239999999998 186.023775, 131.10246999999998 159.44895, 131.10246999999998 159.44895, 141.73239999999998 138.18909, 141.73239999999998 138.18909, 131.10246999999998 116.92922999999999, 131.10246999999998 116.92922999999999, 141.73239999999998 95.66937, 141.73239999999998 95.66937, 131.10246999999998 74.40951, 131.10246999999998 74.40951, 141.73239999999998 53.14965, 141.73239999999998 53.14965, 131.10246999999998 26.574825, 131.10246999999998 26.574825, 141.73239999999998 0, 141.73239999999998 0, 111.614265 10.62993, 111.614265 10.62993, 81.49613 0, 81.49613 0, 60.23627 10.62993, 60.23627 10.62993, 30.118135 0, 30.118135 "
         style="stroke:#000000; fill:none; stroke-width:0.90000074" />
    </g>
    <rect
       y="90.873337"
       x="134.88712"
       height="47.458923"
       width="69.9179"
       id="rect3372"
       style="opacity:1;fill:none;stroke:#000000;stroke-width:1.26645041;stroke-miterlimit:4;stroke-dasharray:none" />
  </g>
</svg>
