<?xml version="1.0" encoding="UTF-8" standalone="no"?>
<svg
   xmlns:dc="http://purl.org/dc/elements/1.1/"
   xmlns:cc="http://creativecommons.org/ns#"
   xmlns:rdf="http://www.w3.org/1999/02/22-rdf-syntax-ns#"
   xmlns:svg="http://www.w3.org/2000/svg"
   xmlns="http://www.w3.org/2000/svg"
   xmlns:sodipodi="http://sodipodi.sourceforge.net/DTD/sodipodi-0.dtd"
   xmlns:inkscape="http://www.inkscape.org/namespaces/inkscape"
   version="1.1"
   width="14.207999999999998in"
   height="7.282in"
   viewBox=" 0 0 1278.7199999999998 655.38"
   id="svg2"
   inkscape:version="0.91 r13725"
   sodipodi:docname="caseplans.svg"><metadata
   id="metadata32">
  <rdf:RDF>
    <cc:Work
       rdf:about="">
      <dc:format>image/svg+xml</dc:format>
      <dc:type
         rdf:resource="http://purl.org/dc/dcmitype/StillImage" />
      <dc:title />
    </cc:Work>
  </rdf:RDF>
</metadata>
<defs
   id="defs30" />
<sodipodi:namedview
   pagecolor="#ffffff"
   bordercolor="#666666"
   borderopacity="1"
   objecttolerance="10"
   gridtolerance="10"
   guidetolerance="10"
   inkscape:pageopacity="0"
   inkscape:pageshadow="2"
   inkscape:window-width="1920"
   inkscape:window-height="1017"
   id="namedview28"
   showgrid="false"
   inkscape:document-units="in"
   inkscape:zoom="0.9009009"
   inkscape:cx="243.83291"
   inkscape:cy="365.12594"
   inkscape:window-x="-8"
   inkscape:window-y="-8"
   inkscape:window-maximized="1"
   inkscape:current-layer="svg2" />

 HEAD
     inkscape:zoom=&quot;2.5481325&quot;
     inkscape:cx=&quot;264.78606&quot;
     inkscape:cy=&quot;522.86509&quot;
=======
     inkscape:zoom=&quot;0.22522522&quot;
     inkscape:cx=&quot;513.03801&quot;
     inkscape:cy=&quot;624.56195&quot;
&gt;&gt;&gt;&gt;&gt;&gt;&gt; 10f70a8023802abcf61067701fcfe874d0e31ae4
     inkscape:window-x=&quot;-8&quot;
     inkscape:window-y=&quot;-8&quot;
     inkscape:window-maximized=&quot;1&quot;
     inkscape:current-layer=&quot;svg2&quot;
     inkscape:document-units=&quot;in&quot;
     showguides=&quot;true&quot; /&gt;
  <!-- Front-->
<!-- Back-->
<!-- Left-->
<path
   style="fill:none;stroke:#000000;stroke-width:0.89999998"
   d="m 916.3095,17.507101 c -8.7144,-0.11266 -17.4797,0.22779 -26.1621,-0.18359 -2.312,-1.50918 -1.299,-4.605908 -1.4346,-6.888668 -0.331,-1.0790004 0.7202,-3.5441404 -0.6834,-3.5468804 -8.6013,0 -17.2026,0 -25.8039,0 0,3.5397204 0,7.0794304 0,10.6191384 -9.7252,0 -19.4505,0 -29.1758,0 0,-3.539708 0,-7.079418 0,-10.6191384 -8.8268,0 -17.6536,0 -26.4804,0 0,3.5397204 0,7.0794304 0,10.6191384 -9.2761,0 -18.5521,0 -27.8282,0 0,10.53125 0,21.0625 0,31.59375 3.5404,0 7.0808,0 10.6211,0 0,14.96875 0,29.9375 0,44.906252 -3.5403,0 -7.0807,0 -10.6211,0 0,8.550777 0,17.101567 0,25.652347 3.5404,0 7.0808,0 10.6211,0 0,9.44921 0,18.89843 0,28.34765 -3.5403,0 -7.0807,0 -10.6211,0 0,8.55078 0,17.10156 0,25.65235 3.5404,0 7.0808,0 10.6211,0 0,9.44922 0,18.89843 0,28.34765 -3.5403,0 -7.0807,0 -10.6211,0 0,8.55077 0,17.10155 0,25.65234 3.5404,0 7.0808,0 10.6211,0 0,9.44919 0,18.89839 0,28.34769 -3.5403,0 -7.0807,0 -10.6211,0 0,8.5507 0,17.1015 0,25.6523 3.5404,0 7.0808,0 10.6211,0 0,9.4492 0,18.8984 0,28.3477 -3.5403,0 -7.0807,0 -10.6211,0 0,8.5507 0,17.1015 0,25.6523 3.5404,0 7.0808,0 10.6211,0 0,9.4492 0,18.8984 0,28.3477 -3.5403,0 -7.0807,0 -10.6211,0 0,8.5507 0,17.1015 0,25.6523 3.5404,0 7.0808,0 10.6211,0 0,14.9694 0,29.9388 0,44.9082 -3.5403,0 -7.0807,0 -10.6211,0 0,10.5306 0,21.0612 0,31.5918 9.2761,0 18.5521,0 27.8282,0 0,3.5404 0,7.0807 0,10.6211 8.8268,0 17.6536,0 26.4804,0 0,-3.5404 0,-7.0807 0,-10.6211 9.7253,0 19.4506,0 29.1758,0 0,3.5404 0,7.0807 0,10.6211 8.8268,0 17.6537,0 26.4805,0 0,-3.5404 0,-7.0807 0,-10.6211 9.276,0 18.5521,0 27.8281,0 0,-10.5306 0,-21.0612 0,-31.5918 -3.5397,0 -7.0794,0 -10.6191,0 0,-14.9694 0,-29.9388 0,-44.9082 3.5397,0 7.0794,0 10.6191,0 0,-8.5508 0,-17.1016 0,-25.6523 -3.5397,0 -7.0794,0 -10.6191,0 0,-9.4493 0,-18.8985 0,-28.3477 3.5397,0 7.0794,0 10.6191,0 0,-8.5508 0,-17.1016 0,-25.6523 -3.5397,0 -7.0794,0 -10.6191,0 0,-9.4493 0,-18.8985 0,-28.3477 3.5397,0 7.0794,0 10.6191,0 0,-8.5508 0,-17.1016 0,-25.6523 -3.5397,0 -7.0794,0 -10.6191,0 0,-9.4493 0,-18.8985 0,-28.34769 3.5397,0 7.0794,0 10.6191,0 0,-8.55079 0,-17.10157 0,-25.65234 -3.5397,0 -7.0794,0 -10.6191,0 0,-9.44922 0,-18.89843 0,-28.34765 3.5397,0 7.0794,0 10.6191,0 0,-8.55079 0,-17.10157 0,-25.65235 -3.5397,0 -7.0794,0 -10.6191,0 0,-9.44922 0,-18.89844 0,-28.34765 3.5397,0 7.0794,0 10.6191,0 0,-8.55078 0,-17.10157 0,-25.652347 -3.5397,0 -7.0794,0 -10.6191,0 0,-14.968752 0,-29.937502 0,-44.906252 3.5397,0 7.0794,0 10.6191,0 0,-10.53125 0,-21.0625 0,-31.59375 l -0.2246,0 z"
   id="polygon14"
   inkscape:connector-curvature="0" />
<!-- Right-->


  path
     style=&quot;fill:none;stroke:#000000;stroke-width:0.89999998&quot;
     d=&quot;m 1859.6465,-43.264588 c -8.7144,-0.11266 -17.4797,0.22779 -26.1621,-0.18359 -2.312,-1.50918 -1.299,-4.605908 -1.4346,-6.888668 -0.331,-1.079 0.7202,-3.54414 -0.6834,-3.54688 -8.6013,0 -17.2025,0 -25.8039,0 0,3.53972 0,7.07943 0,10.619138 -9.7252,0 -19.4505,0 -29.1757,0 0,-3.539708 0,-7.079418 0,-10.619138 -8.8269,0 -17.6537,0 -26.4805,0 0,3.53972 0,7.07943 0,10.619138 -9.276,0 -18.5521,0 -27.8281,0 0,10.531251 0,21.062501 0,31.593751 3.5403,0 7.0807,0 10.6211,0 0,14.9687399 0,29.93749 0,44.90624 -3.5404,0 -7.0808,0 -10.6211,0 0,8.550784 0,17.101574 0,25.652354 3.5403,0 7.0807,0 10.6211,0 0,9.44921 0,18.89843 0,28.34765 -3.5404,0 -7.0808,0 -10.6211,0 0,8.55078 0,17.101563 0,25.652353 3.5403,0 7.0807,0 10.6211,0 0,9.44922 0,18.89843 0,28.34765 -3.5404,0 -7.0808,0 -10.6211,0 0,8.55078 0,17.10156 0,25.65235 3.5403,0 7.0807,0 10.6211,0 0,9.44919 0,18.89839 0,28.34769 -3.5404,0 -7.0808,0 -10.6211,0 0,8.5507 0,17.1015 0,25.6523 3.5403,0 7.0807,0 10.6211,0 0,9.4492 0,18.8984 0,28.3477 -3.5404,0 -7.0808,0 -10.6211,0 0,8.5507 0,17.1015 0,25.6523 3.5403,0 7.0807,0 10.6211,0 0,9.4492 0,18.8984 0,28.3477 -3.5404,0 -7.0808,0 -10.6211,0 0,8.5507 0,17.1015 0,25.6523 3.5403,0 7.0807,0 10.6211,0 0,14.9694 0,29.9388 0,44.9082 -3.5404,0 -7.0808,0 -10.6211,0 0,10.5306 0,21.0612 0,31.5918 9.276,0 18.5521,0 27.8281,0 0,3.5404 0,7.0807 0,10.6211 8.8268,0 17.6536,0 26.4805,0 0,-3.5404 0,-7.0807 0,-10.6211 9.7252,0 19.4505,0 29.1757,0 0,3.5404 0,7.0807 0,10.6211 8.8269,0 17.6537,0 26.4805,0 0,-3.5404 0,-7.0807 0,-10.6211 9.276,0 18.5521,0 27.8281,0 0,-10.5306 0,-21.0612 0,-31.5918 -3.5397,0 -7.0794,0 -10.6191,0 0,-14.9694 0,-29.9388 0,-44.9082 3.5397,0 7.0794,0 10.6191,0 0,-8.5508 0,-17.1016 0,-25.6523 -3.5397,0 -7.0794,0 -10.6191,0 0,-9.4493 0,-18.8985 0,-28.3477 3.5397,0 7.0794,0 10.6191,0 0,-8.5508 0,-17.1016 0,-25.6523 -3.5397,0 -7.0794,0 -10.6191,0 0,-9.4493 0,-18.8985 0,-28.3477 3.5397,0 7.0794,0 10.6191,0 0,-8.5508 0,-17.1016 0,-25.6523 -3.5397,0 -7.0794,0 -10.6191,0 0,-9.4493 0,-18.8985 0,-28.34769 3.5397,0 7.0794,0 10.6191,0 0,-8.55079 0,-17.10157 0,-25.65235 -3.5397,0 -7.0794,0 -10.6191,0 0,-9.44922 0,-18.89843 0,-28.34765 3.5397,0 7.0794,0 10.6191,0 0,-8.55079 0,-17.101573 0,-25.652353 -3.5397,0 -7.0794,0 -10.6191,0 0,-9.44922 0,-18.89844 0,-28.34765 3.5397,0 7.0794,0 10.6191,0 0,-8.55078 0,-17.10157 0,-25.652354 -3.5397,0 -7.0794,0 -10.6191,0 0,-14.96875 0,-29.9375001 0,-44.90624 3.5397,0 7.0794,0 10.6191,0 0,-10.53125 0,-21.0625 0,-31.593751 l -0.2246,0 z&quot;
     id=&quot;polygon18&quot;
     inkscape:connector-curvature=&quot;0&quot; /&gt;
  <!-- Top-->
<path
   style="fill:none;stroke:#000000;stroke-width:0.89999998"
   d="m 43.751088,150.2977 c -0.1713,3.03026 0.3526,6.17818 -0.2852,9.12891 -1.7565,2.18601 -4.8531,1.04834 -7.2441,1.25284 -5.4707,0.004 -10.9414,0.009 -16.4122,0.0128 0,10.98047 0,21.96094 0,32.94141 -3.5397,0 -7.0794,0 -10.6190997,0 0,14.07031 0,28.14062 0,42.21094 3.5396997,0 7.0793997,0 10.6190997,0 0,9.44922 0,18.89843 0,28.34765 -3.5397,0 -7.0794,0 -10.6190997,0 0,8.55078 0,17.10157 0,25.65235 3.5396997,0 7.0793997,0 10.6190997,0 0,9.44922 0,18.89843 0,28.34765 -3.5397,0 -7.0794,0 -10.6190997,0 0,8.55078 0,17.10157 0,25.65235 3.5396997,0 7.0793997,0 10.6190997,0 0,9.44922 0,18.89843 0,28.34765 -3.5397,0 -7.0794,0 -10.6190997,0 0,8.55078 0,17.10157 0,25.65235 3.5396997,0 7.0793997,0 10.6190997,0 0,9.44922 0,18.89843 0,28.34765 -3.5397,0 -7.0794,0 -10.6190997,0 0,8.55078 0,17.10157 0,25.65235 3.5396997,0 7.0793997,0 10.6190997,0 0,9.44922 0,18.89843 0,28.34765 -3.5397,0 -7.0794,0 -10.6190997,0 0,8.55078 0,17.10157 0,25.65235 3.5396997,0 7.0793997,0 10.6190997,0 0,9.44922 0,18.89843 0,28.34765 -3.5397,0 -7.0794,0 -10.6190997,0 0,14.07097 0,28.14193 0,42.21289 3.5396997,0 7.0793997,0 10.6190997,0 0,10.97982 0,21.95964 0,32.93946 7.9805,0 15.961,0 23.9415,0 0,3.54036 0,7.08073 0,10.62109 11.0703,0 22.1406,0 33.2109,0 0,-3.54036 0,-7.08073 0,-10.62109 9.4492,0 18.8984,0 28.347602,0 0,3.54036 0,7.08073 0,10.62109 8.5508,0 17.1016,0 25.6524,0 0,-3.54036 0,-7.08073 0,-10.62109 9.4492,0 18.8984,0 28.3476,0 0,3.54036 0,7.08073 0,10.62109 8.5508,0 17.1016,0 25.6524,0 0,-3.54036 0,-7.08073 0,-10.62109 9.4492,0 18.8984,0 28.3476,0 0,3.54036 0,7.08073 0,10.62109 8.5508,0 17.1016,0 25.6524,0 0,-3.54036 0,-7.08073 0,-10.62109 9.4492,0 18.8984,0 28.3476,0 0,3.54036 0,7.08073 0,10.62109 8.5508,0 17.1016,0 25.6524,0 0,-3.54036 0,-7.08073 0,-10.62109 9.4492,0 18.8984,0 28.3476,0 0,3.54036 0,7.08073 0,10.62109 11.071,0 22.142,0 33.2129,0 0,-3.54036 0,-7.08073 0,-10.62109 7.9799,0 15.9597,0 23.9395,0 0,-10.97982 0,-21.95964 0,-32.93946 3.5404,0 7.0807,0 10.6211,0 0,-14.07096 0,-28.14192 0,-42.21289 -3.5404,0 -7.0807,0 -10.6211,0 0,-9.44922 0,-18.89843 0,-28.34765 3.5404,0 7.0807,0 10.6211,0 0,-8.55078 0,-17.10157 0,-25.65235 -3.5404,0 -7.0807,0 -10.6211,0 0,-9.44922 0,-18.89843 0,-28.34765 3.5404,0 7.0807,0 10.6211,0 0,-8.55078 0,-17.10157 0,-25.65235 -3.5404,0 -7.0807,0 -10.6211,0 0,-9.44922 0,-18.89843 0,-28.34765 3.5404,0 7.0807,0 10.6211,0 0,-8.55078 0,-17.10157 0,-25.65235 -3.5404,0 -7.0807,0 -10.6211,0 0,-9.44922 0,-18.89843 0,-28.34765 3.5404,0 7.0807,0 10.6211,0 0,-8.55078 0,-17.10157 0,-25.65235 -3.5404,0 -7.0807,0 -10.6211,0 0,-9.44922 0,-18.89843 0,-28.34765 3.5404,0 7.0807,0 10.6211,0 0,-8.55078 0,-17.10157 0,-25.65235 -3.5404,0 -7.0807,0 -10.6211,0 0,-9.44922 0,-18.89843 0,-28.34765 3.5404,0 7.0807,0 10.6211,0 0,-14.07032 0,-28.14063 0,-42.21094 -3.5404,0 -7.0807,0 -10.6211,0 0,-10.98047 0,-21.96094 0,-32.94141 -7.9798,0 -15.9596,0 -23.9395,0 0,-3.53971 0,-7.07942 0,-10.61914 -11.0709,0 -22.1419,0 -33.2129,0 0,3.53972 0,7.07943 0,10.61914 -9.4492,0 -18.8984,0 -28.3476,0 0,-3.53971 0,-7.07942 0,-10.61914 -8.5508,0 -17.1016,0 -25.6524,0 0,3.53972 0,7.07943 0,10.61914 -9.4492,0 -18.8984,0 -28.3476,0 0,-3.53971 0,-7.07942 0,-10.61914 -8.5508,0 -17.1016,0 -25.6524,0 0,3.53972 0,7.07943 0,10.61914 -9.4492,0 -18.8984,0 -28.3476,0 0,-3.53971 0,-7.07942 0,-10.61914 -8.5508,0 -17.1016,0 -25.6524,0 0,3.53972 0,7.07943 0,10.61914 -9.4492,0 -18.8984,0 -28.3476,0 0,-3.53971 0,-7.07942 0,-10.61914 -8.5508,0 -17.1016,0 -25.6524,0 0,3.53972 0,7.07943 0,10.61914 -9.449202,0 -18.898402,0 -28.347602,0 0,-3.53971 0,-7.07942 0,-10.61914 -11.0703,0 -22.1406,0 -33.2109,0 l 0,0.22461 z"
   id="polygon22"
   inkscape:connector-curvature="0" />
<!-- Bottom-->


  path
     style=&quot;fill:none;stroke:#000000;stroke-width:0.89999998&quot;
     d=&quot;m -701.95059,-18.466782 c -0.1713,3.03026 0.3526,6.17818 -0.2852,9.12891 -1.7565,2.18601 -4.853,1.04834 -7.2441,1.25284 -5.4707,0.004 -10.9414,0.009 -16.4121,0.0128 0,10.98047 0,21.96094 0,32.94141 -3.5397,0 -7.0794,0 -10.6192,0 0,14.070311 0,28.140621 0,42.210941 3.5398,0 7.0795,0 10.6192,0 0,9.44922 0,18.89843 0,28.34765 -3.5397,0 -7.0794,0 -10.6192,0 0,8.550781 0,17.101571 0,25.652351 3.5398,0 7.0795,0 10.6192,0 0,9.44922 0,18.89843 0,28.34765 -3.5397,0 -7.0794,0 -10.6192,0 0,8.55078 0,17.10157 0,25.65235 3.5398,0 7.0795,0 10.6192,0 0,9.44922 0,18.89843 0,28.34765 -3.5397,0 -7.0794,0 -10.6192,0 0,8.55078 0,17.10157 0,25.65235 3.5398,0 7.0795,0 10.6192,0 0,9.44922 0,18.89843 0,28.34765 -3.5397,0 -7.0794,0 -10.6192,0 0,8.55078 0,17.10157 0,25.65235 3.5398,0 7.0795,0 10.6192,0 0,9.44922 0,18.89843 0,28.34765 -3.5397,0 -7.0794,0 -10.6192,0 0,8.55078 0,17.10157 0,25.65235 3.5398,0 7.0795,0 10.6192,0 0,9.44922 0,18.89843 0,28.34765 -3.5397,0 -7.0794,0 -10.6192,0 0,14.07097 0,28.14193 0,42.21289 3.5398,0 7.0795,0 10.6192,0 0,10.97982 0,21.95964 0,32.93946 7.9805,0 15.9609,0 23.9414,0 0,3.54036 0,7.08073 0,10.62109 11.0703,0 22.1406,0 33.21093,0 0,-3.54036 0,-7.08073 0,-10.62109 9.44921,0 18.89843,0 28.34765,0 0,3.54036 0,7.08073 0,10.62109 8.55078,0 17.10157,0 25.65235,0 0,-3.54036 0,-7.08073 0,-10.62109 9.44921,0 18.89843,0 28.34765,0 0,3.54036 0,7.08073 0,10.62109 8.55078,0 17.10156,0 25.65235,0 0,-3.54036 0,-7.08073 0,-10.62109 9.44921,0 18.89843,0 28.34765,0 0,3.54036 0,7.08073 0,10.62109 8.55078,0 17.10156,0 25.65235,0 0,-3.54036 0,-7.08073 0,-10.62109 9.44921,0 18.89843,0 28.34765,0 0,3.54036 0,7.08073 0,10.62109 8.55078,0 17.10157,0 25.65235,0 0,-3.54036 0,-7.08073 0,-10.62109 9.44921,0 18.89843,0 28.34765,0 0,3.54036 0,7.08073 0,10.62109 11.07097,0 22.14193,0 33.21289,0 0,-3.54036 0,-7.08073 0,-10.62109 7.97982,0 15.95964,0 23.93946,0 0,-10.97982 0,-21.95964 0,-32.93946 3.54036,0 7.08073,0 10.62109,0 0,-14.07096 0,-28.14192 0,-42.21289 -3.54036,0 -7.08073,0 -10.62109,0 0,-9.44922 0,-18.89843 0,-28.34765 3.54036,0 7.08073,0 10.62109,0 0,-8.55078 0,-17.10157 0,-25.65235 -3.54036,0 -7.08073,0 -10.62109,0 0,-9.44922 0,-18.89843 0,-28.34765 3.54036,0 7.08073,0 10.62109,0 0,-8.55078 0,-17.10157 0,-25.65235 -3.54036,0 -7.08073,0 -10.62109,0 0,-9.44922 0,-18.89843 0,-28.34765 3.54036,0 7.08073,0 10.62109,0 0,-8.55078 0,-17.10157 0,-25.65235 -3.54036,0 -7.08073,0 -10.62109,0 0,-9.44922 0,-18.89843 0,-28.34765 3.54036,0 7.08073,0 10.62109,0 0,-8.55078 0,-17.10157 0,-25.65235 -3.54036,0 -7.08073,0 -10.62109,0 0,-9.44922 0,-18.89843 0,-28.34765 3.54036,0 7.08073,0 10.62109,0 0,-8.55078 0,-17.10157 0,-25.652351 -3.54036,0 -7.08073,0 -10.62109,0 0,-9.44922 0,-18.89843 0,-28.34765 3.54036,0 7.08073,0 10.62109,0 0,-14.07032 0,-28.14063 0,-42.210941 -3.54036,0 -7.08073,0 -10.62109,0 0,-10.98047 0,-21.96094 0,-32.94141 -7.97982,0 -15.95964,0 -23.93946,0 0,-3.53971 0,-7.07942 0,-10.61914 -11.07096,0 -22.14192,0 -33.21289,0 0,3.53972 0,7.07943 0,10.61914 -9.44922,0 -18.89843,0 -28.34765,0 0,-3.53971 0,-7.07942 0,-10.61914 -8.55079,0 -17.10157,0 -25.65235,0 0,3.53972 0,7.07943 0,10.61914 -9.44922,0 -18.89844,0 -28.34765,0 0,-3.53971 0,-7.07942 0,-10.61914 -8.55079,0 -17.10157,0 -25.65235,0 0,3.53972 0,7.07943 0,10.61914 -9.44922,0 -18.89844,0 -28.34765,0 0,-3.53971 0,-7.07942 0,-10.61914 -8.55078,0 -17.10157,0 -25.65235,0 0,3.53972 0,7.07943 0,10.61914 -9.44922,0 -18.89843,0 -28.34765,0 0,-3.53971 0,-7.07942 0,-10.61914 -8.55078,0 -17.10157,0 -25.65235,0 0,3.53972 0,7.07943 0,10.61914 -9.44922,0 -18.89843,0 -28.34765,0 0,-3.53971 0,-7.07942 0,-10.61914 -11.07033,0 -22.14063,0 -33.21093,0 l 0,0.22461 z&quot;
     id=&quot;polygon26&quot;
     inkscape:connector-curvature=&quot;0&quot; /&gt;
  <path
   style="fill:none;stroke:#000000;stroke-width:0.89999998"
   d="m 6.9444374,7.1125726 c 0,10.2493404 0,20.4986904 0,30.7480404 3.5396996,0 7.0793996,0 10.6190996,0 0,8.22787 0,16.45573 0,24.6836 -3.5397,0 -7.0794,0 -10.6190996,0 0,10.32422 0,20.648427 0,30.972647 3.5396996,0 7.0793996,0 10.6190996,0 0,8.22787 0,16.45573 0,24.6836 -3.5397,0 -7.0794,0 -10.6190996,0 0,10.32422 0,20.64844 0,30.97265 12.5682996,0 25.1366996,0 37.7050996,0 0,-3.54036 0,-7.08072 0,-10.62109 10.4713,0 20.9427,0 31.414,0 0,3.54037 0,7.08073 0,10.62109 10.0482,0 20.0964,0 30.144603,0 0,-3.54036 0,-7.08072 0,-10.62109 7.9518,0 15.9036,0 23.8554,0 0,3.54037 0,7.08073 0,10.62109 10.0482,0 20.0964,0 30.1446,0 0,-3.54036 0,-7.08072 0,-10.62109 7.9518,0 15.9036,0 23.8554,0 0,3.54037 0,7.08073 0,10.62109 10.0482,0 20.0964,0 30.1446,0 0,-3.54036 0,-7.08072 0,-10.62109 7.9518,0 15.9036,0 23.8554,0 0,3.54037 0,7.08073 0,10.62109 10.0482,0 20.0964,0 30.1446,0 0,-3.54036 0,-7.08072 0,-10.62109 7.9518,0 15.9036,0 23.8554,0 0,3.54037 0,7.08073 0,10.62109 10.0482,0 20.0964,0 30.1446,0 0,-3.54036 0,-7.08072 0,-10.62109 10.472,0 20.944,0 31.416,0 0,3.54037 0,7.08073 0,10.62109 12.5683,0 25.1367,0 37.705,0 0,-10.32421 0,-20.64843 0,-30.97265 -3.5403,0 -7.0807,0 -10.621,0 0,-8.22787 0,-16.45573 0,-24.6836 3.5403,0 7.0807,0 10.621,0 0,-10.32422 0,-20.648427 0,-30.972647 -3.5403,0 -7.0807,0 -10.621,0 0,-8.22787 0,-16.45573 0,-24.6836 3.5403,0 7.0807,0 10.621,0 0,-10.32422 0,-20.64843 0,-30.9726504 -12.5683,0 -25.1367,0 -37.705,0 0,3.5397104 0,7.0794204 0,10.6191404 -10.472,0 -20.944,0 -31.416,0 0,-3.53972 0,-7.07943 0,-10.6191404 -10.0482,0 -20.0964,0 -30.1446,0 0,3.5397104 0,7.0794204 0,10.6191404 -7.9518,0 -15.9036,0 -23.8554,0 0,-3.53972 0,-7.07943 0,-10.6191404 -10.0482,0 -20.0964,0 -30.1446,0 0,3.5397104 0,7.0794204 0,10.6191404 -7.9518,0 -15.9036,0 -23.8554,0 0,-3.53972 0,-7.07943 0,-10.6191404 -10.0482,0 -20.0964,0 -30.1446,0 0,3.5397104 0,7.0794204 0,10.6191404 -7.9518,0 -15.9036,0 -23.8554,0 0,-3.53972 0,-7.07943 0,-10.6191404 -10.0482,0 -20.0964,0 -30.1446,0 0,3.5397104 0,7.0794204 0,10.6191404 -7.9518,0 -15.9036,0 -23.8554,0 0,-3.53972 0,-7.07943 0,-10.6191404 -10.048203,0 -20.096403,0 -30.144603,0 0,3.5397104 0,7.0794204 0,10.6191404 -10.4713,0 -20.9427,0 -31.414,0 0,-3.53972 0,-7.07943 0,-10.6191404 -12.5684,0 -25.1368,0 -37.7050996,0 l 0,0.22461 z"
   id="polygon6"
   inkscape:connector-curvature="0" />
<rect
   style="opacity:1;fill:none;stroke:#00ff00;stroke-width:1.19006979;stroke-miterlimit:4;stroke-dasharray:none"
   id="rect4144" />

 HEAD
     width=&quot;66.302612&quot;
     height=&quot;40.218174&quot;
     x=&quot;307.36722&quot;
     y=&quot;95.482254&quot;
     rx=&quot;0.66243982&quot; /&gt;
  <circle
   style="opacity:1;fill:none;stroke:#000000;stroke-width:1.17055738;stroke-miterlimit:4;stroke-dasharray:none"
   id="path4145"
   cx="90.010139"
   cy="79.523857"
   r="18.450001" />
<rect
   style="opacity:1;fill:none;stroke:#000000;stroke-width:0.45928693;stroke-miterlimit:4;stroke-dasharray:none"
   id="rect4147"
   width="35.540714"
   height="8.5407133"
   x="182.65868"
   y="84.294563"
   rx="0.34879178" />
<rect
   style="opacity:1;fill:none;stroke:#000000;stroke-width:0.96539104;stroke-miterlimit:4;stroke-dasharray:none"
   id="rect4149"
   width="70.134605"
   height="26.034609"
   x="156.36017"
   y="72.547821"
   rx="0.33876851" />


=======
     width=&quot;67.32193&quot;
     height=&quot;49.299931&quot;
     x=&quot;-416.56387&quot;
     y=&quot;41.823483&quot;
     rx=&quot;0.67262399&quot; /&gt;
  

&gt;&gt;&gt;&gt;&gt;&gt;&gt; 10f70a8023802abcf61067701fcfe874d0e31ae4
<rect
   style="opacity:1;fill:none;stroke:#000000;stroke-width:1.21546853;stroke-miterlimit:4;stroke-dasharray:none"
   id="rect4142"
   width="57.104534"
   height="41.084534"
   x="305.96271"
   y="82.447739"
   rx="0.40064707" />
<path
   inkscape:connector-curvature="0"
   id="path4152"
   d="m 424.54369,150.2977 c -0.1713,3.03026 0.3526,6.17818 -0.2852,9.12891 -1.7565,2.18601 -4.8531,1.04834 -7.2441,1.25284 -5.4707,0.004 -10.9414,0.009 -16.4122,0.0128 0,10.98047 0,21.96094 0,32.94141 -3.5397,0 -7.0794,0 -10.6191,0 0,14.07031 0,28.14062 0,42.21094 3.5397,0 7.0794,0 10.6191,0 0,9.44922 0,18.89843 0,28.34765 -3.5397,0 -7.0794,0 -10.6191,0 0,8.55078 0,17.10157 0,25.65235 3.5397,0 7.0794,0 10.6191,0 0,9.44922 0,18.89843 0,28.34765 -3.5397,0 -7.0794,0 -10.6191,0 0,8.55078 0,17.10157 0,25.65235 3.5397,0 7.0794,0 10.6191,0 0,9.44922 0,18.89843 0,28.34765 -3.5397,0 -7.0794,0 -10.6191,0 0,8.55078 0,17.10157 0,25.65235 3.5397,0 7.0794,0 10.6191,0 0,9.44922 0,18.89843 0,28.34765 -3.5397,0 -7.0794,0 -10.6191,0 0,8.55078 0,17.10157 0,25.65235 3.5397,0 7.0794,0 10.6191,0 0,9.44922 0,18.89843 0,28.34765 -3.5397,0 -7.0794,0 -10.6191,0 0,8.55078 0,17.10157 0,25.65235 3.5397,0 7.0794,0 10.6191,0 0,9.44922 0,18.89843 0,28.34765 -3.5397,0 -7.0794,0 -10.6191,0 0,14.07097 0,28.14193 0,42.21289 3.5397,0 7.0794,0 10.6191,0 0,10.97982 0,21.95964 0,32.93946 7.9805,0 15.961,0 23.9415,0 0,3.54036 0,7.08073 0,10.62109 11.0703,0 22.1406,0 33.2109,0 0,-3.54036 0,-7.08073 0,-10.62109 9.4492,0 18.8984,0 28.3476,0 0,3.54036 0,7.08073 0,10.62109 8.5508,0 17.1016,0 25.6524,0 0,-3.54036 0,-7.08073 0,-10.62109 9.4492,0 18.8984,0 28.3476,0 0,3.54036 0,7.08073 0,10.62109 8.5508,0 17.1016,0 25.6524,0 0,-3.54036 0,-7.08073 0,-10.62109 9.4492,0 18.8984,0 28.3476,0 0,3.54036 0,7.08073 0,10.62109 8.5508,0 17.1016,0 25.6524,0 0,-3.54036 0,-7.08073 0,-10.62109 9.4492,0 18.8984,0 28.3476,0 0,3.54036 0,7.08073 0,10.62109 8.5508,0 17.1016,0 25.6524,0 0,-3.54036 0,-7.08073 0,-10.62109 9.4492,0 18.8984,0 28.3476,0 0,3.54036 0,7.08073 0,10.62109 11.071,0 22.142,0 33.2129,0 0,-3.54036 0,-7.08073 0,-10.62109 7.9799,0 15.9597,0 23.9395,0 0,-10.97982 0,-21.95964 0,-32.93946 3.5404,0 7.0807,0 10.6211,0 0,-14.07096 0,-28.14192 0,-42.21289 -3.5404,0 -7.0807,0 -10.6211,0 0,-9.44922 0,-18.89843 0,-28.34765 3.5404,0 7.0807,0 10.6211,0 0,-8.55078 0,-17.10157 0,-25.65235 -3.5404,0 -7.0807,0 -10.6211,0 0,-9.44922 0,-18.89843 0,-28.34765 3.5404,0 7.0807,0 10.6211,0 0,-8.55078 0,-17.10157 0,-25.65235 -3.5404,0 -7.0807,0 -10.6211,0 0,-9.44922 0,-18.89843 0,-28.34765 3.5404,0 7.0807,0 10.6211,0 0,-8.55078 0,-17.10157 0,-25.65235 -3.5404,0 -7.0807,0 -10.6211,0 0,-9.44922 0,-18.89843 0,-28.34765 3.5404,0 7.0807,0 10.6211,0 0,-8.55078 0,-17.10157 0,-25.65235 -3.5404,0 -7.0807,0 -10.6211,0 0,-9.44922 0,-18.89843 0,-28.34765 3.5404,0 7.0807,0 10.6211,0 0,-8.55078 0,-17.10157 0,-25.65235 -3.5404,0 -7.0807,0 -10.6211,0 0,-9.44922 0,-18.89843 0,-28.34765 3.5404,0 7.0807,0 10.6211,0 0,-14.07032 0,-28.14063 0,-42.21094 -3.5404,0 -7.0807,0 -10.6211,0 0,-10.98047 0,-21.96094 0,-32.94141 -7.9798,0 -15.9596,0 -23.9395,0 0,-3.53971 0,-7.07942 0,-10.61914 -11.0709,0 -22.1419,0 -33.2129,0 0,3.53972 0,7.07943 0,10.61914 -9.4492,0 -18.8984,0 -28.3476,0 0,-3.53971 0,-7.07942 0,-10.61914 -8.5508,0 -17.1016,0 -25.6524,0 0,3.53972 0,7.07943 0,10.61914 -9.4492,0 -18.8984,0 -28.3476,0 0,-3.53971 0,-7.07942 0,-10.61914 -8.5508,0 -17.1016,0 -25.6524,0 0,3.53972 0,7.07943 0,10.61914 -9.4492,0 -18.8984,0 -28.3476,0 0,-3.53971 0,-7.07942 0,-10.61914 -8.5508,0 -17.1016,0 -25.6524,0 0,3.53972 0,7.07943 0,10.61914 -9.4492,0 -18.8984,0 -28.3476,0 0,-3.53971 0,-7.07942 0,-10.61914 -8.5508,0 -17.1016,0 -25.6524,0 0,3.53972 0,7.07943 0,10.61914 -9.4492,0 -18.8984,0 -28.3476,0 0,-3.53971 0,-7.07942 0,-10.61914 -11.0703,0 -22.1406,0 -33.2109,0 l 0,0.22461 z"
   style="fill:none;stroke:#000000;stroke-width:0.89999998" />
<path
   inkscape:connector-curvature="0"
   id="path4154"
   d="m 1055.0025,17.507099 c -8.7144,-0.11266 -17.4797,0.22779 -26.1621,-0.18359 -2.312,-1.50918 -1.299,-4.605908 -1.4346,-6.888668 -0.331,-1.0789997 0.7202,-3.5441397 -0.6834,-3.5468797 -8.6013,0 -17.2026,0 -25.8039,0 0,3.5397197 0,7.0794297 0,10.6191377 -9.7252,0 -19.4505,0 -29.1758,0 0,-3.539708 0,-7.079418 0,-10.6191377 -8.8268,0 -17.6536,0 -26.4804,0 0,3.5397197 0,7.0794297 0,10.6191377 -9.2761,0 -18.5521,0 -27.8282,0 0,10.53125 0,21.0625 0,31.59375 3.5404,0 7.0808,0 10.6211,0 0,14.96875 0,29.9375 0,44.906252 -3.5403,0 -7.0807,0 -10.6211,0 0,8.550779 0,17.101569 0,25.652349 3.5404,0 7.0808,0 10.6211,0 0,9.44921 0,18.89843 0,28.34765 -3.5403,0 -7.0807,0 -10.6211,0 0,8.55078 0,17.10156 0,25.65235 3.5404,0 7.0808,0 10.6211,0 0,9.44922 0,18.89843 0,28.34765 -3.5403,0 -7.0807,0 -10.6211,0 0,8.55077 0,17.10155 0,25.65234 3.5404,0 7.0808,0 10.6211,0 0,9.44919 0,18.89839 0,28.34769 -3.5403,0 -7.0807,0 -10.6211,0 0,8.5507 0,17.1015 0,25.6523 3.5404,0 7.0808,0 10.6211,0 0,9.4492 0,18.8984 0,28.3477 -3.5403,0 -7.0807,0 -10.6211,0 0,8.5507 0,17.1015 0,25.6523 3.5404,0 7.0808,0 10.6211,0 0,9.4492 0,18.8984 0,28.3477 -3.5403,0 -7.0807,0 -10.6211,0 0,8.5507 0,17.1015 0,25.6523 3.5404,0 7.0808,0 10.6211,0 0,14.9694 0,29.9388 0,44.9082 -3.5403,0 -7.0807,0 -10.6211,0 0,10.5306 0,21.0612 0,31.5918 9.2761,0 18.5521,0 27.8282,0 0,3.5404 0,7.0807 0,10.6211 8.8268,0 17.6536,0 26.4804,0 0,-3.5404 0,-7.0807 0,-10.6211 9.7253,0 19.4506,0 29.1758,0 0,3.5404 0,7.0807 0,10.6211 8.8268,0 17.6537,0 26.4805,0 0,-3.5404 0,-7.0807 0,-10.6211 9.276,0 18.5521,0 27.8281,0 0,-10.5306 0,-21.0612 0,-31.5918 -3.5397,0 -7.0794,0 -10.6191,0 0,-14.9694 0,-29.9388 0,-44.9082 3.5397,0 7.0794,0 10.6191,0 0,-8.5508 0,-17.1016 0,-25.6523 -3.5397,0 -7.0794,0 -10.6191,0 0,-9.4493 0,-18.8985 0,-28.3477 3.5397,0 7.0794,0 10.6191,0 0,-8.5508 0,-17.1016 0,-25.6523 -3.5397,0 -7.0794,0 -10.6191,0 0,-9.4493 0,-18.8985 0,-28.3477 3.5397,0 7.0794,0 10.6191,0 0,-8.5508 0,-17.1016 0,-25.6523 -3.5397,0 -7.0794,0 -10.6191,0 0,-9.4493 0,-18.8985 0,-28.34769 3.5397,0 7.0794,0 10.6191,0 0,-8.55079 0,-17.10157 0,-25.65234 -3.5397,0 -7.0794,0 -10.6191,0 0,-9.44922 0,-18.89843 0,-28.34765 3.5397,0 7.0794,0 10.6191,0 0,-8.55079 0,-17.10157 0,-25.65235 -3.5397,0 -7.0794,0 -10.6191,0 0,-9.44922 0,-18.89844 0,-28.34765 3.5397,0 7.0794,0 10.6191,0 0,-8.55078 0,-17.10157 0,-25.652349 -3.5397,0 -7.0794,0 -10.6191,0 0,-14.968752 0,-29.937502 0,-44.906252 3.5397,0 7.0794,0 10.6191,0 0,-10.53125 0,-21.0625 0,-31.59375 l -0.2246,0 z"
   style="fill:none;stroke:#000000;stroke-width:0.89999998" />
<path
   inkscape:connector-curvature="0"
   id="path4158"
   d="m 392.22914,7.1125728 c 0,10.2493402 0,20.4986902 0,30.7480402 3.5397,0 7.0794,0 10.6191,0 0,8.22787 0,16.45573 0,24.6836 -3.5397,0 -7.0794,0 -10.6191,0 0,10.32422 0,20.648427 0,30.972647 3.5397,0 7.0794,0 10.6191,0 0,8.22787 0,16.45573 0,24.6836 -3.5397,0 -7.0794,0 -10.6191,0 0,10.32422 0,20.64844 0,30.97265 12.5683,0 25.1367,0 37.7051,0 0,-3.54036 0,-7.08072 0,-10.62109 10.4713,0 20.9427,0 31.414,0 0,3.54037 0,7.08073 0,10.62109 10.0482,0 20.0964,0 30.1446,0 0,-3.54036 0,-7.08072 0,-10.62109 7.9518,0 15.9036,0 23.8554,0 0,3.54037 0,7.08073 0,10.62109 10.0482,0 20.0964,0 30.1446,0 0,-3.54036 0,-7.08072 0,-10.62109 7.9518,0 15.9036,0 23.8554,0 0,3.54037 0,7.08073 0,10.62109 10.0482,0 20.0964,0 30.1446,0 0,-3.54036 0,-7.08072 0,-10.62109 7.9518,0 15.9036,0 23.8554,0 0,3.54037 0,7.08073 0,10.62109 10.0482,0 20.0964,0 30.1446,0 0,-3.54036 0,-7.08072 0,-10.62109 7.9518,0 15.9036,0 23.8554,0 0,3.54037 0,7.08073 0,10.62109 10.0482,0 20.0964,0 30.1446,0 0,-3.54036 0,-7.08072 0,-10.62109 10.472,0 20.944,0 31.416,0 0,3.54037 0,7.08073 0,10.62109 12.5683,0 25.1367,0 37.705,0 0,-10.32421 0,-20.64843 0,-30.97265 -3.5403,0 -7.0807,0 -10.621,0 0,-8.22787 0,-16.45573 0,-24.6836 3.5403,0 7.0807,0 10.621,0 0,-10.32422 0,-20.648427 0,-30.972647 -3.5403,0 -7.0807,0 -10.621,0 0,-8.22787 0,-16.45573 0,-24.6836 3.5403,0 7.0807,0 10.621,0 0,-10.32422 0,-20.64843 0,-30.9726502 -12.5683,0 -25.1367,0 -37.705,0 0,3.5397102 0,7.0794202 0,10.6191402 -10.472,0 -20.944,0 -31.416,0 0,-3.53972 0,-7.07943 0,-10.6191402 -10.0482,0 -20.0964,0 -30.1446,0 0,3.5397102 0,7.0794202 0,10.6191402 -7.9518,0 -15.9036,0 -23.8554,0 0,-3.53972 0,-7.07943 0,-10.6191402 -10.0482,0 -20.0964,0 -30.1446,0 0,3.5397102 0,7.0794202 0,10.6191402 -7.9518,0 -15.9036,0 -23.8554,0 0,-3.53972 0,-7.07943 0,-10.6191402 -10.0482,0 -20.0964,0 -30.1446,0 0,3.5397102 0,7.0794202 0,10.6191402 -7.9518,0 -15.9036,0 -23.8554,0 0,-3.53972 0,-7.07943 0,-10.6191402 -10.0482,0 -20.0964,0 -30.1446,0 0,3.5397102 0,7.0794202 0,10.6191402 -7.9518,0 -15.9036,0 -23.8554,0 0,-3.53972 0,-7.07943 0,-10.6191402 -10.0482,0 -20.0964,0 -30.1446,0 0,3.5397102 0,7.0794202 0,10.6191402 -10.4713,0 -20.9427,0 -31.414,0 0,-3.53972 0,-7.07943 0,-10.6191402 -12.5684,0 -25.1368,0 -37.7051,0 l 0,0.22461 z"
   style="fill:none;stroke:#000000;stroke-width:0.89999998" />
</svg>
