<?xml version="1.0" encoding="UTF-8" standalone="no"?>
<svg
   xmlns:dc="http://purl.org/dc/elements/1.1/"
   xmlns:cc="http://creativecommons.org/ns#"
   xmlns:rdf="http://www.w3.org/1999/02/22-rdf-syntax-ns#"
   xmlns:svg="http://www.w3.org/2000/svg"
   xmlns="http://www.w3.org/2000/svg"
   xmlns:sodipodi="http://sodipodi.sourceforge.net/DTD/sodipodi-0.dtd"
   xmlns:inkscape="http://www.inkscape.org/namespaces/inkscape"
   version="1.1"
   width="14.207999999999998in"
   height="7.272in"
   viewBox=" 0 0 1278.7199999999998 654.48"
   id="svg2"
   inkscape:version="0.91 r13725"
   sodipodi:docname="caseplans.svg">
  <metadata
     id="metadata32">
    <rdf:RDF>
      <cc:Work
         rdf:about="">
        <dc:format>image/svg+xml</dc:format>
        <dc:type
           rdf:resource="http://purl.org/dc/dcmitype/StillImage" />
        <dc:title></dc:title>
      </cc:Work>
    </rdf:RDF>
  </metadata>
  <defs
     id="defs30" />
  <sodipodi:namedview
     pagecolor="#ffffff"
     bordercolor="#666666"
     borderopacity="1"
     objecttolerance="10"
     gridtolerance="10"
     guidetolerance="10"
     inkscape:pageopacity="0"
     inkscape:pageshadow="2"
     inkscape:window-width="1920"
     inkscape:window-height="1017"
     id="namedview28"
     showgrid="false"
     inkscape:document-units="in"
     inkscape:zoom="2.5481325"
     inkscape:cx="346.32765"
     inkscape:cy="556.24543"
     inkscape:window-x="-8"
     inkscape:window-y="-8"
     inkscape:window-maximized="1"
     inkscape:current-layer="svg2" />
  <!-- Front-->
  <path
     inkscape:connector-curvature="0"
     id="polygon6"
     d="m 22.5,22.5 33.435,0 0,10.62 33.435,0 0,-10.62 22.5,0 0,10.62 22.5,0 0,-10.62 22.5,0 0,10.62 22.5,0 0,-10.62 22.5,0 0,10.62 22.5,0 0,-10.62 22.5,0 0,10.62 22.5,0 0,-10.62 22.5,0 0,10.62 22.5,0 0,-10.62 22.5,0 0,10.62 33.435,0 0,-10.62 33.435,0 0,28.935 -10.62,0 0,28.935 10.62,0 0,22.5 -10.62,0 0,28.935 10.62,0 0,28.935 -33.435,0 0,-10.62 -33.435,0 0,10.62 -22.5,0 0,-10.62 -22.5,0 0,10.62 -22.5,0 0,-10.62 -22.5,0 0,10.62 -22.5,0 0,-10.62 -22.5,0 0,10.62 -22.5,0 0,-10.62 -22.5,0 0,10.62 -22.5,0 0,-10.62 -22.5,0 0,10.62 -22.5,0 0,-10.62 -33.435,0 0,10.62 -33.435,0 0,-28.935 10.62,0 0,-28.935 -10.62,0 0,-22.5 10.62,0 0,-28.935 -10.62,0 z"
     style="fill:none;stroke:#000000;stroke-width:0.89999998" />
  <!-- Back-->
  <path
     inkscape:connector-curvature="0"
     id="polygon10"
     d="m 403.74,22.5 33.435,0 0,10.62 33.435,0 0,-10.62 22.5,0 0,10.62 22.5,0 0,-10.62 22.5,0 0,10.62 22.5,0 0,-10.62 22.5,0 0,10.62 22.5,0 0,-10.62 22.5,0 0,10.62 22.5,0 0,-10.62 22.5,0 0,10.62 22.5,0 0,-10.62 22.5,0 0,10.62 33.435,0 0,-10.62 33.435,0 0,28.935 -10.62,0 0,28.935 10.62,0 0,22.5 -10.62,0 0,28.935 10.62,0 0,28.935 -33.435,0 0,-10.62 -33.435,0 0,10.62 -22.5,0 0,-10.62 -22.5,0 0,10.62 -22.5,0 0,-10.62 -22.5,0 0,10.62 -22.5,0 0,-10.62 -22.5,0 0,10.62 -22.5,0 0,-10.62 -22.5,0 0,10.62 -22.5,0 0,-10.62 -22.5,0 0,10.62 -22.5,0 0,-10.62 -33.435,0 0,10.62 -33.435,0 0,-28.935 10.62,0 0,-28.935 -10.62,0 0,-22.5 10.62,0 0,-28.935 -10.62,0 z"
     style="fill:none;stroke:#000000;stroke-width:0.89999998" />
  <!-- Left-->
  <path
     inkscape:connector-curvature="0"
     id="polygon14"
     d="m 795.6,22.5 22.815,0 0,10.62 33.435,0 0,-10.62 22.5,0 0,10.62 22.5,0 0,-10.62 22.5,0 0,10.62 22.5,0 0,-10.62 22.5,0 0,10.62 22.5,0 0,-10.62 22.5,0 0,10.62 22.5,0 0,-10.62 22.5,0 0,10.62 22.5,0 0,-10.62 22.5,0 0,10.62 22.5,0 0,-10.62 22.5,0 0,10.62 22.5,0 0,-10.62 22.5,0 0,10.62 33.435,0 0,-10.62 22.815,0 0,28.935 10.62,0 0,28.935 -10.62,0 0,22.5 10.62,0 0,28.935 -10.62,0 0,28.935 -22.815,0 0,-10.62 -33.435,0 0,10.62 -22.5,0 0,-10.62 -22.5,0 0,10.62 -22.5,0 0,-10.62 -22.5,0 0,10.62 -22.5,0 0,-10.62 -22.5,0 0,10.62 -22.5,0 0,-10.62 -22.5,0 0,10.62 -22.5,0 0,-10.62 -22.5,0 0,10.62 -22.5,0 0,-10.62 -22.5,0 0,10.62 -22.5,0 0,-10.62 -22.5,0 0,10.62 -22.5,0 0,-10.62 -33.435,0 0,10.62 -22.815,0 0,-28.935 -10.62,0 0,-28.935 10.62,0 0,-22.5 -10.62,0 0,-28.935 10.62,0 z"
     style="fill:none;stroke:#000000;stroke-width:0.89999998" />
  <!-- Right-->
  <path
     inkscape:connector-curvature="0"
     id="polygon18"
     d="m 795.6,160.74 22.815,0 0,10.62 33.435,0 0,-10.62 22.5,0 0,10.62 22.5,0 0,-10.62 22.5,0 0,10.62 22.5,0 0,-10.62 22.5,0 0,10.62 22.5,0 0,-10.62 22.5,0 0,10.62 22.5,0 0,-10.62 22.5,0 0,10.62 22.5,0 0,-10.62 22.5,0 0,10.62 22.5,0 0,-10.62 22.5,0 0,10.62 22.5,0 0,-10.62 22.5,0 0,10.62 33.435,0 0,-10.62 22.815,0 0,28.935 10.62,0 0,28.935 -10.62,0 0,22.5 10.62,0 0,28.935 -10.62,0 0,28.935 -22.815,0 0,-10.62 -33.435,0 0,10.62 -22.5,0 0,-10.62 -22.5,0 0,10.62 -22.5,0 0,-10.62 -22.5,0 0,10.62 -22.5,0 0,-10.62 -22.5,0 0,10.62 -22.5,0 0,-10.62 -22.5,0 0,10.62 -22.5,0 0,-10.62 -22.5,0 0,10.62 -22.5,0 0,-10.62 -22.5,0 0,10.62 -22.5,0 0,-10.62 -22.5,0 0,10.62 -22.5,0 0,-10.62 -33.435,0 0,10.62 -22.815,0 0,-28.935 -10.62,0 0,-28.935 10.62,0 0,-22.5 -10.62,0 0,-28.935 10.62,0 z"
     style="fill:none;stroke:#000000;stroke-width:0.89999998" />
  <!-- Top-->
  <path
     inkscape:connector-curvature="0"
     id="polygon22"
     d="m 33.12,171.36 22.815,0 0,-10.62 33.435,0 0,10.62 22.5,0 0,-10.62 22.5,0 0,10.62 22.5,0 0,-10.62 22.5,0 0,10.62 22.5,0 0,-10.62 22.5,0 0,10.62 22.5,0 0,-10.62 22.5,0 0,10.62 22.5,0 0,-10.62 22.5,0 0,10.62 22.5,0 0,-10.62 33.435,0 0,10.62 22.815,0 0,22.815 10.62,0 0,33.435 -10.62,0 0,22.5 10.62,0 0,22.5 -10.62,0 0,22.5 10.62,0 0,22.5 -10.62,0 0,22.5 10.62,0 0,22.5 -10.62,0 0,22.5 10.62,0 0,22.5 -10.62,0 0,22.5 10.62,0 0,22.5 -10.62,0 0,22.5 10.62,0 0,22.5 -10.62,0 0,22.5 10.62,0 0,22.5 -10.62,0 0,22.5 10.62,0 0,33.435 -10.62,0 0,22.815 -22.815,0 0,10.62 -33.435,0 0,-10.62 -22.5,0 0,10.62 -22.5,0 0,-10.62 -22.5,0 0,10.62 -22.5,0 0,-10.62 -22.5,0 0,10.62 -22.5,0 0,-10.62 -22.5,0 0,10.62 -22.5,0 0,-10.62 -22.5,0 0,10.62 -22.5,0 0,-10.62 -22.5,0 0,10.62 -33.435,0 0,-10.62 -22.815,0 0,-22.815 -10.62,0 0,-33.435 10.62,0 0,-22.5 -10.62,0 0,-22.5 10.62,0 0,-22.5 -10.62,0 0,-22.5 10.62,0 0,-22.5 -10.62,0 0,-22.5 10.62,0 0,-22.5 -10.62,0 0,-22.5 10.62,0 0,-22.5 -10.62,0 0,-22.5 10.62,0 0,-22.5 -10.62,0 0,-22.5 10.62,0 0,-22.5 -10.62,0 0,-22.5 10.62,0 0,-22.5 -10.62,0 0,-33.435 10.62,0 z"
     style="fill:none;stroke:#000000;stroke-width:0.89999998" />
  <!-- Bottom-->
  <path
     inkscape:connector-curvature="0"
     id="polygon26"
     d="m 414.36,171.36 22.815,0 0,-10.62 33.435,0 0,10.62 22.5,0 0,-10.62 22.5,0 0,10.62 22.5,0 0,-10.62 22.5,0 0,10.62 22.5,0 0,-10.62 22.5,0 0,10.62 22.5,0 0,-10.62 22.5,0 0,10.62 22.5,0 0,-10.62 22.5,0 0,10.62 22.5,0 0,-10.62 33.435,0 0,10.62 22.815,0 0,22.815 10.62,0 0,33.435 -10.62,0 0,22.5 10.62,0 0,22.5 -10.62,0 0,22.5 10.62,0 0,22.5 -10.62,0 0,22.5 10.62,0 0,22.5 -10.62,0 0,22.5 10.62,0 0,22.5 -10.62,0 0,22.5 10.62,0 0,22.5 -10.62,0 0,22.5 10.62,0 0,22.5 -10.62,0 0,22.5 10.62,0 0,22.5 -10.62,0 0,22.5 10.62,0 0,33.435 -10.62,0 0,22.815 -22.815,0 0,10.62 -33.435,0 0,-10.62 -22.5,0 0,10.62 -22.5,0 0,-10.62 -22.5,0 0,10.62 -22.5,0 0,-10.62 -22.5,0 0,10.62 -22.5,0 0,-10.62 -22.5,0 0,10.62 -22.5,0 0,-10.62 -22.5,0 0,10.62 -22.5,0 0,-10.62 -22.5,0 0,10.62 -33.435,0 0,-10.62 -22.815,0 0,-22.815 -10.62,0 0,-33.435 10.62,0 0,-22.5 -10.62,0 0,-22.5 10.62,0 0,-22.5 -10.62,0 0,-22.5 10.62,0 0,-22.5 -10.62,0 0,-22.5 10.62,0 0,-22.5 -10.62,0 0,-22.5 10.62,0 0,-22.5 -10.62,0 0,-22.5 10.62,0 0,-22.5 -10.62,0 0,-22.5 10.62,0 0,-22.5 -10.62,0 0,-22.5 10.62,0 0,-22.5 -10.62,0 0,-33.435 10.62,0 z"
     style="fill:none;stroke:#000000;stroke-width:0.89999998" />
  <path
     style="opacity:1;fill:none;stroke:#000000;stroke-width:0.99000001;stroke-miterlimit:4;stroke-dasharray:none"
     d="m 340.97795,101.56729 45,0 0,42.3 -45,0 z"
     id="rect4160"
     inkscape:connector-curvature="0" />
  <path
     style="opacity:1;fill:none;stroke:#000000;stroke-width:1.02081013;stroke-miterlimit:4;stroke-dasharray:none"
     d="M 91.376784,67.60324 A 18.209595,18.209595 0 0 1 73.16719,85.81283 18.209595,18.209595 0 0 1 54.957595,67.60324 18.209595,18.209595 0 0 1 73.16719,49.39364 18.209595,18.209595 0 0 1 91.376784,67.60324 Z"
     id="path4162"
     inkscape:connector-curvature="0" />
  <path
     style="opacity:1;fill:none;stroke:#000000;stroke-width:0.99000001;stroke-miterlimit:4;stroke-dasharray:none"
     d="m 120.87284,52.79824 71.28,0 0,29.61001 -71.28,0 z"
     id="rect4164"
     inkscape:connector-curvature="0" />
</svg>
